<svg width="492" height="528" viewBox="0 0 492 528" fill="none" xmlns="http://www.w3.org/2000/svg">
<path opacity="0.7" d="M0.452543 220.862C0.452543 220.862 -8.9737 315.036 58.2153 393.119C125.404 471.201 229.32 497.358 313.144 520.866C396.969 544.374 468.49 508.235 488.184 435.25C507.878 362.265 446.112 326.832 422.325 234.164C398.538 141.497 405.337 114.092 338.046 46.1453C270.755 -21.8015 150.431 -13.6672 77.659 63.6499C4.88709 140.967 0.452543 220.862 0.452543 220.862Z" fill="#D1B9DC"/>
<path d="M334.779 68.9355H153.154C144.054 68.9355 136.677 76.5735 136.677 85.9953V485.42C136.677 494.842 144.054 502.48 153.154 502.48H334.779C343.88 502.48 351.257 494.842 351.257 485.42V85.9953C351.257 76.5735 343.88 68.9355 334.779 68.9355Z" fill="#263238"/>
<path d="M251.247 489.944C251.247 488.449 250.818 486.988 250.016 485.745C249.214 484.503 248.073 483.535 246.739 482.963C245.406 482.392 243.938 482.243 242.522 482.535C241.106 482.828 239.806 483.548 238.786 484.606C237.766 485.664 237.072 487.011 236.792 488.477C236.512 489.943 236.658 491.463 237.212 492.843C237.766 494.223 238.703 495.402 239.904 496.231C241.106 497.06 242.517 497.501 243.961 497.499C244.919 497.5 245.868 497.306 246.754 496.926C247.639 496.547 248.443 495.991 249.12 495.289C249.797 494.587 250.333 493.753 250.698 492.836C251.063 491.919 251.25 490.936 251.247 489.944V489.944Z" stroke="white" stroke-linecap="round" stroke-linejoin="round"/>
<path d="M334.779 68.9355H153.154C144.054 68.9355 136.677 76.5735 136.677 85.9953V485.42C136.677 494.842 144.054 502.48 153.154 502.48H334.779C343.88 502.48 351.257 494.842 351.257 485.42V85.9953C351.257 76.5735 343.88 68.9355 334.779 68.9355Z" stroke="#263238" stroke-linecap="round" stroke-linejoin="round"/>
<path d="M341.702 98.3789H146.209V476.749H341.702V98.3789Z" fill="white" stroke="#263238" stroke-linecap="round" stroke-linejoin="round"/>
<path d="M335.052 102.304H318.847V111.503H335.052V102.304Z" stroke="#263238" stroke-width="0.821067" stroke-linecap="round" stroke-linejoin="round"/>
<path d="M331.488 102.304H318.847V111.503H331.488V102.304Z" fill="#263238" stroke="#263238" stroke-width="0.725073" stroke-linecap="round" stroke-linejoin="round"/>
<path d="M337.299 104.876H335.018V108.93H337.299V104.876Z" fill="#263238" stroke="#263238" stroke-width="0.725073" stroke-linecap="round" stroke-linejoin="round"/>
<path d="M153.585 105.158H150.612V110.434H153.585V105.158Z" fill="#263238" stroke="#263238" stroke-width="0.883086" stroke-linecap="round" stroke-linejoin="round"/>
<path d="M158.261 103.302H155.288V110.434H158.261V103.302Z" fill="#263238" stroke="#263238" stroke-width="0.883086" stroke-linecap="round" stroke-linejoin="round"/>
<path d="M162.925 101.117H159.952V110.434H162.925V101.117Z" fill="#263238" stroke="#263238" stroke-width="0.883086" stroke-linecap="round" stroke-linejoin="round"/>
<path d="M337.083 116.626H149.364V131.242H337.083V116.626Z" fill="#DFCEE6"/>
<path d="M325.848 324.645H268.155C266.265 324.645 264.452 325.423 263.116 326.806C261.779 328.19 261.029 330.067 261.029 332.024V339.355L246.775 345.994L261.029 349.953V354.535C261.029 356.492 261.779 358.369 263.116 359.753C264.452 361.136 266.265 361.914 268.155 361.914H325.905C327.795 361.914 329.608 361.136 330.944 359.753C332.281 358.369 333.032 356.492 333.032 354.535V332.035C333.033 331.061 332.848 330.095 332.487 329.195C332.126 328.294 331.596 327.477 330.928 326.79C330.261 326.102 329.468 325.559 328.596 325.191C327.724 324.823 326.79 324.637 325.848 324.645V324.645Z" fill="white" stroke="#263238" stroke-miterlimit="10"/>
<path d="M325.848 148.407H268.155C266.267 148.407 264.456 149.183 263.12 150.564C261.784 151.946 261.032 153.819 261.029 155.774V163.117L246.775 169.756L261.029 173.715V178.297C261.029 180.254 261.779 182.131 263.116 183.515C264.452 184.898 266.265 185.676 268.155 185.676H325.905C327.795 185.676 329.608 184.898 330.944 183.515C332.281 182.131 333.032 180.254 333.032 178.297V155.798C333.033 154.823 332.848 153.857 332.487 152.957C332.126 152.056 331.596 151.239 330.928 150.552C330.261 149.865 329.468 149.321 328.596 148.953C327.724 148.585 326.79 148.4 325.848 148.407V148.407Z" fill="white" stroke="#263238" stroke-miterlimit="10"/>
<path d="M163.061 420.154H220.811C222.701 420.154 224.514 420.931 225.85 422.315C227.187 423.699 227.938 425.575 227.938 427.532V434.864L242.191 441.502L227.938 445.462V450.044C227.938 452.001 227.187 453.877 225.85 455.261C224.514 456.645 222.701 457.422 220.811 457.422H163.061C161.171 457.422 159.358 456.645 158.022 455.261C156.685 453.877 155.934 452.001 155.934 450.044V427.579C155.928 426.606 156.108 425.642 156.464 424.741C156.819 423.841 157.343 423.022 158.006 422.331C158.668 421.641 159.456 421.094 160.323 420.72C161.191 420.346 162.121 420.154 163.061 420.154V420.154Z" fill="white" stroke="#263238" stroke-miterlimit="10"/>
<path d="M163.061 241.567H220.811C222.701 241.567 224.514 242.344 225.85 243.728C227.187 245.112 227.938 246.988 227.938 248.945V256.277L242.191 262.915L227.938 266.875V271.457C227.938 273.414 227.187 275.29 225.85 276.674C224.514 278.058 222.701 278.835 220.811 278.835H163.061C161.171 278.835 159.358 278.058 158.022 276.674C156.685 275.29 155.934 273.414 155.934 271.457V248.934C155.937 246.979 156.69 245.105 158.026 243.724C159.362 242.343 161.173 241.567 163.061 241.567V241.567Z" fill="white" stroke="#263238" stroke-miterlimit="10"/>
<path d="M247.116 236.737C245.777 230.616 240.602 207.611 237.368 203.1C233.634 197.883 212.028 185.77 208.941 183.584C205.854 181.399 201.145 179.719 199.681 179.719C199.681 179.719 187.822 183.925 176.134 187.121C164.445 190.317 157.977 192.502 156.638 196.52C155.503 200.045 150.317 229.676 149.103 236.714L247.116 236.737Z" fill="#616161" stroke="#263238" stroke-linecap="round" stroke-linejoin="round"/>
<path d="M176.236 234.635C175.744 225.854 175.264 217.082 174.795 208.317" stroke="#263238" stroke-linecap="round" stroke-linejoin="round"/>
<path d="M208.453 206.624C213.979 205.79 217.066 195.357 217.883 190.986C217.997 190.352 218.11 189.811 218.212 189.283C213.809 186.592 210.087 184.407 208.941 183.584C205.854 181.399 201.145 179.719 199.681 179.719C199.681 179.719 195.357 181.258 189.354 183.173C190.16 185.076 192.214 189.776 195.301 196.038C199.363 204.275 202.938 207.494 208.453 206.624Z" fill="white" stroke="#263238" stroke-linecap="round" stroke-linejoin="round"/>
<path d="M196.106 164.41C196.106 164.41 194.484 181.74 194.325 182.75C194.166 183.761 196.435 190.481 200.339 196.708C204.243 202.935 209.418 202.43 212.028 197.037C213.979 192.532 215.554 187.862 216.737 183.079C214.212 182.518 211.839 181.384 209.788 179.758C207.738 178.133 206.061 176.057 204.878 173.68C200.986 165.597 197.729 162.06 196.106 164.41Z" fill="#B2B2B2" stroke="#263238" stroke-linecap="round" stroke-linejoin="round"/>
<path d="M207.318 123.206C207.318 123.206 196.923 126.402 193.19 134.814C190.149 141.652 191.885 152.309 193.19 155.833C194.495 159.358 194.972 166.267 197.411 172.494C199.851 178.721 206.342 186.593 211.869 187.768C217.395 188.943 228.278 179.86 231.16 175.666C234.043 171.472 233.112 164.222 233.43 163.047C233.748 161.873 237.969 153.46 237.493 143.074C237.016 132.688 223.081 120.351 207.318 123.206Z" fill="#B2B2B2" stroke="#263238" stroke-linecap="round" stroke-linejoin="round"/>
<path d="M227.302 161.896C227.302 161.896 228.766 171.648 226.485 172.658C224.204 173.669 219.824 172.153 219.177 170.802" stroke="#263238" stroke-linecap="round" stroke-linejoin="round"/>
<path d="M217.883 176.018C215.367 174.802 213.186 172.952 211.54 170.637C211.54 170.637 207.965 176.183 211.869 177.687C212.908 178.142 214.063 178.226 215.153 177.923C216.243 177.621 217.204 176.951 217.883 176.018V176.018Z" fill="#263238" stroke="#263238" stroke-linecap="round" stroke-linejoin="round"/>
<path d="M219.778 161.59C219.381 162.918 218.541 163.835 217.895 163.635C217.248 163.435 217.055 162.19 217.441 160.85C217.827 159.511 218.678 158.606 219.313 158.806C219.949 159.006 220.164 160.251 219.778 161.59Z" fill="#263238"/>
<path d="M231.149 163.435C230.752 164.775 229.912 165.691 229.265 165.48C228.619 165.268 228.426 164.034 228.811 162.707C229.197 161.379 230.048 160.451 230.695 160.651C231.342 160.85 231.535 162.107 231.149 163.435Z" fill="#263238"/>
<path d="M223.081 155.598C222.811 155.601 222.551 155.496 222.354 155.304C219.324 152.297 215.931 155.069 215.784 155.187C215.677 155.276 215.555 155.343 215.423 155.384C215.292 155.424 215.154 155.437 215.017 155.423C214.881 155.408 214.749 155.366 214.628 155.298C214.507 155.23 214.401 155.139 214.314 155.028C214.228 154.918 214.163 154.791 214.124 154.655C214.085 154.519 214.072 154.376 214.087 154.235C214.101 154.093 214.142 153.956 214.207 153.831C214.272 153.707 214.361 153.596 214.468 153.507C215.778 152.347 217.455 151.729 219.178 151.77C220.902 151.811 222.55 152.509 223.807 153.73C224.003 153.935 224.113 154.211 224.113 154.5C224.113 154.788 224.003 155.064 223.807 155.269C223.713 155.371 223.6 155.452 223.476 155.509C223.351 155.565 223.217 155.596 223.081 155.598Z" fill="#263238"/>
<path d="M235.098 159.322C234.923 159.322 234.75 159.276 234.596 159.19C234.442 159.104 234.31 158.98 234.213 158.829C234.006 158.401 233.71 158.026 233.348 157.73C232.985 157.433 232.564 157.223 232.114 157.114C231.326 157.079 230.555 157.347 229.946 157.866C229.844 157.96 229.725 158.034 229.596 158.081C229.466 158.128 229.329 158.148 229.192 158.141C229.055 158.133 228.921 158.098 228.797 158.036C228.673 157.975 228.563 157.889 228.471 157.783C228.379 157.678 228.309 157.554 228.263 157.42C228.217 157.286 228.198 157.144 228.205 157.003C228.213 156.861 228.247 156.722 228.306 156.594C228.365 156.466 228.448 156.351 228.55 156.256C229.075 155.784 229.686 155.426 230.347 155.204C231.008 154.982 231.705 154.9 232.397 154.963C233.152 155.104 233.867 155.418 234.487 155.884C235.108 156.35 235.62 156.955 235.983 157.654C236.086 157.818 236.144 158.007 236.15 158.202C236.157 158.398 236.113 158.591 236.022 158.762C235.931 158.933 235.797 159.075 235.635 159.174C235.472 159.273 235.287 159.324 235.098 159.322V159.322Z" fill="#263238"/>
<path d="M193.462 156.691C193.53 156.902 193.587 157.114 193.644 157.337V157.478C193.712 157.713 193.769 157.96 193.825 158.206V158.277C193.825 158.559 193.95 158.841 194.007 159.135L199.136 157.96C199.136 157.96 203.846 158.97 204.504 157.29C205.162 155.61 202.064 153.084 204.334 150.569C206.603 148.055 212.947 149.723 213.594 146.528C214.241 143.332 215.863 131.9 229.027 135.425C231.711 136.33 234.285 137.552 236.698 139.067C233.498 129.762 221.061 120.644 207.261 123.147C207.261 123.147 196.867 126.343 193.133 134.755C190.092 141.593 191.828 152.25 193.133 155.774C193.213 155.998 193.292 156.244 193.372 156.491L193.462 156.691Z" fill="#263238" stroke="#263238" stroke-linecap="round" stroke-linejoin="round"/>
<path d="M201.474 160.885C201.474 160.885 200.01 154.329 196.106 153.648C192.203 152.967 190.75 157.854 191.567 162.225C192.384 166.596 196.594 170.637 200.339 169.462" fill="#B2B2B2"/>
<path d="M201.474 160.885C201.474 160.885 200.01 154.329 196.106 153.648C192.203 152.967 190.75 157.854 191.567 162.225C192.384 166.596 196.594 170.637 200.339 169.462" stroke="#263238" stroke-linecap="round" stroke-linejoin="round"/>
<path d="M214.343 236.738C217.305 233.401 224.193 225.658 224.703 225.13C225.214 224.601 226.326 224.46 230.06 223.449C233.793 222.439 239.967 220.254 240.942 219.408C242.406 218.441 243.722 217.253 244.846 215.883C245.639 214.531 246.344 213.126 246.957 211.677C247.445 210.831 251.337 208.986 252.313 208.152C253.289 207.318 254.265 205.638 253.936 204.792C253.607 203.946 247.933 205.638 242.735 206.813C239.954 207.478 237.128 207.925 234.281 208.152C234.281 208.152 237.209 203.781 238.991 201.76C240.772 199.74 240.125 195.369 238.832 197.061C237.538 198.753 229.254 207.494 227.484 208.164C225.713 208.833 221.639 215.061 218.871 217.927C216.601 220.277 198.149 232.649 191.976 236.726L214.343 236.738Z" fill="#B2B2B2" stroke="#263238" stroke-linecap="round" stroke-linejoin="round"/>
<path d="M246.957 211.677L241.43 213.698" stroke="#263238" stroke-linecap="round" stroke-linejoin="round"/>
<path d="M338.445 236.738H152.303" stroke="#263238" stroke-linecap="round" stroke-linejoin="round"/>
<path d="M338.002 322.365C337.435 317.889 335.018 300.347 331.455 292.287C329.743 288.366 327.246 284.865 324.129 282.017C321.013 279.17 317.348 277.04 313.377 275.768C306.852 273.724 298.341 271.996 294.085 272.619C294.085 272.619 279.957 277.66 273.886 279.07C267.815 280.479 261.517 284.885 258.929 288.669C256.66 292.029 244.767 316.925 242.191 322.365H338.002Z" fill="white" stroke="#263238" stroke-linecap="round" stroke-linejoin="round"/>
<path d="M338.002 322.365C337.435 317.889 335.018 300.347 331.455 292.287C329.743 288.366 327.246 284.865 324.129 282.017C321.013 279.17 317.348 277.04 313.377 275.768C306.852 273.724 298.341 271.996 294.085 272.619C294.085 272.619 284.406 276.073 277.619 278.059C275.497 281.49 270.731 289.103 266.271 295.589C260.597 303.813 258.328 315.703 261.403 322.365H338.002Z" fill="#DFCEE6" stroke="#263238" stroke-linecap="round" stroke-linejoin="round"/>
<path d="M284.973 263.503C286.361 268.992 286.875 274.679 286.494 280.339C285.881 289.938 281.024 296.071 282.851 300.947C284.678 305.823 291.929 307.703 298.341 302.522C304.753 297.34 305.933 284.592 306.092 278.929C306.25 273.266 308.826 255.666 308.826 255.666C308.826 255.666 302.018 263.996 294.074 264.313C286.13 264.631 284.973 263.503 284.973 263.503Z" fill="white" stroke="#263238" stroke-linecap="round" stroke-linejoin="round"/>
<path d="M286.641 218.526C286.641 218.526 276.428 220.406 271.764 229.688C267.225 238.582 269.381 253.539 273.863 262.398C279.537 273.583 279.197 277.413 279.254 287.294C279.308 287.962 279.229 288.634 279.022 289.268C278.815 289.903 278.485 290.487 278.051 290.983C275.713 293.333 275.407 289.808 274.794 291.806C274.181 293.803 280.468 298.221 286.948 292.382C291.146 288.587 292.111 277.977 290.136 271.832C288.162 265.687 278.289 252.963 280.422 243.059C282.556 233.154 289.989 224.977 290.636 221.193C291.283 217.41 286.641 218.526 286.641 218.526Z" fill="#263238"/>
<path d="M287.072 224.284C287.072 224.284 269.415 235.246 272.172 252.211C274.93 269.177 292.599 274.135 290.931 291.618" stroke="#636363" stroke-linecap="round" stroke-linejoin="round"/>
<path d="M286.641 218.526C286.641 218.526 276.428 220.406 271.764 229.688C267.225 238.582 269.381 253.539 273.863 262.398C279.537 273.583 279.197 277.413 279.254 287.294C279.308 287.962 279.229 288.634 279.022 289.268C278.815 289.903 278.485 290.487 278.051 290.983C275.713 293.333 275.407 289.808 274.794 291.806C274.181 293.803 280.468 298.221 286.948 292.382C291.146 288.587 292.111 277.977 290.136 271.832C288.162 265.687 278.289 252.963 280.422 243.059C282.556 233.154 289.989 224.977 290.636 221.193C291.283 217.41 286.641 218.526 286.641 218.526Z" stroke="#263238" stroke-linecap="round" stroke-linejoin="round"/>
<path d="M314.92 322.366H338.002V322.142V321.966V321.708V321.461V321.355V321.12V321.05V320.744V320.427V320.345V320.063V319.934C338.008 319.828 338.008 319.722 338.002 319.616V319.534C338.002 319.417 338.002 319.299 338.002 319.182V319.099C338.002 318.982 338.002 318.876 338.002 318.77V318.618C338.002 318.512 338.002 318.406 338.002 318.289V318.171L337.934 317.748L337.866 317.325V317.231L337.798 316.773C337.798 316.597 337.741 316.421 337.719 316.244C337.639 315.704 337.548 315.14 337.458 314.564C337.458 314.388 337.458 314.212 337.367 314.035V313.977C337.367 313.8 337.31 313.624 337.276 313.448V313.366C337.276 313.201 337.219 313.037 337.185 312.861V312.731C337.185 312.579 337.185 312.426 337.106 312.273V312.085L337.038 311.674V311.462L336.97 311.063V310.863C336.97 310.722 336.913 310.581 336.89 310.44V310.24C336.89 310.099 336.833 309.958 336.811 309.817V309.606C336.811 309.465 336.811 309.336 336.731 309.195V308.983C336.731 308.842 336.731 308.701 336.652 308.56V308.337C336.652 308.208 336.595 308.067 336.572 307.926V307.703C336.572 307.562 336.516 307.432 336.482 307.291V307.068C336.482 306.927 336.482 306.786 336.391 306.645C336.396 306.575 336.396 306.504 336.391 306.434C336.391 306.293 336.334 306.14 336.311 305.999V305.788L335.109 305.012V304.836C335.109 304.671 335.04 304.495 334.995 304.319V304.201L334.859 303.59C334.768 303.167 334.666 302.744 334.564 302.322V302.228C334.564 302.051 334.484 301.875 334.45 301.699V301.511L334.348 301.088C334.325 301.015 334.306 300.94 334.291 300.865L334.189 300.465C334.189 300.395 334.189 300.312 334.133 300.242C334.076 300.171 334.076 299.995 334.042 299.866L333.974 299.619C333.974 299.502 333.917 299.384 333.883 299.267L333.815 299.02L333.724 298.679L333.656 298.421C333.656 298.315 333.599 298.209 333.565 298.092L333.497 297.845C333.462 297.741 333.431 297.635 333.406 297.528C333.406 297.434 333.35 297.352 333.327 297.269C333.304 297.187 333.327 297.058 333.236 296.964C333.145 296.87 333.236 296.799 333.157 296.705C333.132 296.606 333.101 296.508 333.066 296.412C333.045 296.328 333.018 296.245 332.986 296.165C332.961 296.062 332.931 295.96 332.896 295.859C332.896 295.789 332.896 295.707 332.816 295.624C332.737 295.542 332.759 295.425 332.725 295.331C332.691 295.237 332.669 295.178 332.646 295.096L332.544 294.814C332.522 294.738 332.496 294.663 332.464 294.591C332.439 294.495 332.409 294.401 332.374 294.309C332.342 294.24 332.316 294.169 332.294 294.097L332.192 293.815C332.192 293.745 332.192 293.674 332.113 293.615L331.999 293.333L331.931 293.145C331.931 293.04 331.852 292.946 331.806 292.852C331.782 292.799 331.763 292.744 331.75 292.687L331.557 292.264C329.921 288.557 327.585 285.226 324.687 282.468C321.789 279.709 318.387 277.579 314.682 276.203C313.672 279.857 311.13 290.079 311.743 298.527C312.288 306.563 314.081 317.513 314.92 322.366Z" fill="white" stroke="#263238" stroke-linecap="round" stroke-linejoin="round"/>
<path d="M288.014 219.149C288.014 219.149 282.238 223.708 280.422 228.748C278.607 233.789 277.075 246.513 277.381 251.553C277.688 256.594 283.906 265.394 286.46 267.591C289.013 269.788 300.077 267.274 305.297 262.245C308.906 258.72 311.981 246.678 309.553 234.881C307.124 223.085 295.459 216.318 288.014 219.149Z" fill="white" stroke="#263238" stroke-linecap="round" stroke-linejoin="round"/>
<path d="M293.03 242.118C293.03 242.118 296.366 238.5 301.984 241.484" stroke="#263238" stroke-linecap="round" stroke-linejoin="round"/>
<path d="M284.825 240.074C284.566 238.954 284.02 237.927 283.245 237.1C282.471 236.274 281.496 235.677 280.422 235.375" stroke="#263238" stroke-linecap="round" stroke-linejoin="round"/>
<path d="M287.56 238.5C287.56 238.5 287.254 241.484 286.187 242.589C285.12 243.693 282.851 244.786 283.759 246.995C284.666 249.203 287.401 249.662 288.616 248.405" stroke="#263238" stroke-linecap="round" stroke-linejoin="round"/>
<path d="M280.717 232.367C280.717 232.367 283.305 229.066 287.526 232.367" stroke="#263238" stroke-linecap="round" stroke-linejoin="round"/>
<path d="M292.27 233.941C292.27 233.941 297.274 230.793 301.223 236.608" stroke="#263238" stroke-linecap="round" stroke-linejoin="round"/>
<path d="M283.452 252.023C283.452 252.023 285.586 255.008 291.396 254.22C297.206 253.433 298.534 250.919 298.534 250.919" stroke="#263238" stroke-linecap="round" stroke-linejoin="round"/>
<path d="M297.274 242.037C297.274 242.332 297.19 242.62 297.031 242.866C296.873 243.111 296.648 243.302 296.385 243.415C296.121 243.528 295.831 243.558 295.552 243.5C295.272 243.442 295.016 243.3 294.814 243.092C294.612 242.883 294.475 242.617 294.42 242.328C294.364 242.038 294.392 241.738 294.502 241.466C294.611 241.193 294.795 240.96 295.032 240.796C295.269 240.632 295.548 240.544 295.833 240.544C296.215 240.544 296.582 240.702 296.852 240.981C297.122 241.261 297.274 241.641 297.274 242.037V242.037Z" fill="#263238"/>
<path d="M283.906 238.57C283.906 238.865 283.822 239.154 283.663 239.399C283.505 239.645 283.28 239.836 283.016 239.949C282.753 240.062 282.463 240.091 282.184 240.034C281.904 239.976 281.647 239.834 281.446 239.625C281.244 239.417 281.107 239.151 281.051 238.861C280.996 238.572 281.024 238.272 281.133 237.999C281.242 237.727 281.427 237.494 281.664 237.33C281.901 237.166 282.18 237.078 282.465 237.078C282.847 237.078 283.214 237.235 283.484 237.515C283.754 237.795 283.906 238.175 283.906 238.57V238.57Z" fill="#263238"/>
<path d="M286.8 254.068C286.8 254.068 289.228 259.261 293.484 258.768C297.739 258.274 297.433 252.141 297.433 252.141C294.226 254.083 290.453 254.766 286.8 254.068Z" fill="#263238" stroke="#263238" stroke-linecap="round" stroke-linejoin="round"/>
<path d="M300.611 205.638H300.27C294.823 206.284 287.674 207.471 283.305 211.101C277.983 215.495 279.81 216.6 284.667 219.114C289.524 221.628 303.958 229.97 305.331 241.919C306.705 253.868 301.984 272.584 299.714 281.079C297.445 289.574 300.463 295.39 304.877 299.478C305.872 300.435 307.053 301.158 308.342 301.6C309.63 302.042 310.995 302.192 312.344 302.04C314.818 301.781 317.928 301.1 319.891 299.431C320.107 299.255 322.592 296.541 322.161 296.177C319.982 294.262 317.36 297.011 316.033 294.379C313.32 288.975 317.531 282.501 320.379 278.06C322.705 274.429 326.575 272.185 328.935 268.66C331.232 264.858 332.624 260.545 332.998 256.077C334.076 246.513 332.34 236.374 329.094 227.409C324.884 215.777 316.169 205.438 303.334 205.473C302.449 205.485 301.518 205.532 300.611 205.638Z" fill="#263238"/>
<path d="M276.564 210.572C276.564 210.572 292.451 212.346 302.574 226.575C312.696 240.803 315.579 250.461 315.329 263.667C315.079 276.873 325.395 282.982 332.998 279.164" stroke="#636363" stroke-linecap="round" stroke-linejoin="round"/>
<path d="M290.545 206.507C290.545 206.507 311.164 210.572 317.78 231.909C324.396 253.245 321.718 266.24 330.569 267.99" stroke="#636363" stroke-linecap="round" stroke-linejoin="round"/>
<path d="M300.849 246.395C300.849 246.395 308.463 265.452 306.523 283.487C304.582 301.522 312.197 304.835 324.441 301.522" stroke="#636363" stroke-linecap="round" stroke-linejoin="round"/>
<path d="M300.611 205.638H300.27C294.823 206.284 287.674 207.471 283.305 211.101C277.983 215.495 279.81 216.6 284.667 219.114C289.524 221.628 303.958 229.97 305.331 241.919C306.705 253.868 301.984 272.584 299.714 281.079C297.445 289.574 300.463 295.39 304.877 299.478C305.872 300.435 307.053 301.158 308.342 301.6C309.63 302.042 310.995 302.192 312.344 302.04C314.818 301.781 317.928 301.1 319.891 299.431C320.107 299.255 322.592 296.541 322.161 296.177C319.982 294.262 317.36 297.011 316.033 294.379C313.32 288.975 317.531 282.501 320.379 278.06C322.705 274.429 326.575 272.185 328.935 268.66C331.232 264.858 332.624 260.545 332.998 256.077C334.076 246.513 332.34 236.374 329.094 227.409C324.884 215.777 316.169 205.438 303.334 205.473C302.449 205.485 301.518 205.532 300.611 205.638Z" stroke="#263238" stroke-linecap="round" stroke-linejoin="round"/>
<path d="M226.644 293.545C227.869 294.694 229.321 295.552 230.9 296.059C230.9 296.059 233.328 303.767 233.169 309.9C233.156 314.07 233.437 318.237 234.009 322.365H252.62C249.209 316.277 246.308 309.898 243.95 303.297C241.067 294.332 242.282 289.292 240.307 283.476C238.333 277.66 237.413 274.828 234.077 270.27C230.741 265.711 227.699 267.121 227.699 268.695C227.699 270.27 229.515 270.892 230.888 273.101C231.827 274.737 232.588 276.474 233.158 278.283C233.158 278.283 226.769 281.279 224.953 284.58C223.137 287.882 224.669 291.653 226.644 293.545Z" fill="white" stroke="#263238" stroke-linecap="round" stroke-linejoin="round"/>
<path d="M222.241 282.066C222.241 282.066 219.812 284.416 219.812 286.766C219.812 289.115 221.628 292.429 222.547 292.429C223.467 292.429 223.909 290.702 223.455 288.974C223.001 287.247 222.241 282.066 222.241 282.066Z" fill="white" stroke="#263238" stroke-linecap="round" stroke-linejoin="round"/>
<path d="M225.123 278.753C225.123 278.753 222.241 280.644 221.481 283.006C221.228 284.032 221.207 285.105 221.417 286.142C221.628 287.179 222.065 288.152 222.695 288.986C223.603 290.396 226.338 290.713 227.098 289.926C227.858 289.139 227.246 287.412 227.098 286.401C226.951 285.391 225.43 282.313 225.577 280.903C225.667 280.17 225.72 279.432 225.736 278.694L225.123 278.753Z" fill="white" stroke="#263238" stroke-linecap="round" stroke-linejoin="round"/>
<path d="M233.181 278.283C233.181 278.283 229.22 275.768 226.19 277.496C223.16 279.223 223.296 282.689 224.363 285.203C225.43 287.717 228.165 289.139 229.379 288.035C230.593 286.93 229.22 285.203 229.527 282.853C229.833 280.503 233.181 278.283 233.181 278.283Z" fill="white" stroke="#263238" stroke-linecap="round" stroke-linejoin="round"/>
<path d="M237.13 282.689C237.13 282.689 233.929 278.283 231.047 278.6C228.165 278.918 223.455 284.475 224.363 285.838C225.271 287.201 230.707 285.039 230.707 285.039C230.707 285.039 229.186 290.232 232.976 291.325" fill="white"/>
<path d="M237.13 282.689C237.13 282.689 233.929 278.283 231.047 278.6C228.165 278.918 223.455 284.475 224.363 285.838C225.271 287.201 230.707 285.039 230.707 285.039C230.707 285.039 229.186 290.232 232.976 291.325" stroke="#263238" stroke-linecap="round" stroke-linejoin="round"/>
<path d="M338.445 322.365H152.303" stroke="#263238" stroke-linecap="round" stroke-linejoin="round"/>
<path d="M338.445 415.29H152.303" stroke="#263238" stroke-linecap="round" stroke-linejoin="round"/>
<path d="M252.415 414.914C252.415 414.914 254.072 399.71 248.376 395.716C242.679 391.721 217.917 373.298 208.374 371.043C198.83 368.787 192.963 366.672 189.082 368.951C185.201 371.23 169.291 386.081 162.687 390.781C156.082 395.481 152.78 400.474 151.861 404.081C151.29 407.276 151.104 410.532 151.304 413.774V415.29C151.304 415.29 252.79 414.526 252.415 414.914Z" fill="#263238" stroke="#263238" stroke-linecap="round" stroke-linejoin="round"/>
<path d="M189.105 368.928C187.585 369.947 186.126 371.062 184.736 372.265C184.777 376.172 185.548 380.034 187.006 383.638C191.749 395.575 202.428 402.343 210.836 398.759C218.008 395.704 221.265 386.164 219.189 376.048C215.793 373.917 212.157 372.228 208.363 371.019C198.83 368.74 192.963 366.649 189.105 368.928Z" fill="white" stroke="#263238" stroke-linecap="round" stroke-linejoin="round"/>
<path d="M191.306 351.069C191.306 351.069 190.943 362.665 190.024 367.6C189.105 372.534 189.105 379.196 193.701 387.573C198.297 395.95 209.475 395.551 212.992 392.273C216.51 388.995 215.739 379.925 215.739 376.506C215.739 373.087 217.679 365.05 217.679 365.05C217.679 365.05 206.933 360.738 201.429 356.943C195.925 353.148 193.145 349.929 191.306 351.069Z" fill="white" stroke="#263238" stroke-linecap="round" stroke-linejoin="round"/>
<path d="M220.494 320.11C220.494 320.11 224.897 327.9 225.997 330.179C226.43 331.185 226.605 332.289 226.508 333.385C226.411 334.482 226.043 335.534 225.441 336.441C224.443 337.886 233.385 342.398 233.226 344.771C233.067 347.145 232.261 348.449 230.457 351.139C228.483 354.077 229.22 359 228.346 362.454C227.609 365.391 226.701 366.12 223.807 367.224C218.292 369.315 208.022 368.552 202.881 365.896C197.741 363.241 195.914 358.483 194.075 355.064C192.237 351.645 192.055 345.371 193.156 338.721C194.257 332.071 202.881 323.141 208.385 320.674C213.889 318.207 220.494 320.11 220.494 320.11Z" fill="white" stroke="#263238" stroke-linecap="round" stroke-linejoin="round"/>
<path d="M225.804 355.252C224.297 355.667 222.724 355.763 221.18 355.534C219.636 355.306 218.152 354.759 216.817 353.924C216.817 353.924 216.817 359.623 219.574 359.799C222.332 359.975 225.804 355.252 225.804 355.252Z" fill="#263238"/>
<path d="M220.493 339.872C220.777 341.153 220.493 342.316 219.835 342.469C219.177 342.621 218.451 341.705 218.167 340.424C217.883 339.144 218.167 337.98 218.825 337.828C219.483 337.675 220.176 338.591 220.493 339.872Z" fill="#263238"/>
<path d="M213.333 336.065C213.966 335.081 214.848 334.294 215.882 333.791C216.916 333.288 218.063 333.087 219.2 333.21" stroke="#263238" stroke-linecap="round" stroke-linejoin="round"/>
<path d="M230.945 349.354C230.945 349.354 228.108 352.526 226.349 352.761C224.59 352.996 222.627 350.493 223.501 348.907" stroke="#263238" stroke-linecap="round" stroke-linejoin="round"/>
<path d="M198.467 351.069C199.341 350.775 203.608 351.457 203.006 348.978C202.405 346.499 201.179 346.134 202.087 344.278C202.995 342.422 212.368 337.816 210.348 334.021C209.005 331.569 207.407 329.276 205.582 327.183C205.582 327.183 220.993 324.14 224.295 319.393C227.597 314.647 223.932 307.233 220.074 307.233C216.215 307.233 218.054 308.561 207.784 311.933C197.514 315.305 192.362 311.181 184.656 319.534C176.951 327.888 179.334 344.208 182.273 349.365C185.212 354.523 191.079 358.671 194.018 357.531C196.958 356.391 196.265 351.833 198.467 351.069Z" fill="#263238" stroke="#263238" stroke-linecap="round" stroke-linejoin="round"/>
<path d="M201.202 352.785C201.202 352.785 194.393 343.855 189.854 346.699C185.315 349.542 192.055 358.107 194.995 359.059C197.934 360.01 201.417 357.719 201.417 357.719" fill="white"/>
<path d="M201.202 352.785C201.202 352.785 194.393 343.855 189.854 346.699C185.315 349.542 192.055 358.107 194.995 359.059C197.934 360.01 201.417 357.719 201.417 357.719" stroke="#263238" stroke-linecap="round" stroke-linejoin="round"/>
<path d="M337.219 469.418H150.896" stroke="#263238" stroke-linecap="round" stroke-linejoin="round"/>
<path d="M239.49 464.366C239.49 464.366 239.32 453.909 240.829 452.335C242.338 450.761 279.549 429.683 289.989 429.847C300.429 430.012 314.694 444.733 322.308 448.646C334.428 454.92 334.428 458.398 335.438 461.887C336.448 465.377 337.287 469.383 337.287 469.383H239.49V464.366Z" fill="white"/>
<path d="M336.811 467.28C333.996 467.08 330.967 466.904 327.732 466.763L329.026 458.374L334.36 458.609C333.684 457.13 332.718 455.814 331.523 454.744L329.593 454.661L329.809 453.298C329.548 453.099 329.276 452.887 328.981 452.688L328.686 454.626L326.949 454.556L327.403 451.618C326.427 450.996 325.315 450.338 324.056 449.644L323.919 450.479C320.209 450.267 316.475 450.114 312.753 449.997L313.377 444.122L315.647 444.181C313.457 442.536 311.107 440.656 308.622 438.87L308.418 440.304C304.321 440.245 300.236 440.222 296.219 440.21L296.979 431.633L296.105 431.257L295.311 440.21H293.473L294.165 430.552C293.006 430.185 291.81 429.953 290.602 429.859L289.853 440.222C287.685 440.222 285.54 440.222 283.418 440.222L284.099 430.822L283.169 431.116L282.51 440.186H279.458L279.696 432.303C278.561 432.737 277.302 433.231 276.053 433.748L275.86 440.233C272.706 440.233 269.653 440.339 266.725 440.41L266.839 437.919L265.92 438.365L265.817 440.433H263.468V439.505C260.155 441.162 256.921 442.842 253.97 444.44L259.644 444.263L259.417 450.255L253.403 450.702L253.607 444.827L252.688 445.321L252.506 450.725L250.917 450.808L251.156 446.108C249.817 446.848 248.568 447.541 247.434 448.188L247.297 450.972L242.214 451.289C241.747 451.561 241.303 451.871 240.886 452.218L240.806 452.323L247.252 451.912L247.105 454.791L239.989 455.073C239.819 456.248 239.717 457.54 239.649 458.821C241.714 458.738 244.188 458.633 246.912 458.539L246.514 466.305L239.547 466.446V467.374L246.469 467.233L246.367 469.301H249.976L250.078 467.162H251.95L251.871 469.324H252.779L252.847 467.139L258.941 467.045L258.85 469.324H262.458L262.549 466.975H264.705L264.603 469.324H265.511L265.613 466.975L275.134 466.892L275.066 469.336H278.663L278.743 466.88H280.638L280.468 469.348H281.364L281.546 466.88H287.969L287.787 469.36H291.396L291.578 466.892H292.996L292.78 469.348H293.688L293.904 466.892C297.524 466.892 301.144 466.892 304.719 466.986L304.389 469.336H308.021L308.35 466.986H310.097L309.859 469.254H310.767L311.005 466.998C314.546 467.068 318.007 467.162 321.355 467.28L321.048 469.254H324.691L324.975 467.409L326.756 467.48L326.484 469.254H327.392L327.653 467.527C330.989 467.679 334.133 467.856 337.049 468.055C336.97 467.95 336.89 467.632 336.811 467.28ZM251.927 466.317H250.066L250.464 458.492L252.188 458.433L251.927 466.317ZM252.313 454.732L250.656 454.791L250.815 451.818L252.415 451.736L252.313 454.732ZM258.918 466.211L252.824 466.305L253.085 458.433L259.224 458.257L258.918 466.211ZM259.36 454.52L253.21 454.697L253.312 451.689C255.241 451.583 257.306 451.489 259.485 451.395L259.36 454.52ZM264.694 466.14H262.527L262.833 458.127H265.103L264.694 466.14ZM265.227 454.391L262.958 454.45L263.083 451.266L265.352 451.172L265.227 454.391ZM265.409 450.244L263.139 450.326L263.366 444.393H265.693L265.409 450.244ZM275.112 466.07L265.602 466.152L265.954 458.104L275.35 457.916L275.112 466.07ZM275.463 454.191C272.24 454.191 269.12 454.297 266.124 454.368L266.271 451.137C269.222 451.031 272.331 450.937 275.565 450.866L275.463 454.191ZM275.588 449.926C272.365 450.009 269.267 450.103 266.317 450.208L266.578 444.334C269.528 444.263 272.604 444.205 275.77 444.158L275.588 449.926ZM279.367 444.052H282.272L281.852 449.797H279.197L279.367 444.052ZM280.638 465.976H278.709L278.958 457.751H281.228L280.638 465.976ZM279.027 454.062L279.129 450.714H281.739L281.5 454.086L279.027 454.062ZM288.014 465.976H281.591L282.181 457.751H288.616L288.014 465.976ZM288.877 453.992H282.454L282.692 450.62C284.803 450.62 286.948 450.596 289.126 450.549L288.877 453.992ZM289.194 449.668L282.76 449.727L283.169 443.993H289.603L289.194 449.668ZM293.223 443.934H295.005L294.505 449.656H292.803L293.223 443.934ZM293.053 465.976H291.623L292.224 457.693H293.79L293.053 465.976ZM292.497 453.956L292.735 450.573H294.415L294.119 453.956H292.497ZM304.821 466.082C301.235 466.082 297.603 465.999 293.961 465.988L294.698 457.693C298.42 457.693 302.188 457.693 305.989 457.751L304.821 466.082ZM306.511 454.027C302.653 454.027 298.806 453.956 295.027 453.956L295.322 450.573C299.147 450.573 303.05 450.631 306.977 450.714L306.511 454.027ZM307.113 449.785C303.164 449.703 299.249 449.656 295.402 449.644L295.912 443.923C299.873 443.923 303.856 443.923 307.919 444.017L307.113 449.785ZM311.561 444.075H312.526L311.902 449.95H310.767L311.561 444.075ZM310.608 450.808H311.811L311.459 454.062H310.154L310.608 450.808ZM310.143 466.223H308.418L309.553 457.881H310.983L310.143 466.223ZM321.491 466.516C318.086 466.399 314.682 466.305 311.107 466.234L311.993 457.881C315.601 457.939 319.21 458.033 322.807 458.139L321.491 466.516ZM323.386 454.426C319.732 454.309 316.055 454.227 312.39 454.156L312.73 450.925C316.441 451.043 320.152 451.195 323.863 451.407L323.386 454.426ZM326.893 466.728L325.122 466.646L326.439 458.268L328.186 458.327L326.893 466.728Z" fill="#ADADAD"/>
<path d="M239.49 464.366C239.49 464.366 239.32 453.909 240.829 452.335C242.338 450.761 279.549 429.683 289.989 429.847C300.429 430.012 314.694 444.733 322.308 448.646C334.428 454.92 334.428 458.398 335.438 461.887C336.448 465.377 337.287 469.383 337.287 469.383H239.49V464.366Z" stroke="#263238" stroke-linecap="round" stroke-linejoin="round"/>
<path d="M284.428 425.665C284.428 425.665 279.378 426.017 278.039 428.637C276.7 431.257 277.359 432.82 274.635 440.657C271.911 448.493 270.425 450.773 271.946 450.773C273.466 450.773 277.62 446.237 279.174 445.544C280.729 444.851 284.235 450.937 284.235 450.937C284.235 450.937 290.965 447.283 293.155 447.107C295.345 446.931 300.055 456.342 300.894 454.779C301.734 453.216 303.924 447.459 306.285 442.231C308.645 437.003 309.144 432.644 307.124 429.154C305.104 425.665 286.119 424.619 284.428 425.665Z" fill="#263238" stroke="#263238" stroke-linecap="round" stroke-linejoin="round"/>
<path d="M281.398 423.925C280.622 429.296 280.565 434.752 281.228 440.139C282.363 447.976 284.099 452.511 285.438 451.465C286.777 450.42 295.039 445.191 299.249 439.787C303.459 434.382 304.128 433.689 305.309 430.728C306.489 427.767 307.828 424.454 307.828 424.454C307.828 424.454 292.179 430.552 281.398 423.925Z" fill="white" stroke="#263238" stroke-linecap="round" stroke-linejoin="round"/>
<path d="M281.569 395.164C281.569 395.164 278.539 390.288 276.859 396.045C275.18 401.802 279.208 404.928 279.719 404.575C280.23 404.223 281.569 395.164 281.569 395.164Z" fill="white" stroke="#263238" stroke-linecap="round" stroke-linejoin="round"/>
<path d="M283.089 382.968C283.089 382.968 277.529 407.888 276.349 415.043C275.168 422.198 282.749 428.801 291.169 430.023C299.589 431.245 307.658 427.063 309.848 422.704C312.038 418.345 318.926 390.464 319.948 388.549C320.969 386.634 324.487 378.268 321.809 375.472C319.131 372.676 314.739 374.779 314.739 374.779C314.739 374.779 311.698 366.754 306.489 366.554C301.28 366.355 300.588 368.81 300.588 368.81C300.588 368.81 296.049 363.065 291.839 364.287C287.629 365.509 287.629 368.293 287.629 368.293C287.629 368.293 279.889 366.378 277.029 372.123C274.17 377.869 282.079 379.619 282.079 379.619C282.079 379.619 280.388 382.098 283.089 382.968Z" fill="white" stroke="#263238" stroke-linecap="round" stroke-linejoin="round"/>
<path d="M313.888 403.364C314.398 403.188 317.769 397.607 320.958 399.84C324.146 402.072 320.458 410.649 317.769 412.035C317.31 412.292 316.804 412.446 316.283 412.488C315.763 412.53 315.24 412.458 314.748 412.277C314.256 412.097 313.806 411.812 313.428 411.44C313.049 411.069 312.749 410.619 312.549 410.12" fill="white"/>
<path d="M313.888 403.364C314.398 403.188 317.769 397.607 320.958 399.84C324.146 402.072 320.458 410.649 317.769 412.035C317.31 412.292 316.804 412.446 316.283 412.488C315.763 412.53 315.24 412.458 314.748 412.277C314.256 412.097 313.806 411.812 313.428 411.44C313.049 411.069 312.749 410.619 312.549 410.12" stroke="#263238" stroke-linecap="round" stroke-linejoin="round"/>
<path d="M321.809 375.507C319.108 372.723 314.739 374.814 314.739 374.814C314.739 374.814 311.698 366.789 306.489 366.589C301.28 366.39 300.588 368.845 300.588 368.845C300.588 368.845 296.049 363.1 291.839 364.322C287.628 365.544 287.628 368.328 287.628 368.328C287.628 368.328 279.889 366.413 277.029 372.159C274.17 377.904 282.079 379.655 282.079 379.655C282.079 379.655 280.388 382.098 283.089 382.968C284.099 381.922 286.119 377.222 296.389 377.093C306.659 376.964 314.898 384.589 314.898 384.589C314.898 384.589 311.198 389.113 312.379 391.028C313.559 392.943 314.898 392.778 314.739 394.341C314.58 395.904 311.335 410.202 310.018 412.47C309.293 413.57 308.258 414.413 307.054 414.882C305.849 415.35 304.535 415.423 303.289 415.09C300.928 414.385 299.578 412.646 295.345 410.39C291.112 408.135 287.594 407.253 284.564 408.475C281.535 409.697 281.364 410.743 279.685 411.26C278.232 411.718 277.778 410.731 277.358 409.568C276.905 411.836 276.541 413.774 276.314 415.102C275.18 422.245 282.715 428.86 291.135 430.082C299.555 431.304 307.624 427.121 309.814 422.762C312.004 418.403 318.892 390.523 319.914 388.607C320.935 386.692 324.498 378.268 321.809 375.507Z" fill="#DFCEE6" stroke="#263238" stroke-linecap="round" stroke-linejoin="round"/>
<path d="M285.279 411.73C285.279 411.73 291.498 415.736 295.708 413.293C295.708 413.293 291.498 418.521 289.319 418.521C287.14 418.521 285.279 411.73 285.279 411.73Z" fill="#263238" stroke="#263238" stroke-linecap="round" stroke-linejoin="round"/>
<path d="M289.989 396.996C289.989 398.158 289.656 399.294 289.033 400.26C288.409 401.226 287.523 401.979 286.486 402.424C285.449 402.868 284.308 402.985 283.208 402.758C282.107 402.531 281.096 401.972 280.303 401.15C279.509 400.329 278.969 399.282 278.75 398.142C278.531 397.003 278.643 395.821 279.073 394.748C279.502 393.675 280.229 392.757 281.162 392.112C282.096 391.466 283.193 391.122 284.315 391.122C285.82 391.122 287.263 391.74 288.327 392.842C289.391 393.944 289.989 395.438 289.989 396.996Z" stroke="#263238" stroke-linecap="round" stroke-linejoin="round"/>
<path d="M306.319 399.958C306.319 401.119 305.986 402.255 305.362 403.221C304.739 404.187 303.853 404.94 302.816 405.385C301.779 405.83 300.638 405.946 299.538 405.719C298.437 405.493 297.426 404.933 296.632 404.112C295.839 403.29 295.299 402.243 295.08 401.104C294.861 399.964 294.973 398.783 295.402 397.709C295.832 396.636 296.559 395.719 297.492 395.073C298.425 394.428 299.522 394.083 300.645 394.083C302.149 394.083 303.593 394.702 304.657 395.804C305.721 396.905 306.319 398.4 306.319 399.958Z" stroke="#263238" stroke-linecap="round" stroke-linejoin="round"/>
<path d="M290.159 396.386C290.159 396.386 292.508 395.211 295.379 397.56" stroke="#263238" stroke-linecap="round" stroke-linejoin="round"/>
<path d="M306.319 399.957L317.258 400.392" stroke="#263238" stroke-linecap="round" stroke-linejoin="round"/>
<path d="M290.999 397.091C289.612 399.804 288.377 402.597 287.299 405.456C286.959 407.019 288.809 407.888 291.169 407.888C293.529 407.888 294.573 406.843 294.573 405.797" stroke="#263238" stroke-linecap="round" stroke-linejoin="round"/>
<path d="M290.488 390.464C290.258 390.462 290.032 390.401 289.83 390.288C288.948 389.69 287.925 389.352 286.871 389.31C285.818 389.269 284.773 389.526 283.85 390.053C283.701 390.156 283.533 390.228 283.357 390.265C283.182 390.301 283 390.302 282.824 390.266C282.469 390.193 282.156 389.977 281.954 389.665C281.753 389.354 281.679 388.972 281.749 388.604C281.819 388.236 282.028 387.912 282.329 387.703C283.669 386.883 285.201 386.459 286.758 386.478C288.314 386.497 289.836 386.957 291.158 387.809C291.42 387.96 291.626 388.197 291.744 388.483C291.862 388.77 291.884 389.088 291.807 389.389C291.73 389.689 291.559 389.955 291.32 390.143C291.081 390.332 290.788 390.432 290.488 390.429V390.464Z" fill="#DFCEE6"/>
<path d="M306.988 396.221C306.767 396.226 306.548 396.175 306.351 396.073C306.153 395.971 305.982 395.82 305.853 395.634C305.059 394.362 303.904 393.378 302.546 392.816C301.188 392.254 299.695 392.142 298.273 392.497C297.936 392.592 297.576 392.549 297.269 392.375C296.962 392.201 296.732 391.911 296.628 391.566C296.523 391.22 296.553 390.846 296.709 390.522C296.866 390.199 297.137 389.95 297.467 389.83C299.433 389.294 301.511 389.409 303.41 390.16C305.309 390.91 306.934 392.257 308.055 394.013C308.201 394.224 308.286 394.474 308.303 394.733C308.319 394.992 308.265 395.251 308.147 395.48C308.029 395.71 307.852 395.901 307.636 396.031C307.419 396.162 307.171 396.228 306.92 396.221H306.988Z" fill="#DFCEE6"/>
<path d="M285.018 399.346C285.62 399.346 286.108 398.409 286.108 397.254C286.108 396.099 285.62 395.163 285.018 395.163C284.417 395.163 283.929 396.099 283.929 397.254C283.929 398.409 284.417 399.346 285.018 399.346Z" fill="#263238" stroke="#263238" stroke-linecap="round" stroke-linejoin="round"/>
<path d="M300.928 399.875C300.928 401.049 300.44 401.966 299.794 401.966C299.147 401.966 298.659 401.026 298.659 399.875C298.659 398.723 299.147 397.783 299.794 397.783C300.44 397.783 300.928 398.723 300.928 399.875Z" fill="#263238" stroke="#263238" stroke-linecap="round" stroke-linejoin="round"/>
<path d="M289.064 334.584C289.064 334.831 289.006 335.065 288.889 335.284C288.773 335.503 288.586 335.683 288.329 335.823C288.073 335.958 287.744 336.026 287.342 336.026H286.46V338H285.662V333.135H287.342C287.716 333.135 288.031 333.2 288.287 333.331C288.549 333.457 288.742 333.63 288.868 333.849C288.999 334.068 289.064 334.313 289.064 334.584ZM287.342 335.375C287.646 335.375 287.872 335.307 288.021 335.172C288.171 335.032 288.245 334.836 288.245 334.584C288.245 334.052 287.944 333.786 287.342 333.786H286.46V335.375H287.342ZM293.318 334.143V338H292.52V337.545C292.394 337.704 292.229 337.83 292.023 337.923C291.823 338.012 291.608 338.056 291.379 338.056C291.076 338.056 290.803 337.993 290.56 337.867C290.322 337.741 290.133 337.554 289.993 337.307C289.858 337.06 289.79 336.761 289.79 336.411V334.143H290.581V336.292C290.581 336.637 290.668 336.903 290.84 337.09C291.013 337.272 291.249 337.363 291.547 337.363C291.846 337.363 292.082 337.272 292.254 337.09C292.432 336.903 292.52 336.637 292.52 336.292V334.143H293.318ZM296.317 334.08C296.621 334.08 296.891 334.143 297.129 334.269C297.372 334.395 297.561 334.582 297.696 334.829C297.832 335.076 297.899 335.375 297.899 335.725V338H297.108V335.844C297.108 335.499 297.022 335.235 296.849 335.053C296.677 334.866 296.441 334.773 296.142 334.773C295.844 334.773 295.606 334.866 295.428 335.053C295.256 335.235 295.169 335.499 295.169 335.844V338H294.371V334.143H295.169V334.584C295.3 334.425 295.466 334.302 295.666 334.213C295.872 334.124 296.089 334.08 296.317 334.08ZM299.848 334.794V336.929C299.848 337.074 299.881 337.179 299.946 337.244C300.016 337.305 300.133 337.335 300.296 337.335H300.786V338H300.156C299.797 338 299.521 337.916 299.33 337.748C299.139 337.58 299.043 337.307 299.043 336.929V334.794H298.588V334.143H299.043V333.184H299.848V334.143H300.786V334.794H299.848ZM305.057 335.977C305.057 336.122 305.047 336.252 305.029 336.369H302.082C302.105 336.677 302.219 336.924 302.425 337.111C302.63 337.298 302.882 337.391 303.181 337.391C303.61 337.391 303.913 337.211 304.091 336.852H304.952C304.835 337.207 304.623 337.498 304.315 337.727C304.011 337.951 303.633 338.063 303.181 338.063C302.812 338.063 302.481 337.981 302.187 337.818C301.897 337.65 301.669 337.417 301.501 337.118C301.337 336.815 301.256 336.465 301.256 336.068C301.256 335.671 301.335 335.324 301.494 335.025C301.657 334.722 301.883 334.488 302.173 334.325C302.467 334.162 302.803 334.08 303.181 334.08C303.545 334.08 303.869 334.159 304.154 334.318C304.438 334.477 304.66 334.701 304.819 334.99C304.977 335.275 305.057 335.604 305.057 335.977ZM304.224 335.725C304.219 335.431 304.114 335.195 303.909 335.018C303.703 334.841 303.449 334.752 303.146 334.752C302.87 334.752 302.635 334.841 302.439 335.018C302.243 335.191 302.126 335.426 302.089 335.725H304.224ZM307.788 334.08C308.091 334.08 308.362 334.143 308.6 334.269C308.843 334.395 309.032 334.582 309.167 334.829C309.302 335.076 309.37 335.375 309.37 335.725V338H308.579V335.844C308.579 335.499 308.493 335.235 308.32 335.053C308.147 334.866 307.912 334.773 307.613 334.773C307.314 334.773 307.076 334.866 306.899 335.053C306.726 335.235 306.64 335.499 306.64 335.844V338H305.842V334.143H306.64V334.584C306.771 334.425 306.936 334.302 307.137 334.213C307.342 334.124 307.559 334.08 307.788 334.08Z" fill="black"/>
<path d="M183.851 429.135V434H183.053V430.668L181.569 434H181.016L179.525 430.668V434H178.727V429.135H179.588L181.296 432.95L182.997 429.135H183.851ZM184.634 432.054C184.634 431.667 184.713 431.324 184.872 431.025C185.035 430.726 185.254 430.495 185.53 430.332C185.81 430.164 186.118 430.08 186.454 430.08C186.757 430.08 187.021 430.141 187.245 430.262C187.473 430.379 187.655 430.526 187.791 430.703V430.143H188.596V434H187.791V433.426C187.655 433.608 187.471 433.76 187.238 433.881C187.004 434.002 186.738 434.063 186.44 434.063C186.108 434.063 185.805 433.979 185.53 433.811C185.254 433.638 185.035 433.4 184.872 433.097C184.713 432.789 184.634 432.441 184.634 432.054ZM187.791 432.068C187.791 431.802 187.735 431.571 187.623 431.375C187.515 431.179 187.373 431.03 187.196 430.927C187.018 430.824 186.827 430.773 186.622 430.773C186.416 430.773 186.225 430.824 186.048 430.927C185.87 431.025 185.726 431.172 185.614 431.368C185.506 431.559 185.453 431.788 185.453 432.054C185.453 432.32 185.506 432.553 185.614 432.754C185.726 432.955 185.87 433.109 186.048 433.216C186.23 433.319 186.421 433.37 186.622 433.37C186.827 433.37 187.018 433.319 187.196 433.216C187.373 433.113 187.515 432.964 187.623 432.768C187.735 432.567 187.791 432.334 187.791 432.068ZM191.17 432.075L192.948 434H191.87L190.442 432.341V434H189.644V428.82H190.442V431.83L191.842 430.143H192.948L191.17 432.075ZM193.254 432.054C193.254 431.667 193.333 431.324 193.492 431.025C193.655 430.726 193.874 430.495 194.15 430.332C194.43 430.164 194.738 430.08 195.074 430.08C195.377 430.08 195.641 430.141 195.865 430.262C196.093 430.379 196.275 430.526 196.411 430.703V430.143H197.216V434H196.411V433.426C196.275 433.608 196.091 433.76 195.858 433.881C195.624 434.002 195.358 434.063 195.06 434.063C194.728 434.063 194.425 433.979 194.15 433.811C193.874 433.638 193.655 433.4 193.492 433.097C193.333 432.789 193.254 432.441 193.254 432.054ZM196.411 432.068C196.411 431.802 196.355 431.571 196.243 431.375C196.135 431.179 195.993 431.03 195.816 430.927C195.638 430.824 195.447 430.773 195.242 430.773C195.036 430.773 194.845 430.824 194.668 430.927C194.49 431.025 194.346 431.172 194.234 431.368C194.126 431.559 194.073 431.788 194.073 432.054C194.073 432.32 194.126 432.553 194.234 432.754C194.346 432.955 194.49 433.109 194.668 433.216C194.85 433.319 195.041 433.37 195.242 433.37C195.447 433.37 195.638 433.319 195.816 433.216C195.993 433.113 196.135 432.964 196.243 432.768C196.355 432.567 196.411 432.334 196.411 432.068ZM199.664 434.063C199.36 434.063 199.087 434.009 198.845 433.902C198.607 433.79 198.418 433.641 198.278 433.454C198.138 433.263 198.063 433.05 198.054 432.817H198.88C198.894 432.98 198.971 433.118 199.111 433.23C199.255 433.337 199.435 433.391 199.65 433.391C199.874 433.391 200.046 433.349 200.168 433.265C200.294 433.176 200.357 433.064 200.357 432.929C200.357 432.784 200.287 432.677 200.147 432.607C200.011 432.537 199.794 432.46 199.496 432.376C199.206 432.297 198.971 432.22 198.789 432.145C198.607 432.07 198.448 431.956 198.313 431.802C198.182 431.648 198.117 431.445 198.117 431.193C198.117 430.988 198.177 430.801 198.299 430.633C198.42 430.46 198.593 430.325 198.817 430.227C199.045 430.129 199.307 430.08 199.601 430.08C200.039 430.08 200.392 430.192 200.658 430.416C200.928 430.635 201.073 430.936 201.092 431.319H200.294C200.28 431.146 200.21 431.009 200.084 430.906C199.958 430.803 199.787 430.752 199.573 430.752C199.363 430.752 199.202 430.792 199.09 430.871C198.978 430.95 198.922 431.055 198.922 431.186C198.922 431.289 198.959 431.375 199.034 431.445C199.108 431.515 199.199 431.571 199.307 431.613C199.414 431.65 199.573 431.699 199.783 431.76C200.063 431.835 200.291 431.912 200.469 431.991C200.651 432.066 200.807 432.178 200.938 432.327C201.068 432.476 201.136 432.675 201.141 432.922C201.141 433.141 201.08 433.337 200.959 433.51C200.837 433.683 200.665 433.818 200.441 433.916C200.221 434.014 199.962 434.063 199.664 434.063ZM205.538 431.977C205.538 432.122 205.529 432.252 205.51 432.369H202.563C202.586 432.677 202.701 432.924 202.906 433.111C203.111 433.298 203.363 433.391 203.662 433.391C204.091 433.391 204.395 433.211 204.572 432.852H205.433C205.316 433.207 205.104 433.498 204.796 433.727C204.493 433.951 204.115 434.063 203.662 434.063C203.293 434.063 202.962 433.981 202.668 433.818C202.379 433.65 202.15 433.417 201.982 433.118C201.819 432.815 201.737 432.465 201.737 432.068C201.737 431.671 201.816 431.324 201.975 431.025C202.138 430.722 202.365 430.488 202.654 430.325C202.948 430.162 203.284 430.08 203.662 430.08C204.026 430.08 204.35 430.159 204.635 430.318C204.92 430.477 205.141 430.701 205.3 430.99C205.459 431.275 205.538 431.604 205.538 431.977ZM204.705 431.725C204.7 431.431 204.595 431.195 204.39 431.018C204.185 430.841 203.93 430.752 203.627 430.752C203.352 430.752 203.116 430.841 202.92 431.018C202.724 431.191 202.607 431.426 202.57 431.725H204.705Z" fill="black"/>
<path d="M286.941 163.006H284.904L284.554 164H283.721L285.464 159.128H286.388L288.131 164H287.291L286.941 163.006ZM286.717 162.355L285.926 160.094L285.128 162.355H286.717ZM293.558 160.08C293.861 160.08 294.132 160.143 294.37 160.269C294.612 160.395 294.801 160.582 294.937 160.829C295.077 161.076 295.147 161.375 295.147 161.725V164H294.356V161.844C294.356 161.499 294.269 161.235 294.097 161.053C293.924 160.866 293.688 160.773 293.39 160.773C293.091 160.773 292.853 160.866 292.676 161.053C292.503 161.235 292.417 161.499 292.417 161.844V164H291.626V161.844C291.626 161.499 291.539 161.235 291.367 161.053C291.194 160.866 290.958 160.773 290.66 160.773C290.361 160.773 290.123 160.866 289.946 161.053C289.773 161.235 289.687 161.499 289.687 161.844V164H288.889V160.143H289.687V160.584C289.817 160.425 289.983 160.302 290.184 160.213C290.384 160.124 290.599 160.08 290.828 160.08C291.136 160.08 291.411 160.145 291.654 160.276C291.896 160.407 292.083 160.596 292.214 160.843C292.33 160.61 292.512 160.425 292.76 160.29C293.007 160.15 293.273 160.08 293.558 160.08ZM295.896 162.054C295.896 161.667 295.976 161.324 296.134 161.025C296.298 160.726 296.517 160.495 296.792 160.332C297.072 160.164 297.38 160.08 297.716 160.08C298.02 160.08 298.283 160.141 298.507 160.262C298.736 160.379 298.918 160.526 299.053 160.703V160.143H299.858V164H299.053V163.426C298.918 163.608 298.734 163.76 298.5 163.881C298.267 164.002 298.001 164.063 297.702 164.063C297.371 164.063 297.068 163.979 296.792 163.811C296.517 163.638 296.298 163.4 296.134 163.097C295.976 162.789 295.896 162.441 295.896 162.054ZM299.053 162.068C299.053 161.802 298.997 161.571 298.885 161.375C298.778 161.179 298.636 161.03 298.458 160.927C298.281 160.824 298.09 160.773 297.884 160.773C297.679 160.773 297.488 160.824 297.31 160.927C297.133 161.025 296.988 161.172 296.876 161.368C296.769 161.559 296.715 161.788 296.715 162.054C296.715 162.32 296.769 162.553 296.876 162.754C296.988 162.955 297.133 163.109 297.31 163.216C297.492 163.319 297.684 163.37 297.884 163.37C298.09 163.37 298.281 163.319 298.458 163.216C298.636 163.113 298.778 162.964 298.885 162.768C298.997 162.567 299.053 162.334 299.053 162.068ZM302.852 160.08C303.156 160.08 303.426 160.143 303.664 160.269C303.907 160.395 304.096 160.582 304.231 160.829C304.367 161.076 304.434 161.375 304.434 161.725V164H303.643V161.844C303.643 161.499 303.557 161.235 303.384 161.053C303.212 160.866 302.976 160.773 302.677 160.773C302.379 160.773 302.141 160.866 301.963 161.053C301.791 161.235 301.704 161.499 301.704 161.844V164H300.906V160.143H301.704V160.584C301.835 160.425 302.001 160.302 302.201 160.213C302.407 160.124 302.624 160.08 302.852 160.08ZM305.186 162.054C305.186 161.667 305.266 161.324 305.424 161.025C305.588 160.726 305.807 160.495 306.082 160.332C306.362 160.164 306.67 160.08 307.006 160.08C307.31 160.08 307.573 160.141 307.797 160.262C308.026 160.379 308.208 160.526 308.343 160.703V160.143H309.148V164H308.343V163.426C308.208 163.608 308.024 163.76 307.79 163.881C307.557 164.002 307.291 164.063 306.992 164.063C306.661 164.063 306.358 163.979 306.082 163.811C305.807 163.638 305.588 163.4 305.424 163.097C305.266 162.789 305.186 162.441 305.186 162.054ZM308.343 162.068C308.343 161.802 308.287 161.571 308.175 161.375C308.068 161.179 307.926 161.03 307.748 160.927C307.571 160.824 307.38 160.773 307.174 160.773C306.969 160.773 306.778 160.824 306.6 160.927C306.423 161.025 306.278 161.172 306.166 161.368C306.059 161.559 306.005 161.788 306.005 162.054C306.005 162.32 306.059 162.553 306.166 162.754C306.278 162.955 306.423 163.109 306.6 163.216C306.782 163.319 306.974 163.37 307.174 163.37C307.38 163.37 307.571 163.319 307.748 163.216C307.926 163.113 308.068 162.964 308.175 162.768C308.287 162.567 308.343 162.334 308.343 162.068ZM310.602 159.632C310.458 159.632 310.336 159.583 310.238 159.485C310.14 159.387 310.091 159.266 310.091 159.121C310.091 158.976 310.14 158.855 310.238 158.757C310.336 158.659 310.458 158.61 310.602 158.61C310.742 158.61 310.861 158.659 310.959 158.757C311.057 158.855 311.106 158.976 311.106 159.121C311.106 159.266 311.057 159.387 310.959 159.485C310.861 159.583 310.742 159.632 310.602 159.632ZM310.994 160.143V164H310.196V160.143H310.994Z" fill="black"/>
<path d="M188.693 244.072C188.693 244.284 188.643 244.484 188.543 244.672C188.443 244.86 188.283 245.014 188.063 245.134C187.843 245.25 187.561 245.308 187.217 245.308H186.461V247H185.777V242.83H187.217C187.537 242.83 187.807 242.886 188.027 242.998C188.251 243.106 188.417 243.254 188.525 243.442C188.637 243.63 188.693 243.84 188.693 244.072ZM187.217 244.75C187.477 244.75 187.671 244.692 187.799 244.576C187.927 244.456 187.991 244.288 187.991 244.072C187.991 243.616 187.733 243.388 187.217 243.388H186.461V244.75H187.217ZM189.694 243.256C189.57 243.256 189.466 243.214 189.382 243.13C189.298 243.046 189.256 242.942 189.256 242.818C189.256 242.694 189.298 242.59 189.382 242.506C189.466 242.422 189.57 242.38 189.694 242.38C189.814 242.38 189.916 242.422 190 242.506C190.084 242.59 190.126 242.694 190.126 242.818C190.126 242.942 190.084 243.046 190 243.13C189.916 243.214 189.814 243.256 189.694 243.256ZM190.03 243.694V247H189.346V243.694H190.03ZM193.904 243.694L191.876 248.554H191.168L191.84 246.946L190.538 243.694H191.3L192.23 246.214L193.196 243.694H193.904ZM197.45 245.266C197.45 245.39 197.442 245.502 197.426 245.602H194.9C194.92 245.866 195.018 246.078 195.194 246.238C195.37 246.398 195.586 246.478 195.842 246.478C196.21 246.478 196.47 246.324 196.622 246.016H197.36C197.26 246.32 197.078 246.57 196.814 246.766C196.554 246.958 196.23 247.054 195.842 247.054C195.526 247.054 195.242 246.984 194.99 246.844C194.742 246.7 194.546 246.5 194.402 246.244C194.262 245.984 194.192 245.684 194.192 245.344C194.192 245.004 194.26 244.706 194.396 244.45C194.536 244.19 194.73 243.99 194.978 243.85C195.23 243.71 195.518 243.64 195.842 243.64C196.154 243.64 196.432 243.708 196.676 243.844C196.92 243.98 197.11 244.172 197.246 244.42C197.382 244.664 197.45 244.946 197.45 245.266ZM196.736 245.05C196.732 244.798 196.642 244.596 196.466 244.444C196.29 244.292 196.072 244.216 195.812 244.216C195.576 244.216 195.374 244.292 195.206 244.444C195.038 244.592 194.938 244.794 194.906 245.05H196.736ZM180.88 254.35L182.404 256H181.48L180.256 254.578V256H179.572V251.56H180.256V254.14L181.456 252.694H182.404L180.88 254.35ZM182.666 254.332C182.666 254 182.734 253.706 182.87 253.45C183.01 253.194 183.198 252.996 183.434 252.856C183.674 252.712 183.938 252.64 184.226 252.64C184.486 252.64 184.712 252.692 184.904 252.796C185.1 252.896 185.256 253.022 185.372 253.174V252.694H186.062V256H185.372V255.508C185.256 255.664 185.098 255.794 184.898 255.898C184.698 256.002 184.47 256.054 184.214 256.054C183.93 256.054 183.67 255.982 183.434 255.838C183.198 255.69 183.01 255.486 182.87 255.226C182.734 254.962 182.666 254.664 182.666 254.332ZM185.372 254.344C185.372 254.116 185.324 253.918 185.228 253.75C185.136 253.582 185.014 253.454 184.862 253.366C184.71 253.278 184.546 253.234 184.37 253.234C184.194 253.234 184.03 253.278 183.878 253.366C183.726 253.45 183.602 253.576 183.506 253.744C183.414 253.908 183.368 254.104 183.368 254.332C183.368 254.56 183.414 254.76 183.506 254.932C183.602 255.104 183.726 255.236 183.878 255.328C184.034 255.416 184.198 255.46 184.37 255.46C184.546 255.46 184.71 255.416 184.862 255.328C185.014 255.24 185.136 255.112 185.228 254.944C185.324 254.772 185.372 254.572 185.372 254.344ZM187.645 253.186C187.761 253.026 187.919 252.896 188.119 252.796C188.323 252.692 188.549 252.64 188.797 252.64C189.089 252.64 189.353 252.71 189.589 252.85C189.825 252.99 190.011 253.19 190.147 253.45C190.283 253.706 190.351 254 190.351 254.332C190.351 254.664 190.283 254.962 190.147 255.226C190.011 255.486 189.823 255.69 189.583 255.838C189.347 255.982 189.085 256.054 188.797 256.054C188.541 256.054 188.313 256.004 188.113 255.904C187.917 255.804 187.761 255.676 187.645 255.52V256H186.961V251.56H187.645V253.186ZM189.655 254.332C189.655 254.104 189.607 253.908 189.511 253.744C189.419 253.576 189.295 253.45 189.139 253.366C188.987 253.278 188.823 253.234 188.647 253.234C188.475 253.234 188.311 253.278 188.155 253.366C188.003 253.454 187.879 253.582 187.783 253.75C187.691 253.918 187.645 254.116 187.645 254.344C187.645 254.572 187.691 254.772 187.783 254.944C187.879 255.112 188.003 255.24 188.155 255.328C188.311 255.416 188.475 255.46 188.647 255.46C188.823 255.46 188.987 255.416 189.139 255.328C189.295 255.236 189.419 255.104 189.511 254.932C189.607 254.76 189.655 254.56 189.655 254.332ZM190.799 254.332C190.799 254 190.867 253.706 191.003 253.45C191.143 253.194 191.331 252.996 191.567 252.856C191.807 252.712 192.071 252.64 192.359 252.64C192.619 252.64 192.845 252.692 193.037 252.796C193.233 252.896 193.389 253.022 193.505 253.174V252.694H194.195V256H193.505V255.508C193.389 255.664 193.231 255.794 193.031 255.898C192.831 256.002 192.603 256.054 192.347 256.054C192.063 256.054 191.803 255.982 191.567 255.838C191.331 255.69 191.143 255.486 191.003 255.226C190.867 254.962 190.799 254.664 190.799 254.332ZM193.505 254.344C193.505 254.116 193.457 253.918 193.361 253.75C193.269 253.582 193.147 253.454 192.995 253.366C192.843 253.278 192.679 253.234 192.503 253.234C192.327 253.234 192.163 253.278 192.011 253.366C191.859 253.45 191.735 253.576 191.639 253.744C191.547 253.908 191.501 254.104 191.501 254.332C191.501 254.56 191.547 254.76 191.639 254.932C191.735 255.104 191.859 255.236 192.011 255.328C192.167 255.416 192.331 255.46 192.503 255.46C192.679 255.46 192.843 255.416 192.995 255.328C193.147 255.24 193.269 255.112 193.361 254.944C193.457 254.772 193.505 254.572 193.505 254.344ZM195.778 253.174C195.878 253.006 196.01 252.876 196.174 252.784C196.342 252.688 196.54 252.64 196.768 252.64V253.348H196.594C196.326 253.348 196.122 253.416 195.982 253.552C195.846 253.688 195.778 253.924 195.778 254.26V256H195.094V252.694H195.778V253.174ZM200.426 254.266C200.426 254.39 200.418 254.502 200.402 254.602H197.876C197.896 254.866 197.994 255.078 198.17 255.238C198.346 255.398 198.562 255.478 198.818 255.478C199.186 255.478 199.446 255.324 199.598 255.016H200.336C200.236 255.32 200.054 255.57 199.79 255.766C199.53 255.958 199.206 256.054 198.818 256.054C198.502 256.054 198.218 255.984 197.966 255.844C197.718 255.7 197.522 255.5 197.378 255.244C197.238 254.984 197.168 254.684 197.168 254.344C197.168 254.004 197.236 253.706 197.372 253.45C197.512 253.19 197.706 252.99 197.954 252.85C198.206 252.71 198.494 252.64 198.818 252.64C199.13 252.64 199.408 252.708 199.652 252.844C199.896 252.98 200.086 253.172 200.222 253.42C200.358 253.664 200.426 253.946 200.426 254.266ZM199.712 254.05C199.708 253.798 199.618 253.596 199.442 253.444C199.266 253.292 199.048 253.216 198.788 253.216C198.552 253.216 198.35 253.292 198.182 253.444C198.014 253.592 197.914 253.794 197.882 254.05H199.712ZM202.221 251.77C202.629 251.77 202.955 251.882 203.199 252.106C203.447 252.33 203.571 252.636 203.571 253.024C203.571 253.428 203.443 253.732 203.187 253.936C202.931 254.14 202.591 254.242 202.167 254.242L202.143 254.716H201.549L201.519 253.774H201.717C202.105 253.774 202.401 253.722 202.605 253.618C202.813 253.514 202.917 253.316 202.917 253.024C202.917 252.812 202.855 252.646 202.731 252.526C202.611 252.406 202.443 252.346 202.227 252.346C202.011 252.346 201.841 252.404 201.717 252.52C201.593 252.636 201.531 252.798 201.531 253.006H200.889C200.889 252.766 200.943 252.552 201.051 252.364C201.159 252.176 201.313 252.03 201.513 251.926C201.717 251.822 201.953 251.77 202.221 251.77ZM201.837 256.042C201.713 256.042 201.609 256 201.525 255.916C201.441 255.832 201.399 255.728 201.399 255.604C201.399 255.48 201.441 255.376 201.525 255.292C201.609 255.208 201.713 255.166 201.837 255.166C201.957 255.166 202.059 255.208 202.143 255.292C202.227 255.376 202.269 255.48 202.269 255.604C202.269 255.728 202.227 255.832 202.143 255.916C202.059 256 201.957 256.042 201.837 256.042Z" fill="black"/>
</svg>
