<svg width="194" height="195" viewBox="0 0 194 195" fill="none" xmlns="http://www.w3.org/2000/svg">
<circle cx="87.9999" cy="121" r="74" fill="#3DB2FF"/>
<path d="M22.8359 36.8175L23.7853 35.2539C31.8011 22.0746 46.2605 14.1275 61.4974 15.0898C63.4606 15.2098 65.412 15.4768 67.3352 15.8888C81.1975 18.8571 93.2599 29.3387 98.2644 42.7671C101.207 50.6626 102.027 59.7523 107.608 66.0198C114.872 74.1816 127.2 74.4351 138.038 74.0957C148.877 73.7564 161.235 74.0442 168.444 82.2361C172.971 87.3652 174.406 94.655 174.028 101.524C173.061 119.708 160.393 135.967 144.28 144.051C128.167 152.136 109.21 152.858 91.5674 149.305C66.867 144.326 43.3694 130.645 29.2494 109.522C15.1294 88.4005 11.5511 59.6192 22.8359 36.8175Z" fill="#F5F5F5"/>
<path d="M168.933 29.2397C168.915 29.2766 168.902 29.3156 168.895 29.3557L168.8 29.6994C168.753 29.8888 168.694 30.0753 168.624 30.2578C168.547 30.4726 168.465 30.7261 168.341 30.9967L168.152 31.4263L167.907 31.8902C167.823 32.0607 167.728 32.2257 167.623 32.3842C167.516 32.5474 167.421 32.7279 167.292 32.8997C166.086 34.6645 164.396 36.044 162.425 36.8732C161.827 37.1235 161.208 37.3176 160.574 37.4532C159.9 37.5869 159.218 37.6816 158.533 37.7367C157.129 37.8741 155.608 37.9515 154.152 38.5357C152.681 39.1878 151.377 40.1644 150.337 41.3923C149.237 42.5591 148.347 43.9079 147.708 45.3787C147.419 46.0888 147.242 46.8395 147.184 47.6039C147.134 48.3342 147.18 49.0679 147.322 49.7862C147.609 51.1026 147.997 52.3951 148.481 53.6523C148.895 54.7429 149.203 55.8707 149.401 57.0201C149.561 57.9682 149.525 58.9392 149.293 59.8725C149.118 60.5766 148.801 61.2374 148.361 61.8142C148.083 62.1801 147.743 62.4942 147.356 62.742C147.094 62.9096 146.926 62.974 146.926 62.9826C147.076 62.9236 147.219 62.8517 147.356 62.7678C147.752 62.5258 148.101 62.2144 148.387 61.8485C148.842 61.2717 149.171 60.6059 149.353 59.894C149.596 58.9498 149.642 57.9655 149.487 57.003C149.291 55.847 148.986 54.7122 148.576 53.6136C148.099 52.3553 147.717 51.0629 147.433 49.7475C147.3 49.0399 147.257 48.3182 147.304 47.5996C147.362 46.8508 147.537 46.1158 147.824 45.4217C148.459 43.9661 149.339 42.6307 150.427 41.4739C151.453 40.2629 152.74 39.2995 154.19 38.656C155.612 38.076 157.12 37.9987 158.529 37.857C159.218 37.7963 159.904 37.6988 160.582 37.5648C161.229 37.435 161.862 37.2452 162.473 36.9978C164.46 36.1552 166.157 34.7502 167.357 32.9555C167.486 32.7837 167.584 32.6033 167.688 32.4358C167.79 32.2733 167.883 32.1055 167.967 31.9332L168.207 31.4692L168.392 31.0396C168.498 30.796 168.59 30.5465 168.667 30.2922C168.732 30.1081 168.785 29.9201 168.826 29.7295C168.86 29.5791 168.89 29.4631 168.908 29.3815C168.92 29.335 168.928 29.2876 168.933 29.2397Z" fill="#455A64"/>
<path d="M160.2 24.6865L160.106 24.7724L159.839 25.0302C159.723 25.1462 159.595 25.3008 159.41 25.4598C159.225 25.6187 159.083 25.855 158.912 26.1127C158.478 26.7312 158.121 27.4006 157.851 28.1059C157.483 29.0382 157.264 30.0225 157.202 31.0227C157.173 31.6034 157.194 32.1855 157.266 32.7625C157.354 33.3875 157.489 34.005 157.67 34.6096C158.027 35.864 158.529 37.1527 158.907 38.566C159.093 39.2867 159.198 40.0258 159.221 40.7697C159.238 41.5454 159.158 42.3203 158.985 43.0765C158.622 44.6802 157.896 46.1793 156.863 47.4581C155.826 48.726 154.545 49.772 153.095 50.5338C151.75 51.253 150.301 51.7574 148.799 52.0288C147.365 52.2951 145.973 52.3638 144.684 52.5614C143.478 52.7055 142.306 53.0603 141.222 53.6096C139.675 54.4764 138.465 55.838 137.785 57.4757C137.601 57.9157 137.457 58.3715 137.356 58.8375C137.33 58.9964 137.313 59.1167 137.296 59.2069C137.293 59.2484 137.293 59.29 137.296 59.3315C137.296 59.3315 137.296 59.2885 137.326 59.2069C137.356 59.1253 137.369 59.0007 137.399 58.8461C137.505 58.3854 137.648 57.9343 137.828 57.4972C138.129 56.8118 138.524 56.1714 139.001 55.5942C139.633 54.8297 140.406 54.1938 141.278 53.7213C142.355 53.1839 143.518 52.8393 144.714 52.7032C146.003 52.5099 147.39 52.4454 148.838 52.1834C150.353 51.9086 151.817 51.4015 153.177 50.6799C154.644 49.9097 155.942 48.852 156.991 47.5698C158.031 46.2771 158.766 44.766 159.139 43.1495C159.309 42.3811 159.387 41.5952 159.371 40.8083C159.348 40.0543 159.241 39.3052 159.053 38.5746C158.688 37.1484 158.16 35.8597 157.799 34.6139C157.61 34.0171 157.466 33.4068 157.369 32.7882C157.293 32.2189 157.268 31.6437 157.296 31.07C157.395 29.3235 157.967 27.6367 158.95 26.19C159.118 25.928 159.294 25.7218 159.436 25.5285C159.577 25.3352 159.719 25.1934 159.831 25.0989L160.084 24.8283C160.127 24.7846 160.166 24.7372 160.2 24.6865Z" fill="#455A64"/>
<path d="M138.855 55.4697C138.956 55.5821 139.068 55.6843 139.19 55.7747C139.413 55.968 139.744 56.2344 140.161 56.5522C141.241 57.3871 142.366 58.1643 143.529 58.8805C144.692 59.5964 145.893 60.2516 147.124 60.8437C147.597 61.0713 147.983 61.2475 148.25 61.3592C148.386 61.4288 148.53 61.4835 148.679 61.5224C148.551 61.4414 148.418 61.3697 148.28 61.3076L147.171 60.7535C146.239 60.2809 144.968 59.5936 143.61 58.7559C142.253 57.9183 141.067 57.0892 140.225 56.4706L139.233 55.7318C139.114 55.6347 138.987 55.5471 138.855 55.4697V55.4697Z" fill="#455A64"/>
<path d="M141.162 53.6655C141.268 53.7441 141.381 53.8117 141.501 53.8674L142.437 54.3743C143.228 54.8039 144.31 55.4139 145.483 56.1313C146.656 56.8486 147.687 57.5446 148.426 58.0557L149.285 58.6657C149.39 58.7439 149.5 58.8142 149.616 58.8762C149.525 58.7812 149.426 58.6949 149.319 58.6185C149.122 58.4595 148.829 58.2405 148.46 57.9741C147.734 57.4372 146.703 56.7327 145.53 56.011C144.358 55.2893 143.262 54.6922 142.459 54.2927C142.055 54.0865 141.729 53.9276 141.497 53.8245C141.389 53.7625 141.277 53.7094 141.162 53.6655V53.6655Z" fill="#455A64"/>
<path d="M144.469 52.9692C144.677 53.1501 144.9 53.3125 145.135 53.4547C145.565 53.7339 146.145 54.1119 146.806 54.5114C147.468 54.9109 148.074 55.2503 148.525 55.4908C148.76 55.6311 149.007 55.7504 149.263 55.8474C149.046 55.6856 148.817 55.5419 148.576 55.4178L146.884 54.404L145.191 53.3859C144.964 53.2252 144.722 53.0857 144.469 52.9692V52.9692Z" fill="#455A64"/>
<path d="M147.554 49.3179C147.707 49.4584 147.875 49.5809 148.056 49.683L149.298 50.5164L150.531 51.3755C150.693 51.5045 150.869 51.6154 151.055 51.7063C150.921 51.5423 150.765 51.3977 150.591 51.2767C150.29 51.0362 149.865 50.7226 149.379 50.3918C148.894 50.061 148.443 49.7818 148.091 49.5928C147.924 49.4786 147.744 49.3861 147.554 49.3179Z" fill="#455A64"/>
<path d="M147.799 46.062C147.799 46.0835 148.164 46.2811 148.752 46.6204C149.341 46.9598 150.144 47.4538 150.991 48.0466C151.837 48.6394 152.576 49.2322 153.095 49.6704C153.369 49.92 153.656 50.1552 153.955 50.3749C153.896 50.2943 153.83 50.2195 153.757 50.1515C153.624 50.0141 153.422 49.8251 153.168 49.5931C151.845 48.3984 150.381 47.3698 148.808 46.5302C148.508 46.3713 148.258 46.251 148.087 46.1694C147.996 46.1211 147.899 46.0849 147.799 46.062V46.062Z" fill="#455A64"/>
<path d="M149.409 43.536C149.388 43.5704 150.896 44.6572 152.777 45.9717C154.659 47.2861 156.214 48.3171 156.214 48.287C156.214 48.257 154.732 47.1616 152.85 45.8514C150.969 44.5412 149.435 43.5016 149.409 43.536Z" fill="#455A64"/>
<path d="M150.694 40.688C150.783 40.7699 150.881 40.8419 150.986 40.9028C151.201 41.0488 151.471 41.2335 151.798 41.4483C152.485 41.908 153.43 42.5523 154.457 43.2826C155.484 44.0129 156.394 44.7002 157.034 45.1985L157.816 45.7913C157.908 45.8688 158.007 45.9364 158.113 45.9932C158.035 45.9003 157.947 45.8167 157.851 45.744C157.679 45.5937 157.421 45.3789 157.099 45.1169C156.454 44.5971 155.552 43.8969 154.521 43.1666C153.49 42.4363 152.537 41.8006 151.837 41.3624C151.484 41.1433 151.196 40.9715 150.977 40.8555C150.889 40.7901 150.794 40.734 150.694 40.688V40.688Z" fill="#455A64"/>
<path d="M153.345 39.1113C153.319 39.1414 154.599 40.0693 156.197 41.1819C157.795 42.2945 159.114 43.1622 159.14 43.1321C159.165 43.102 157.881 42.1699 156.283 41.0616C154.685 39.9533 153.366 39.077 153.345 39.1113Z" fill="#455A64"/>
<path d="M156.124 37.522C156.579 37.9828 157.07 38.4066 157.593 38.7892C158.084 39.2122 158.605 39.5984 159.152 39.9448C158.695 39.4793 158.204 39.0485 157.683 38.656C157.192 38.2404 156.671 37.8614 156.124 37.522V37.522Z" fill="#455A64"/>
<path d="M157.997 33.5312C158.188 33.7429 158.398 33.937 158.624 34.1112C159.023 34.4505 159.59 34.9102 160.235 35.3999C160.879 35.8896 161.476 36.2934 161.919 36.5812C162.149 36.7481 162.395 36.892 162.653 37.0108C162.441 36.8204 162.214 36.6467 161.975 36.491C161.545 36.1817 160.961 35.7564 160.321 35.2796C159.681 34.8028 159.105 34.356 158.688 34.0338C158.472 33.8481 158.24 33.68 157.997 33.5312V33.5312Z" fill="#455A64"/>
<path d="M157.189 30.8164C157.277 30.9009 157.373 30.9757 157.477 31.0398C157.662 31.1772 157.941 31.3663 158.285 31.5939C158.976 32.0536 159.947 32.6679 161.042 33.3122C162.138 33.9566 163.156 34.4807 163.899 34.8501C164.268 35.0348 164.573 35.1809 164.784 35.2797C164.89 35.338 165.002 35.3841 165.119 35.4171C165.022 35.3461 164.918 35.2843 164.81 35.2324L163.951 34.7642C163.22 34.3733 162.232 33.8234 161.12 33.1876C160.007 32.5519 159.049 31.9591 158.345 31.5209L157.511 31.0054C157.412 30.9303 157.303 30.8668 157.189 30.8164V30.8164Z" fill="#455A64"/>
<path d="M158.478 27.917C158.576 28.0044 158.68 28.0834 158.791 28.1533C158.998 28.2993 159.298 28.5055 159.676 28.759C160.428 29.2573 161.476 29.936 162.649 30.662C163.822 31.3879 164.891 32.0237 165.656 32.4704C166.047 32.6938 166.365 32.8742 166.588 32.9945C166.701 33.061 166.819 33.1185 166.94 33.1664C166.84 33.0819 166.732 33.0071 166.618 32.943L165.707 32.3802L162.7 30.5374L159.693 28.673L158.783 28.106C158.687 28.0335 158.585 27.9702 158.478 27.917V27.917Z" fill="#455A64"/>
<path d="M45.4488 113.552C45.4703 113.573 45.7882 113.256 46.4068 112.727C46.7161 112.465 47.0984 112.147 47.5623 111.808C48.0856 111.423 48.637 111.079 49.2119 110.777C49.5436 110.607 49.8883 110.463 50.2428 110.347C50.6145 110.212 51.007 110.142 51.4027 110.141C51.5981 110.141 51.7908 110.187 51.9654 110.274C52.1364 110.363 52.2726 110.507 52.352 110.682C52.4353 110.875 52.4749 111.083 52.468 111.292C52.4643 111.518 52.4355 111.743 52.3821 111.963C52.267 112.428 52.0999 112.879 51.8838 113.307C51.6576 113.762 51.4036 114.202 51.1235 114.626C49.9203 116.403 48.4139 117.954 46.6731 119.209C46.2617 119.504 45.8312 119.771 45.3844 120.008C44.9627 120.239 44.5159 120.421 44.0527 120.55C43.8355 120.61 43.6121 120.646 43.3869 120.657C43.1788 120.669 42.9706 120.635 42.7769 120.558C42.5954 120.486 42.4439 120.354 42.3473 120.185C42.2555 120.012 42.2041 119.821 42.197 119.626C42.1843 119.229 42.2425 118.834 42.3688 118.458C42.4857 118.099 42.6293 117.751 42.7984 117.414C43.0851 116.831 43.4138 116.269 43.7821 115.734C44.1086 115.262 44.4093 114.875 44.667 114.553C45.1739 113.921 45.4832 113.591 45.4617 113.569C45.4402 113.548 45.3672 113.634 45.2083 113.784C45.0493 113.934 44.8302 114.158 44.5596 114.463C44.2268 114.832 43.9128 115.217 43.6189 115.618C43.2253 116.151 42.8748 116.714 42.5707 117.302C42.3959 117.649 42.2452 118.008 42.1197 118.376C41.9755 118.79 41.9071 119.227 41.9178 119.665C41.9223 119.906 41.9841 120.143 42.0982 120.356C42.2216 120.585 42.4183 120.765 42.6566 120.868C42.893 120.966 43.1482 121.012 43.4041 121.001C43.655 120.993 43.9043 120.957 44.1472 120.893C44.6349 120.76 45.1061 120.573 45.5519 120.335C46.0177 120.079 46.4654 119.792 46.8922 119.476C48.6767 118.203 50.2152 116.616 51.4328 114.793C51.7222 114.359 51.982 113.905 52.2103 113.436C52.433 112.982 52.6045 112.506 52.7215 112.014C52.7799 111.771 52.8088 111.521 52.8074 111.271C52.8143 111.015 52.7614 110.76 52.6527 110.528C52.5426 110.292 52.3565 110.1 52.1244 109.982C51.9077 109.876 51.6696 109.822 51.4285 109.823C50.9965 109.828 50.5688 109.909 50.1655 110.064C49.8016 110.199 49.4483 110.361 49.1088 110.549C48.5305 110.87 47.9788 111.236 47.4592 111.645C46.9996 112.005 46.6259 112.336 46.3294 112.62C46.033 112.903 45.814 113.131 45.6722 113.29C45.5304 113.449 45.4402 113.543 45.4488 113.552Z" fill="#455A64"/>
<path d="M49.5683 114.583C49.5426 114.583 49.6671 115.013 49.8304 115.777C49.912 116.164 50.0022 116.636 50.0752 117.186C50.1585 117.808 50.193 118.436 50.1783 119.064C50.17 119.425 50.1327 119.786 50.0666 120.142C50.0042 120.52 49.8747 120.883 49.6843 121.216C49.587 121.378 49.455 121.518 49.2977 121.624C49.1408 121.726 48.9563 121.777 48.7693 121.77C48.5649 121.764 48.3642 121.714 48.1808 121.624C47.9864 121.524 47.8047 121.402 47.6396 121.259C47.2883 120.954 46.9727 120.612 46.6988 120.236C46.4091 119.841 46.1465 119.426 45.9127 118.995C44.9367 117.163 44.3035 115.169 44.044 113.11C43.9881 112.623 43.9637 112.134 43.971 111.645C43.978 111.18 44.037 110.717 44.1471 110.266C44.2031 110.055 44.2808 109.851 44.3791 109.656C44.47 109.476 44.599 109.317 44.7571 109.192C44.9049 109.076 45.0852 109.01 45.2726 109.003C45.4619 108.999 45.6496 109.037 45.8225 109.115C46.1692 109.276 46.4847 109.497 46.7546 109.768C47.0134 110.022 47.2518 110.296 47.4677 110.588C47.8475 111.088 48.1865 111.619 48.4815 112.173C48.7393 112.663 48.9369 113.101 49.0915 113.462C49.4008 114.188 49.5426 114.6 49.5683 114.592C49.5647 114.484 49.5429 114.378 49.5039 114.278C49.4481 114.076 49.3578 113.784 49.2247 113.419C49.0915 113.054 48.9068 112.598 48.6619 112.092C48.3838 111.514 48.0576 110.961 47.6868 110.438C47.4707 110.13 47.2278 109.843 46.9608 109.579C46.672 109.274 46.3299 109.025 45.9513 108.844C45.7396 108.748 45.5094 108.7 45.2769 108.702C45.0257 108.709 44.7825 108.793 44.581 108.943C44.3853 109.095 44.2242 109.287 44.1085 109.506C43.994 109.721 43.9046 109.949 43.8421 110.184C43.72 110.659 43.6536 111.146 43.6445 111.636C43.6298 112.143 43.6513 112.649 43.709 113.153C43.9595 115.26 44.6082 117.301 45.6206 119.167C45.8632 119.615 46.1374 120.046 46.4411 120.455C46.7316 120.85 47.0675 121.209 47.442 121.525C47.6278 121.681 47.831 121.815 48.0477 121.924C48.2686 122.039 48.512 122.104 48.7607 122.113C49.0106 122.119 49.2564 122.049 49.4652 121.912C49.6569 121.778 49.8179 121.605 49.9378 121.405C50.1412 121.038 50.2766 120.638 50.3373 120.223C50.4014 119.853 50.433 119.478 50.4318 119.102C50.4347 118.46 50.3815 117.819 50.2728 117.186C50.1953 116.712 50.0935 116.241 49.9678 115.777C49.8647 115.395 49.7659 115.103 49.6972 114.918C49.6752 114.799 49.6315 114.686 49.5683 114.583V114.583Z" fill="#455A64"/>
<path d="M48.1594 112.602C48.1594 112.633 48.589 112.744 49.3149 113.011C49.6844 113.144 50.1311 113.316 50.6423 113.543C51.215 113.8 51.7666 114.102 52.2919 114.445C52.5967 114.641 52.8842 114.862 53.151 115.107C53.44 115.357 53.6803 115.658 53.8598 115.996C53.9476 116.164 53.9975 116.348 54.0058 116.537C54.0096 116.726 53.954 116.911 53.8469 117.066C53.7358 117.231 53.589 117.369 53.4173 117.469C53.2302 117.581 53.0314 117.672 52.8245 117.74C52.3801 117.876 51.9219 117.963 51.4585 117.998C50.9693 118.03 50.4785 118.03 49.9893 117.998C48.9555 117.937 47.9299 117.777 46.9265 117.521C45.9211 117.27 44.9416 116.925 44.0011 116.49C43.5568 116.282 43.1264 116.045 42.7124 115.781C42.3206 115.538 41.9587 115.25 41.6342 114.922C41.4814 114.766 41.3487 114.591 41.239 114.402C41.1323 114.232 41.0649 114.039 41.0414 113.84C41.0218 113.654 41.0593 113.467 41.1488 113.303C41.2454 113.133 41.3773 112.987 41.5354 112.873C41.8563 112.668 42.2113 112.523 42.5835 112.444C42.9349 112.357 43.2925 112.298 43.6532 112.267C44.2794 112.218 44.9085 112.218 45.5347 112.267C46.0888 112.31 46.5657 112.37 46.9566 112.426C47.7298 112.547 48.1551 112.645 48.1637 112.615C48.0695 112.564 47.9681 112.528 47.863 112.508C47.6654 112.448 47.369 112.37 46.9781 112.289C46.5871 112.207 46.1189 112.13 45.5519 112.07C44.9141 112.002 44.2718 111.988 43.6317 112.027C43.2568 112.049 42.8846 112.104 42.5191 112.19C42.1075 112.273 41.7154 112.434 41.3636 112.663C41.1694 112.791 41.0065 112.961 40.8867 113.161C40.7594 113.377 40.7038 113.628 40.7278 113.878C40.7498 114.126 40.8276 114.365 40.9555 114.578C41.0763 114.787 41.2204 114.982 41.385 115.158C41.7252 115.514 42.1058 115.828 42.5191 116.095C42.943 116.372 43.385 116.62 43.8422 116.838C44.8079 117.288 45.815 117.643 46.8492 117.899C47.8748 118.161 48.9238 118.32 49.9808 118.376C50.4862 118.404 50.993 118.395 51.4971 118.35C51.9865 118.311 52.4696 118.215 52.9362 118.062C53.168 117.987 53.3901 117.885 53.5977 117.757C53.809 117.628 53.9905 117.455 54.1304 117.25C54.2668 117.041 54.3358 116.795 54.328 116.546C54.3172 116.312 54.2541 116.083 54.1433 115.876C53.9406 115.51 53.6728 115.183 53.3529 114.914C53.0692 114.666 52.7661 114.442 52.4465 114.243C51.8987 113.91 51.3239 113.622 50.7282 113.384C50.2827 113.201 49.8282 113.04 49.3665 112.903C48.9885 112.791 48.6877 112.718 48.4858 112.675C48.3817 112.634 48.2714 112.609 48.1594 112.602V112.602Z" fill="#455A64"/>
<path d="M45.9943 115.081C45.9391 115.302 45.9506 115.534 46.0274 115.749C46.1042 115.963 46.2429 116.15 46.4258 116.285C46.6088 116.421 46.8278 116.499 47.0552 116.51C47.2827 116.521 47.5083 116.465 47.7035 116.347C47.8988 116.23 48.0549 116.058 48.1521 115.852C48.2494 115.646 48.2834 115.416 48.2499 115.191C48.2164 114.966 48.1169 114.755 47.9639 114.587C47.8109 114.418 47.6113 114.299 47.3904 114.243C47.0943 114.171 46.7813 114.218 46.5198 114.375C46.2583 114.532 46.0694 114.785 45.9943 115.081V115.081Z" fill="#455A64"/>
<path d="M22.527 95.3594L22.6559 95.2993L23.0296 95.1103L24.4687 94.3628L29.7567 91.5835H29.7095L45.9988 97.808L46.1449 97.8638L46.1019 97.7135L45.6036 95.9136C44.4653 91.8069 43.387 87.9193 42.442 84.4999V84.4741L33.421 77.7126L30.8436 75.8053L30.1605 75.3027L29.9844 75.1782C29.9472 75.1467 29.9257 75.1338 29.92 75.1395L29.9758 75.1868L30.1476 75.3242L30.8178 75.8397L33.3608 77.7771L42.3561 84.5858L42.3303 84.5471C43.2754 87.9837 44.345 91.8498 45.4791 95.9694C45.6509 96.5837 45.8184 97.198 45.9774 97.7693L46.0805 97.6748L29.7567 91.4933H29.731L24.4687 94.3156L23.0468 95.0845L22.6774 95.2907L22.527 95.3594Z" fill="#0068AD"/>
<path d="M43.9065 97.6103L44.8816 97.8981L45.1952 98.8647L45.7709 98.027H46.7889L46.1704 97.2194L46.4839 96.2529L45.526 96.5922L44.7055 95.9951L44.7313 97.0132L43.9065 97.6103Z" fill="#0068AD"/>
<path d="M41.0933 84.1863L41.7076 84.4096L41.8751 85.0454L42.2789 84.5299L42.9362 84.5686L42.5667 84.023L42.8073 83.413L42.1758 83.5934L41.6689 83.1768L41.6474 83.834L41.0933 84.1863Z" fill="#0068AD"/>
<path d="M28.76 74.723L29.2067 75.3974L28.9103 76.1449L29.6879 75.9258L30.3065 76.4413L30.3408 75.6337L31.0195 75.2041L30.2635 74.9249L30.0659 74.1431L29.5633 74.7745L28.76 74.723Z" fill="#0068AD"/>
<path d="M21.539 94.5091L21.9901 95.1836L21.6894 95.931L22.4669 95.7119L23.0898 96.2274L23.1198 95.4198L23.8029 94.9902L23.0468 94.711L22.8449 93.9292L22.3466 94.5607L21.539 94.5091Z" fill="#0068AD"/>
<path d="M29.1164 91.197L29.4043 91.6266L29.211 92.1034L29.7093 91.9616L30.1045 92.2924L30.1216 91.7769L30.5598 91.502L30.0744 91.3215L29.9498 90.8232L29.6276 91.2313L29.1164 91.197Z" fill="#0068AD"/>
<path d="M71.1763 22.92C70.4425 18.4244 73.4921 14.1851 77.9878 13.4513C82.4834 12.7175 86.7227 15.7671 87.4564 20.2628C88.1902 24.7584 85.1406 28.9977 80.645 29.7314C76.1493 30.4652 71.9101 27.4156 71.1763 22.92Z" fill="#0068AD"/>
<g opacity="0.3">
<path opacity="0.3" d="M80.3988 24.1707C80.3988 24.4367 80.4776 24.6966 80.6254 24.9177C80.7731 25.1388 80.9831 25.3112 81.2288 25.4129C81.4745 25.5147 81.7448 25.5413 82.0056 25.4895C82.2665 25.4376 82.506 25.3095 82.6941 25.1215C82.8821 24.9334 83.0102 24.6939 83.0621 24.433C83.1139 24.1722 83.0873 23.9019 82.9855 23.6562C82.8838 23.4105 82.7114 23.2005 82.4903 23.0528C82.2692 22.905 82.0093 22.8262 81.7433 22.8262C81.3867 22.8262 81.0447 22.9678 80.7926 23.22C80.5404 23.4721 80.3988 23.8141 80.3988 24.1707V24.1707Z" fill="white"/>
</g>
<g opacity="0.3">
<path opacity="0.3" d="M82.2891 20.2877C82.2891 20.4423 82.335 20.5935 82.4209 20.722C82.5068 20.8506 82.6289 20.9508 82.7718 21.01C82.9146 21.0692 83.0718 21.0846 83.2235 21.0545C83.3751 21.0243 83.5144 20.9498 83.6238 20.8405C83.7331 20.7312 83.8076 20.5919 83.8378 20.4402C83.8679 20.2885 83.8524 20.1314 83.7933 19.9885C83.7341 19.8456 83.6339 19.7235 83.5053 19.6376C83.3767 19.5517 83.2256 19.5059 83.071 19.5059C82.8636 19.5059 82.6648 19.5882 82.5181 19.7348C82.3715 19.8815 82.2891 20.0803 82.2891 20.2877V20.2877Z" fill="white"/>
</g>
<path d="M87.3108 23.6039C87.2722 23.7457 94.3687 30.5544 92.5387 32.0063C90.7087 33.4583 83.0151 29.7339 76.4555 24.4373C69.896 19.1407 63.9078 12.7057 65.5487 11.0046C67.1897 9.30348 75.3816 14.3424 75.3816 14.3424L74.385 14.9652C74.385 14.9652 69.4321 11.7864 67.8641 13.0193C66.2962 14.2521 70.7637 19.0762 77.0698 23.6812C83.3759 28.2862 89.4716 31.5166 90.4166 30.2537C91.3617 28.9907 86.8984 24.7852 86.8984 24.7852L87.3108 23.6039Z" fill="#0068AD"/>
<g opacity="0.3">
<path opacity="0.3" d="M87.3106 23.6039C87.2719 23.7457 94.3684 30.5544 92.5385 32.0063C90.7085 33.4583 83.0149 29.7339 76.4553 24.4373C69.8957 19.1407 63.9075 12.7057 65.5485 11.0046C67.1894 9.30348 75.3814 14.3424 75.3814 14.3424L74.3848 14.9652C74.3848 14.9652 69.4318 11.7864 67.8639 13.0193C66.2959 14.2521 70.7635 19.0762 77.0696 23.6812C83.3757 28.2862 89.4713 31.5166 90.4164 30.2537C91.3614 28.9907 86.8982 24.7852 86.8982 24.7852L87.3106 23.6039Z" fill="black"/>
</g>
<g opacity="0.3">
<path opacity="0.3" d="M83.8349 15.7859C83.7705 15.8675 84.3289 16.34 84.9604 17.2937C85.7996 18.5161 86.2626 19.9573 86.2924 21.4398C86.3222 22.9222 85.9174 24.3809 85.1279 25.636C84.5308 26.6111 83.9939 27.1094 84.0626 27.1867C84.1313 27.264 84.7671 26.8602 85.5017 25.898C85.9268 25.3256 86.2642 24.6928 86.5026 24.0208C87.1119 22.3497 87.0751 20.5113 86.3995 18.8659C86.1352 18.2042 85.7732 17.5859 85.3255 17.0316C84.5695 16.0866 83.8908 15.73 83.8349 15.7859Z" fill="white"/>
</g>
<path d="M66.8328 28.8661C66.8104 27.919 66.5077 26.9998 65.9629 26.2247C65.418 25.4497 64.6556 24.8536 63.772 24.5119C62.8884 24.1702 61.9233 24.0982 60.9987 24.305C60.0742 24.5118 59.2318 24.9882 58.578 25.6738C57.9242 26.3594 57.4884 27.2236 57.3258 28.1569C57.1631 29.0902 57.2809 30.0508 57.6642 30.9172C58.0476 31.7835 58.6792 32.5168 59.4793 33.0241C60.2793 33.5315 61.2119 33.7902 62.159 33.7675C63.4287 33.7371 64.6343 33.2037 65.5108 32.2846C66.3872 31.3654 66.8627 30.1358 66.8328 28.8661V28.8661Z" fill="#0068AD"/>
<g opacity="0.4">
<path opacity="0.4" d="M60.4837 27.1481C60.4802 26.9934 60.4309 26.8431 60.342 26.7164C60.2531 26.5897 60.1285 26.4923 59.9842 26.4365C59.8398 26.3806 59.6821 26.3689 59.5311 26.4027C59.38 26.4366 59.2424 26.5145 59.1357 26.6266C59.029 26.7388 58.958 26.8801 58.9316 27.0326C58.9053 27.1851 58.9249 27.3421 58.9878 27.4835C59.0507 27.6249 59.1542 27.7445 59.2852 27.827C59.4161 27.9095 59.5686 27.9514 59.7234 27.9471C59.8258 27.9449 59.9269 27.9224 60.0206 27.881C60.1144 27.8396 60.1991 27.7801 60.2697 27.7058C60.3404 27.6315 60.3957 27.544 60.4324 27.4483C60.4691 27.3526 60.4866 27.2506 60.4837 27.1481Z" fill="black"/>
</g>
<g opacity="0.4">
<path opacity="0.4" d="M58.9201 28.9691C58.9174 28.8786 58.8877 28.7909 58.8349 28.7173C58.7821 28.6437 58.7086 28.5875 58.6237 28.5559C58.5388 28.5243 58.4465 28.5188 58.3584 28.54C58.2704 28.5612 58.1906 28.6081 58.1294 28.6749C58.0682 28.7416 58.0282 28.8251 58.0147 28.9146C58.0012 29.0042 58.0146 29.0957 58.0534 29.1776C58.0922 29.2594 58.1545 29.3279 58.2323 29.3741C58.3102 29.4204 58.4001 29.4424 58.4905 29.4373C58.6086 29.4296 58.7192 29.3766 58.7992 29.2894C58.8792 29.2022 58.9225 29.0874 58.9201 28.9691V28.9691Z" fill="black"/>
</g>
<g opacity="0.4">
<path opacity="0.4" d="M59.5344 30.3652C59.4896 30.3664 59.447 30.385 59.4157 30.4171C59.3843 30.4492 59.3668 30.4922 59.3669 30.5371C59.3674 30.5591 59.3723 30.5807 59.3812 30.6009C59.3902 30.621 59.403 30.6391 59.4189 30.6543C59.4349 30.6694 59.4537 30.6813 59.4742 30.6892C59.4948 30.6971 59.5167 30.7009 59.5387 30.7003C59.5609 30.7003 59.5828 30.6958 59.6032 30.6871C59.6236 30.6784 59.642 30.6656 59.6573 30.6495C59.6725 30.6334 59.6844 30.6144 59.6921 30.5936C59.6997 30.5728 59.7031 30.5506 59.7019 30.5285C59.7008 30.4848 59.6827 30.4433 59.6514 30.4128C59.6201 30.3823 59.5781 30.3652 59.5344 30.3652V30.3652Z" fill="black"/>
</g>
<path d="M47.0554 64.5981C47.0984 64.5981 47.1284 58.5325 47.1284 51.0537C47.1284 43.5748 47.0984 37.5093 47.0554 37.5093C47.0124 37.5093 46.9824 43.5705 46.9824 51.0537C46.9824 58.5368 47.0167 64.5981 47.0554 64.5981Z" fill="#263238"/>
<path d="M46.2479 37.7411C46.5933 37.2408 46.9006 36.7152 47.1672 36.1689H47.0383V36.2033C47.26 36.7839 47.5227 37.3481 47.8245 37.8915C47.6551 37.2932 47.4367 36.7098 47.1715 36.1474V36.1131L47.1114 35.9756L47.0426 36.1045C46.7343 36.6279 46.4686 37.1752 46.2479 37.7411Z" fill="#263238"/>
<path d="M47.2059 34.309C47.2317 34.339 47.455 34.193 47.6355 33.9224C47.8159 33.6517 47.8588 33.3897 47.8202 33.3811C47.7815 33.3725 47.6784 33.5959 47.5152 33.845C47.352 34.0942 47.1801 34.2789 47.2059 34.309Z" fill="#263238"/>
<path d="M47.6311 35.0908C47.5497 34.7578 47.4345 34.4339 47.2875 34.1243C47.1896 33.7961 47.0571 33.4793 46.8922 33.1792C46.9185 33.5245 47.0073 33.8622 47.1543 34.1758C47.2556 34.5075 47.4173 34.8177 47.6311 35.0908V35.0908Z" fill="#263238"/>
<path d="M48.9972 41.0748C48.8992 40.8017 48.8161 40.5235 48.748 40.2415C48.7334 39.9553 48.7334 39.6685 48.748 39.3823C48.5955 39.6539 48.551 39.9729 48.6235 40.2758C48.6444 40.5794 48.7777 40.8642 48.9972 41.0748Z" fill="#263238"/>
<path d="M48.7309 39.945C48.7309 39.945 48.7653 40.061 48.9371 40.1039C49.0389 40.1256 49.145 40.1071 49.2335 40.0524C49.2858 40.0148 49.329 39.9658 49.3599 39.9093C49.3907 39.8527 49.4085 39.7899 49.4118 39.7256C49.4151 39.6612 49.4039 39.5969 49.379 39.5375C49.354 39.4781 49.3161 39.425 49.2679 39.3822C49.1831 39.3219 49.0793 39.2945 48.9758 39.3049C48.7996 39.3049 48.7395 39.4338 48.7567 39.4424C48.7739 39.451 48.8469 39.3994 48.9801 39.408C49.0201 39.4073 49.0598 39.4149 49.0967 39.4305C49.1337 39.446 49.1669 39.469 49.1944 39.4982C49.2219 39.5273 49.243 39.5618 49.2564 39.5995C49.2698 39.6373 49.2752 39.6774 49.2722 39.7173C49.2706 39.7574 49.2609 39.7967 49.2436 39.833C49.2264 39.8692 49.2019 39.9016 49.1718 39.9281C49.1417 39.9546 49.1065 39.9747 49.0684 39.9872C49.0302 39.9997 48.99 40.0043 48.95 40.0008C48.8168 40.0051 48.7481 39.9278 48.7309 39.945Z" fill="#263238"/>
<path d="M25.9678 62.6736C25.9678 62.7123 31.157 62.7466 37.5662 62.7466C43.9754 62.7466 49.1647 62.7123 49.1647 62.6736C49.1647 62.635 43.9797 62.6006 37.5662 62.6006C31.1527 62.6006 25.9678 62.635 25.9678 62.6736Z" fill="#263238"/>
<path d="M25.7316 62.6434C26.0681 62.5909 26.3951 62.4896 26.7024 62.3427C27.0216 62.2422 27.3253 62.0976 27.6045 61.9131C27.2732 61.9669 26.9518 62.0697 26.6508 62.2181C26.3253 62.3143 26.0156 62.4576 25.7316 62.6434V62.6434Z" fill="#263238"/>
<path d="M25.478 62.7295C25.9674 63.0076 26.5029 63.1954 27.0588 63.2836C26.8223 63.1291 26.5628 63.0131 26.2899 62.94C26.0336 62.8232 25.7588 62.7519 25.478 62.7295V62.7295Z" fill="#263238"/>
<path d="M48.1466 63.4082C48.0662 63.4636 47.9981 63.5348 47.9463 63.6176C47.8946 63.7003 47.8604 63.7928 47.8459 63.8893C47.7944 64.0995 47.811 64.3206 47.8931 64.5208C47.9406 64.6444 48.0208 64.7528 48.1251 64.8344C48.1891 64.8758 48.2637 64.8978 48.3399 64.8978C48.4161 64.8978 48.4907 64.8758 48.5547 64.8344C48.6641 64.7535 48.7518 64.6469 48.8103 64.524C48.8687 64.4011 48.896 64.2658 48.8898 64.1299C48.8929 64.0201 48.8713 63.911 48.8267 63.8107C48.7821 63.7103 48.7156 63.6212 48.632 63.55C48.5763 63.5017 48.5115 63.4651 48.4414 63.4423C48.3713 63.4194 48.2974 63.4107 48.2239 63.4168C48.1208 63.4168 48.0736 63.464 48.0779 63.4683C48.0822 63.4726 48.1337 63.4683 48.2239 63.4683C48.3513 63.4798 48.471 63.5344 48.5633 63.623C48.6295 63.6872 48.6811 63.765 48.7144 63.851C48.7478 63.937 48.7622 64.0292 48.7566 64.1213C48.7593 64.2333 48.7358 64.3445 48.6881 64.4459C48.6404 64.5473 48.5697 64.6362 48.4817 64.7055C48.4394 64.7327 48.3902 64.7472 48.3399 64.7472C48.2896 64.7472 48.2404 64.7327 48.1981 64.7055C48.1131 64.6407 48.0465 64.5548 48.0048 64.4564C47.9295 64.2805 47.9056 64.0868 47.9361 63.8979C47.9809 63.7249 48.0519 63.5598 48.1466 63.4082V63.4082Z" fill="#263238"/>
<path d="M29.28 63.713C29.28 63.713 29.1983 63.6657 29.0866 63.7602C29.0536 63.7888 29.0276 63.8246 29.0105 63.8648C28.9934 63.905 28.9856 63.9486 28.9878 63.9922C28.9987 64.1037 29.0472 64.2082 29.1253 64.2886C29.2886 64.469 29.5892 64.5377 29.7267 64.7568C29.7583 64.814 29.7749 64.8783 29.7749 64.9437C29.7749 65.009 29.7583 65.0733 29.7267 65.1305C29.691 65.1905 29.6388 65.239 29.5764 65.2702C29.5139 65.3014 29.4439 65.314 29.3745 65.3067C29.3044 65.3008 29.2378 65.2739 29.1833 65.2294C29.1289 65.1849 29.0892 65.125 29.0695 65.0575C29.0487 64.9949 29.0445 64.9279 29.0573 64.8632C29.0701 64.7984 29.0995 64.7381 29.1425 64.6881C29.2292 64.5877 29.3342 64.5046 29.4518 64.4432C29.5158 64.4194 29.5737 64.3815 29.6212 64.3325C29.6688 64.2835 29.7048 64.2244 29.7267 64.1597C29.7394 64.104 29.7394 64.0461 29.7268 63.9903C29.7142 63.9346 29.6892 63.8824 29.6537 63.8375C29.6028 63.7732 29.5362 63.7229 29.4604 63.6915C29.3358 63.6485 29.2628 63.6571 29.2585 63.6657C29.2542 63.6743 29.3272 63.6657 29.4346 63.743C29.4971 63.7768 29.5502 63.8255 29.5892 63.8848C29.6139 63.9208 29.6302 63.9619 29.6368 64.005C29.6435 64.0481 29.6405 64.0922 29.6279 64.1339C29.5849 64.3187 29.2413 64.3444 29.0394 64.6065C28.9813 64.6739 28.9413 64.7551 28.9233 64.8423C28.9053 64.9295 28.9097 65.0198 28.9363 65.1048C28.9658 65.1982 29.0223 65.2807 29.0988 65.3419C29.1753 65.4031 29.2683 65.4402 29.3659 65.4484C29.4624 65.4588 29.5598 65.4412 29.6466 65.3978C29.7334 65.3544 29.806 65.287 29.8556 65.2036C29.9 65.1249 29.9233 65.0361 29.9233 64.9458C29.9233 64.8555 29.9 64.7667 29.8556 64.6881C29.7679 64.565 29.6494 64.4672 29.5119 64.4046C29.4062 64.3531 29.3068 64.2897 29.2155 64.2156C29.1474 64.1552 29.1019 64.0733 29.0866 63.9836C29.0832 63.9506 29.0864 63.9173 29.096 63.8856C29.1055 63.8539 29.1214 63.8244 29.1425 63.7989C29.194 63.713 29.28 63.7258 29.28 63.713Z" fill="#263238"/>
<path d="M29.34 63.1715C29.4388 62.7476 29.4388 62.3067 29.34 61.8828C29.2412 62.3067 29.2412 62.7476 29.34 63.1715V63.1715Z" fill="#263238"/>
<path d="M23.1413 62.699C23.2679 62.7443 23.4022 62.7648 23.5365 62.7592L23.9661 62.7849C23.9981 62.7957 24.0328 62.7957 24.0649 62.7849C24.0857 62.7714 24.1019 62.7518 24.1111 62.7287C24.1204 62.7056 24.1222 62.6802 24.1165 62.6561C24.1016 62.6019 24.07 62.5538 24.0262 62.5186L23.8372 62.321C23.7084 62.2209 23.6236 62.0745 23.601 61.9129C23.5972 61.8548 23.6128 61.797 23.6455 61.7488C23.6782 61.7006 23.726 61.6646 23.7814 61.6466C23.8687 61.636 23.9572 61.6525 24.0348 61.6938C24.0993 61.7196 24.1336 61.7368 24.1422 61.7282C24.1508 61.7196 24.1207 61.6895 24.0649 61.6466C23.9815 61.575 23.8739 61.5381 23.7642 61.5435C23.6786 61.5607 23.6019 61.6077 23.5476 61.6761C23.4933 61.7445 23.4651 61.8299 23.4678 61.9172C23.4838 62.1123 23.5765 62.293 23.7255 62.4198L23.9231 62.6131C23.9575 62.6432 23.9833 62.6733 23.9833 62.6861H23.9575H23.5279C23.3992 62.6688 23.2686 62.6731 23.1413 62.699V62.699Z" fill="#263238"/>
<path d="M43.9712 62.6735C43.9712 62.6735 43.9712 62.5275 43.9712 62.274C43.9712 62.0206 43.9711 61.6468 43.9926 61.213C43.9926 60.3109 44.0184 59.0651 44.0227 57.6389L43.954 57.712H45.2985L45.2255 57.6389V59.1296C45.2255 59.6064 45.2255 60.0617 45.2255 60.4913C45.2255 61.3504 45.2255 62.0807 45.247 62.6692L45.2899 62.6263L44.3105 62.6477C44.0785 62.6477 43.9497 62.6477 43.9454 62.6692C44.0584 62.6765 44.1717 62.6765 44.2847 62.6692L45.2899 62.6907H45.3329V62.6477C45.3329 62.0592 45.3329 61.3204 45.3329 60.4698C45.3329 60.0402 45.3329 59.5849 45.3329 59.1081V57.6175L45.2599 57.5444H43.8852V57.6132C43.8852 59.0694 43.8852 60.3366 43.9196 61.2345C43.9196 61.664 43.9196 62.0163 43.9196 62.2826C43.9257 62.4141 43.9429 62.5449 43.9712 62.6735V62.6735Z" fill="#263238"/>
<path d="M31.1485 62.6733C31.1534 62.6218 31.1534 62.5701 31.1485 62.5186C31.1485 62.4069 31.1485 62.2695 31.1485 62.0891C31.1485 61.7024 31.1485 61.1784 31.17 60.5297C31.17 59.2152 31.1958 57.3938 31.2001 55.3276L31.127 55.3963H32.4759L32.4029 55.3276V56.4617C32.4029 56.8354 32.4029 57.2005 32.4029 57.5571C32.4029 58.2745 32.4029 58.9489 32.4029 59.5804C32.4029 60.8261 32.4243 61.8829 32.4286 62.6561L32.4673 62.6174H31.4836H31.2173H31.1184C31.2314 62.6254 31.3448 62.6254 31.4578 62.6174L32.4673 62.6389H32.506V62.6003C32.506 61.827 32.506 60.7703 32.5317 59.5245C32.5317 58.893 32.5317 58.2358 32.5317 57.5012C32.5317 57.1447 32.5317 56.7796 32.5317 56.4058V55.2718L32.4587 55.1987H31.0411V55.2718C31.0411 57.3681 31.0411 59.2152 31.0712 60.5254C31.0712 61.1655 31.0712 61.6853 31.0927 62.0676C31.0927 62.2308 31.0927 62.3683 31.0927 62.4972C31.0927 62.626 31.1485 62.6776 31.1485 62.6733Z" fill="#263238"/>
<path d="M40.7279 62.6736C40.7329 62.6107 40.7329 62.5475 40.7279 62.4846C40.7279 62.3471 40.7279 62.171 40.7279 61.9519C40.7279 61.4837 40.7279 60.8264 40.7494 60.0102C40.7494 58.365 40.7494 56.0925 40.7794 53.528L40.7064 53.601H42.0553C41.9092 53.455 42.0166 53.5624 41.9822 53.5323V54.9842C41.9822 55.4611 41.9822 55.925 41.9822 56.3803C41.9822 57.2867 41.9822 58.1416 41.9822 58.9277C41.9822 60.4913 42.0037 61.7801 42.0123 62.6736L42.0467 62.6392H41.0544H40.7923H40.6978H40.7794H41.0372H42.0467H42.081V62.6048C42.081 61.7113 42.081 60.4226 42.1068 58.859C42.1068 58.0729 42.1068 57.218 42.1068 56.3116C42.1068 55.8563 42.1068 55.3923 42.1068 54.9155V53.4636C42.0724 53.4292 42.1798 53.5323 42.0338 53.3862H40.6162V53.455C40.6162 56.0324 40.6377 58.3306 40.6463 59.9888C40.6463 60.7963 40.6463 61.4493 40.6677 61.9132C40.6677 62.128 40.6677 62.2998 40.6677 62.4287C40.6677 62.5576 40.7279 62.6779 40.7279 62.6736Z" fill="#263238"/>
<path d="M37.5578 62.6433C37.5596 62.619 37.5596 62.5946 37.5578 62.5703V62.3426C37.5578 62.145 37.5578 61.8701 37.5578 61.5221C37.5578 60.8047 37.5578 59.7781 37.5792 58.5151C37.5792 55.9635 37.6007 52.4367 37.6136 48.476L37.5406 48.5491H38.9023L38.8336 48.4803V53.0209C38.8336 54.4557 38.8336 55.8045 38.8336 57.0331C38.8336 59.4731 38.8594 61.4276 38.868 62.6175L38.8937 62.5918H37.9014H37.5492C37.5492 62.5918 37.5749 62.5918 37.6308 62.5918H37.8713H38.8808H38.9109V62.5617C38.9109 61.3503 38.9109 59.3957 38.941 56.9773C38.941 55.7487 38.941 54.3998 38.941 52.9651C38.941 52.2434 38.941 51.5045 38.941 50.7442V48.4245C38.9109 48.3901 39.014 48.4932 38.868 48.3472H37.4504V48.4202C37.4504 52.398 37.4504 55.9463 37.4804 58.5108C37.4804 59.7738 37.4804 60.7962 37.5019 61.5178C37.5019 61.8615 37.5019 62.1321 37.5019 62.3254V62.5316C37.5535 62.6261 37.5535 62.6476 37.5578 62.6433Z" fill="#263238"/>
<path d="M34.3059 62.6435C34.3059 62.6435 34.3059 62.6006 34.3059 62.519C34.3059 62.4373 34.3059 62.3085 34.3059 62.1538C34.3059 61.8316 34.3059 61.3634 34.3059 60.7663C34.3059 59.5592 34.3059 57.8151 34.3274 55.663C34.3274 51.3673 34.3274 45.3833 34.3575 38.725L34.2844 38.798H35.6333C35.4915 38.6562 35.5903 38.7636 35.5603 38.7336V42.8446C35.5603 44.1848 35.5603 45.4907 35.5603 46.7494C35.5603 49.271 35.5603 51.6078 35.5603 53.6998C35.5603 57.8667 35.5903 61.0326 35.5989 62.6435H34.5894H34.2501C34.2501 62.6435 34.2759 62.6435 34.3317 62.6435H34.5765H35.5989H35.6204V62.6178C35.6204 61.0069 35.6419 57.8409 35.6548 53.6741C35.6548 51.5821 35.6548 49.2452 35.6548 46.7236C35.6548 45.465 35.6548 44.1462 35.6548 42.8188V38.7164C35.6204 38.682 35.7278 38.7808 35.5818 38.6348H34.1642V38.7164C34.1642 45.3962 34.1642 51.3802 34.1942 55.7059C34.1942 57.8538 34.1942 59.5721 34.2157 60.7921C34.2157 61.3849 34.2157 61.8445 34.2157 62.1667C34.2157 62.3171 34.2157 62.433 34.2157 62.519C34.2157 62.6049 34.3059 62.6478 34.3059 62.6435Z" fill="#263238"/>
<path d="M178.513 64.061L177.366 84.1779L143.709 82.2577L178.513 64.061ZM172.89 71.8664L158.413 79.5986L172.405 80.3848L172.89 71.8664Z" fill="#0068AD"/>
<path d="M175.171 65.8179C175.278 66.2611 175.458 66.6835 175.704 67.0679C175.885 67.4895 176.136 67.8773 176.447 68.2149C176.342 67.7669 176.162 67.3399 175.914 66.9519C175.731 66.5355 175.48 66.1523 175.171 65.8179V65.8179Z" fill="#263238"/>
<path d="M170.008 68.4854C170.115 68.9232 170.295 69.3399 170.54 69.7182C170.718 70.1292 170.967 70.5058 171.275 70.8308C171.171 70.3925 170.992 69.9755 170.746 69.5979C170.569 69.1855 170.319 68.8085 170.008 68.4854V68.4854Z" fill="#263238"/>
<path d="M164.848 71.1533C164.998 71.5757 165.219 71.9694 165.501 72.3175C165.722 72.711 166.013 73.0605 166.36 73.3484C166.211 72.9245 165.99 72.5292 165.708 72.18C165.485 71.7893 165.194 71.4416 164.848 71.1533V71.1533Z" fill="#263238"/>
<path d="M159.771 73.9409C159.916 74.3668 160.137 74.7628 160.424 75.1094C160.65 75.4994 160.94 75.848 161.283 76.1403C161.138 75.7144 160.917 75.3185 160.63 74.9719C160.404 74.5819 160.114 74.2332 159.771 73.9409V73.9409Z" fill="#263238"/>
<path d="M154.47 76.6602C154.596 77.1046 154.796 77.5245 155.063 77.9016C155.262 78.3155 155.529 78.693 155.853 79.0185C155.534 78.1572 155.066 77.3589 154.47 76.6602V76.6602Z" fill="#263238"/>
<path d="M148.967 79.5254C149.069 79.9464 149.246 80.3453 149.491 80.7024C149.67 81.0965 149.917 81.4557 150.222 81.7635C150.118 81.3412 149.939 80.941 149.693 80.5821C149.519 80.1879 149.273 79.8296 148.967 79.5254V79.5254Z" fill="#263238"/>
<path d="M173.56 66.66C173.504 66.6944 173.599 66.9865 173.775 67.3216C173.951 67.6566 174.14 67.8929 174.204 67.8628C174.269 67.8328 174.166 67.5364 173.99 67.2056C173.814 66.8748 173.616 66.6386 173.56 66.66Z" fill="#263238"/>
<path d="M171.872 67.4976C171.812 67.5276 171.911 67.824 172.087 68.1548C172.263 68.4856 172.448 68.7304 172.516 68.7004C172.585 68.6703 172.473 68.3739 172.302 68.0388C172.13 67.7038 171.928 67.4718 171.872 67.4976Z" fill="#263238"/>
<path d="M168.104 69.4952C168.049 69.5295 168.143 69.8217 168.319 70.1567C168.495 70.4918 168.684 70.7323 168.749 70.698C168.813 70.6636 168.71 70.3715 168.534 70.0407C168.358 69.71 168.16 69.4651 168.104 69.4952Z" fill="#263238"/>
<path d="M166.412 70.3414C166.356 70.3715 166.451 70.6679 166.627 70.9987C166.803 71.3295 166.992 71.5743 167.056 71.5442C167.121 71.5142 167.018 71.2178 166.842 70.8827C166.666 70.5476 166.472 70.3114 166.412 70.3414Z" fill="#263238"/>
<path d="M163.005 72.2485C162.945 72.2786 163.044 72.575 163.22 72.9058C163.396 73.2365 163.581 73.4814 163.65 73.4513C163.718 73.4213 163.611 73.1249 163.435 72.7898C163.259 72.4547 163.061 72.2228 163.005 72.2485Z" fill="#263238"/>
<path d="M161.39 73.082C161.33 73.1121 161.429 73.4085 161.605 73.7393C161.781 74.07 161.966 74.3149 162.035 74.2848C162.103 74.2548 161.996 73.9541 161.82 73.6233C161.644 73.2925 161.446 73.082 161.39 73.082Z" fill="#263238"/>
<path d="M157.907 74.9034C157.851 74.9377 157.945 75.2298 158.121 75.5649C158.297 75.9 158.482 76.1362 158.551 76.1062C158.62 76.0761 158.512 75.7797 158.336 75.4489C158.16 75.1182 157.962 74.8733 157.907 74.9034Z" fill="#263238"/>
<path d="M156.033 75.8956C155.977 75.9299 156.072 76.222 156.248 76.5571C156.424 76.8922 156.613 77.1327 156.678 77.0984C156.742 77.064 156.639 76.7719 156.463 76.4411C156.287 76.1104 156.089 75.8655 156.033 75.8956Z" fill="#263238"/>
<path d="M152.666 77.6696C152.61 77.6996 152.704 77.996 152.88 78.3268C153.056 78.6576 153.245 78.9024 153.31 78.8724C153.374 78.8423 153.271 78.5459 153.095 78.2108C152.919 77.8758 152.726 77.6395 152.666 77.6696Z" fill="#263238"/>
<path d="M150.724 78.6666C150.668 78.7009 150.763 78.9973 150.939 79.3281C151.115 79.6589 151.304 79.9037 151.368 79.8694C151.433 79.835 151.33 79.5429 151.154 79.2121C150.977 78.8813 150.78 78.6365 150.724 78.6666Z" fill="#263238"/>
<path d="M120.951 36.0702C120.951 36.0702 120.951 36.0444 120.951 35.9971C120.951 35.9499 120.951 35.8726 120.951 35.7824C120.951 35.5933 120.951 35.3184 120.951 34.9619C120.951 34.2402 120.951 33.192 120.951 31.8604C120.951 29.197 120.972 25.4168 120.985 20.8462L120.92 20.9063H136.144L136.076 20.8333C136.076 26.4177 136.076 31.6327 136.076 36.0573L136.136 35.9928L125.122 36.0272H122.02H121.994H125.079L136.136 36.0573H136.243V35.9928C136.243 31.5683 136.243 26.3447 136.243 20.7688V20.6958H136.17H120.946H120.886V20.7602C120.886 25.3309 120.908 29.1412 120.916 31.8174C120.916 33.1405 120.916 34.1843 120.916 34.9017C120.916 35.254 120.916 35.5203 120.916 35.7093V35.9843L120.951 36.0702Z" fill="#0068AD"/>
<path d="M120.951 36.0699C120.914 36.0401 120.875 36.0128 120.835 35.9883L120.487 35.7649L119.138 34.9058L114.18 31.8429L114.206 31.8902C114.206 27.9166 114.206 22.6544 114.206 16.8938L114.138 16.9669H114.176H129.185H129.16L134.284 19.8149L135.685 20.5967L136.05 20.7943L136.175 20.8588C136.137 20.8311 136.099 20.8053 136.059 20.7815L135.698 20.5667L134.315 19.7634L129.228 16.8423H114.219H114.107V16.9153C114.107 22.6759 114.107 27.9381 114.107 31.9117V31.9417H114.133L119.116 34.9874L120.478 35.8122L120.835 36.0227L120.951 36.0699Z" fill="#0068AD"/>
<path d="M114.155 16.877C114.133 16.9113 115.637 17.8263 117.514 18.9217C119.391 20.0171 120.951 20.8806 120.951 20.8462C120.951 20.8119 119.469 19.8969 117.587 18.7972C115.706 17.6975 114.172 16.8426 114.155 16.877Z" fill="#0068AD"/>
<path d="M135.453 35.4428C135.453 35.4772 135.582 35.6018 135.779 35.7135C135.977 35.8251 136.157 35.8939 136.174 35.8595C136.192 35.8251 136.05 35.7049 135.852 35.5889C135.655 35.4729 135.474 35.4085 135.453 35.4428Z" fill="#0068AD"/>
<path d="M134.009 34.6137C133.988 34.6481 134.134 34.7727 134.336 34.8844C134.538 34.996 134.714 35.0648 134.731 35.0304C134.748 34.996 134.607 34.8758 134.405 34.7598C134.203 34.6438 134.031 34.5794 134.009 34.6137Z" fill="#0068AD"/>
<path d="M132.566 33.7846C132.545 33.819 132.691 33.9436 132.888 34.0553C133.086 34.1669 133.266 34.2357 133.288 34.2013C133.309 34.1669 133.163 34.0467 132.961 33.9307C132.759 33.8147 132.583 33.7503 132.566 33.7846Z" fill="#0068AD"/>
<path d="M131.118 32.9555C131.118 32.9899 131.247 33.1102 131.445 33.2262C131.642 33.3421 131.823 33.4066 131.844 33.3722C131.866 33.3378 131.715 33.2176 131.518 33.1016C131.32 32.9856 131.14 32.9212 131.118 32.9555Z" fill="#0068AD"/>
<path d="M129.675 32.1269C129.675 32.1613 129.8 32.2816 130.001 32.3975C130.203 32.5135 130.379 32.578 130.397 32.5436C130.414 32.5092 130.272 32.3889 130.074 32.273C129.877 32.157 129.696 32.0925 129.675 32.1269Z" fill="#0068AD"/>
<path d="M129.31 30.6705C129.271 30.6705 129.241 30.8552 129.241 31.1001C129.241 31.3449 129.276 31.5296 129.319 31.5296C129.362 31.5296 129.387 31.3449 129.387 31.1001C129.387 30.8552 129.349 30.6662 129.31 30.6705Z" fill="#0068AD"/>
<path d="M129.297 29.0034C129.258 29.0034 129.224 29.1881 129.228 29.433C129.233 29.6778 129.263 29.8626 129.301 29.8626C129.34 29.8626 129.374 29.6735 129.374 29.433C129.374 29.1924 129.336 29.0034 129.297 29.0034Z" fill="#0068AD"/>
<path d="M129.284 27.3369C129.245 27.3369 129.211 27.5259 129.215 27.7665C129.22 28.007 129.25 28.1961 129.288 28.1961C129.327 28.1961 129.361 28.007 129.361 27.7665C129.361 27.5259 129.323 27.3369 129.284 27.3369Z" fill="#0068AD"/>
<path d="M129.271 25.6699C129.233 25.6699 129.198 25.8589 129.203 26.0995C129.207 26.3401 129.237 26.5291 129.276 26.5291C129.314 26.5291 129.349 26.3443 129.344 26.0995C129.34 25.8546 129.31 25.6699 129.271 25.6699Z" fill="#0068AD"/>
<path d="M129.259 24.0078C129.22 24.0078 129.186 24.1925 129.19 24.4374C129.194 24.6822 129.224 24.867 129.263 24.867C129.302 24.867 129.336 24.6822 129.332 24.4374C129.327 24.1925 129.297 24.0078 129.259 24.0078Z" fill="#0068AD"/>
<path d="M129.245 22.3408C129.202 22.3408 129.172 22.5255 129.177 22.7704C129.181 23.0152 129.211 23.2 129.25 23.2C129.288 23.2 129.323 23.011 129.318 22.7704C129.314 22.5298 129.284 22.3408 129.245 22.3408Z" fill="#0068AD"/>
<path d="M129.232 20.6743C129.189 20.6743 129.159 20.8633 129.164 21.1039C129.168 21.3444 129.198 21.5335 129.237 21.5335C129.275 21.5335 129.31 21.3444 129.305 21.1039C129.301 20.8633 129.271 20.6743 129.232 20.6743Z" fill="#0068AD"/>
<path d="M129.22 19.0073C129.177 19.0073 129.147 19.1963 129.151 19.4369C129.155 19.6775 129.185 19.8665 129.224 19.8665C129.263 19.8665 129.297 19.6818 129.293 19.4369C129.288 19.192 129.258 19.0073 129.22 19.0073Z" fill="#0068AD"/>
<path d="M129.207 17.3452C129.164 17.3452 129.134 17.5299 129.138 17.7748C129.142 18.0196 129.172 18.2044 129.211 18.2044C129.25 18.2044 129.284 18.0196 129.28 17.7748C129.275 17.5299 129.245 17.3452 129.207 17.3452Z" fill="#0068AD"/>
<path d="M114.984 31.8774C114.984 31.8431 114.799 31.813 114.554 31.813C114.309 31.813 114.124 31.8431 114.124 31.8774C114.124 31.9118 114.309 31.9462 114.554 31.9462C114.799 31.9462 114.984 31.9161 114.984 31.8774Z" fill="#0068AD"/>
<path d="M116.651 31.8774C116.651 31.8431 116.466 31.813 116.221 31.813C115.976 31.813 115.791 31.8431 115.791 31.8774C115.791 31.9118 115.98 31.9462 116.221 31.9462C116.462 31.9462 116.651 31.9161 116.651 31.8774Z" fill="#0068AD"/>
<path d="M118.317 31.8774C118.317 31.8431 118.132 31.813 117.887 31.813C117.643 31.813 117.458 31.8431 117.458 31.8774C117.458 31.9118 117.643 31.9462 117.887 31.9462C118.132 31.9462 118.317 31.9161 118.317 31.8774Z" fill="#0068AD"/>
<path d="M119.984 31.8774C119.984 31.8431 119.795 31.813 119.554 31.813C119.314 31.813 119.125 31.8431 119.125 31.8774C119.125 31.9118 119.309 31.9462 119.554 31.9462C119.799 31.9462 119.984 31.9161 119.984 31.8774Z" fill="#0068AD"/>
<path d="M121.638 31.8774C121.638 31.8431 121.453 31.813 121.208 31.813C120.964 31.813 120.779 31.8431 120.779 31.8774C120.779 31.9118 120.964 31.9462 121.208 31.9462C121.453 31.9462 121.638 31.9161 121.638 31.8774Z" fill="#0068AD"/>
<path d="M123.313 31.8774C123.313 31.8431 123.128 31.813 122.883 31.813C122.639 31.813 122.454 31.8431 122.454 31.8774C122.454 31.9118 122.643 31.9462 122.883 31.9462C123.124 31.9462 123.313 31.9161 123.313 31.8774Z" fill="#0068AD"/>
<path d="M124.98 31.8774C124.98 31.8431 124.795 31.813 124.55 31.813C124.305 31.813 124.121 31.8431 124.121 31.8774C124.121 31.9118 124.305 31.9462 124.55 31.9462C124.795 31.9462 124.98 31.9161 124.98 31.8774Z" fill="#0068AD"/>
<path d="M126.646 31.8774C126.646 31.8431 126.457 31.813 126.217 31.813C125.976 31.813 125.787 31.8431 125.787 31.8774C125.787 31.9118 125.972 31.9462 126.217 31.9462C126.462 31.9462 126.646 31.9161 126.646 31.8774Z" fill="#0068AD"/>
<path d="M128.309 31.8774C128.309 31.8431 128.124 31.813 127.879 31.813C127.634 31.813 127.45 31.8431 127.45 31.8774C127.45 31.9118 127.634 31.9462 127.879 31.9462C128.124 31.9462 128.309 31.9161 128.309 31.8774Z" fill="#0068AD"/>
<path d="M129.318 31.8774C129.318 31.8431 129.279 31.813 129.232 31.813C129.185 31.813 129.142 31.8431 129.142 31.8774C129.142 31.9118 129.181 31.9462 129.232 31.9462C129.242 31.9473 129.253 31.9465 129.263 31.9437C129.272 31.9409 129.282 31.9361 129.29 31.9297C129.298 31.9233 129.304 31.9154 129.309 31.9064C129.314 31.8975 129.317 31.8876 129.318 31.8774V31.8774Z" fill="#0068AD"/>
<path d="M112.312 26.8044C112.185 26.8168 112.056 26.8168 111.929 26.8044C111.762 26.7675 111.605 26.6951 111.469 26.592C111.333 26.489 111.22 26.3578 111.139 26.2073C111.032 25.9797 110.98 25.7299 110.987 25.4784C110.994 25.2268 111.061 24.9805 111.182 24.7597C111.21 24.6989 111.252 24.6456 111.304 24.6038C111.356 24.5621 111.417 24.533 111.483 24.5191C111.62 24.5019 111.759 24.5389 111.869 24.6222C112.098 24.8447 112.266 25.123 112.355 25.4298C112.475 25.763 112.547 26.1116 112.569 26.4651H112.711C112.711 25.3611 112.733 24.3988 112.733 23.7115C112.733 23.3893 112.733 23.1187 112.733 22.9039C112.744 22.8069 112.744 22.7088 112.733 22.6118C112.713 22.7079 112.703 22.8058 112.703 22.9039C112.703 23.1187 112.703 23.3893 112.668 23.7115C112.642 24.3988 112.617 25.3611 112.595 26.4651H112.737C112.714 26.0983 112.639 25.7367 112.514 25.3911C112.454 25.2296 112.386 25.0718 112.307 24.9186C112.23 24.7629 112.118 24.6264 111.981 24.5191C111.911 24.4656 111.83 24.4267 111.745 24.4046C111.659 24.3825 111.57 24.3776 111.483 24.3902C111.399 24.4103 111.322 24.4485 111.255 24.5019C111.188 24.5554 111.134 24.6228 111.096 24.6995C110.969 24.9413 110.902 25.2103 110.902 25.4835C110.902 25.7567 110.969 26.0257 111.096 26.2675C111.185 26.4255 111.308 26.5613 111.457 26.6647C111.606 26.7681 111.776 26.8365 111.955 26.8646C112.052 26.8804 112.151 26.8804 112.247 26.8646C112.272 26.8482 112.294 26.8279 112.312 26.8044V26.8044Z" fill="#0068AD"/>
<path d="M154.534 98.0961C154.534 98.0961 154.474 98.0961 154.358 98.1477C154.242 98.1992 154.07 98.2379 153.851 98.3281C153.21 98.5812 152.596 98.9008 152.021 99.2817C151.105 99.8844 150.293 100.631 149.616 101.494C148.707 102.634 148.09 103.979 147.82 105.412C147.513 107.158 147.745 108.956 148.486 110.567C148.893 111.464 149.461 112.279 150.161 112.972C150.528 113.335 150.929 113.66 151.36 113.943C151.587 114.072 151.789 114.209 152.047 114.33C152.305 114.45 152.52 114.566 152.773 114.656C154.775 115.451 157.069 115.485 159.371 115.266C160.522 115.154 161.682 114.987 162.864 114.802C164.063 114.63 165.246 114.356 166.399 113.982C167.565 113.611 168.642 113.006 169.565 112.203C170.007 111.798 170.397 111.339 170.725 110.837C171.036 110.335 171.285 109.797 171.468 109.235C171.814 108.141 171.93 106.987 171.807 105.846C171.686 104.757 171.369 103.698 170.871 102.723C169.89 100.939 168.408 99.482 166.61 98.53C165.059 97.6931 163.366 97.154 161.618 96.9406C160.18 96.7701 158.728 96.76 157.288 96.9105C156.203 97.0256 155.126 97.202 154.062 97.4389C153.203 97.6365 152.515 97.8169 152.06 97.9415L151.544 98.0918L151.368 98.1519L151.549 98.109L152.069 97.9758C152.524 97.8598 153.198 97.688 154.075 97.5033C155.14 97.2779 156.217 97.113 157.301 97.0093C158.73 96.8653 160.171 96.8826 161.596 97.0608C163.326 97.282 165 97.8224 166.532 98.6545C168.301 99.5983 169.757 101.037 170.721 102.796C171.207 103.757 171.514 104.8 171.627 105.871C171.744 106.989 171.63 108.12 171.292 109.192C171.116 109.741 170.874 110.266 170.57 110.756C170.253 111.245 169.875 111.693 169.445 112.087C168.538 112.872 167.481 113.466 166.339 113.831C165.193 114.202 164.017 114.473 162.825 114.643C161.652 114.828 160.488 114.995 159.345 115.107C157.069 115.326 154.788 115.296 152.82 114.514C150.944 113.79 149.43 112.354 148.606 110.519C147.873 108.934 147.636 107.164 147.927 105.442C148.193 104.03 148.796 102.704 149.684 101.576C150.35 100.718 151.147 99.9709 152.047 99.3633C152.617 98.9798 153.223 98.6518 153.856 98.3839C154.075 98.2937 154.242 98.2379 154.358 98.1906L154.534 98.0961Z" fill="#263238"/>
<path d="M166.004 109.196C166.118 109.225 166.235 109.24 166.352 109.239L167.31 109.286H167.628C167.749 109.303 167.872 109.303 167.993 109.286C168.07 109.262 168.134 109.21 168.173 109.14C168.206 109.076 168.225 109.006 168.229 108.934L168.255 108.543C168.285 108.002 168.319 107.418 168.354 106.825C168.388 106.232 168.427 105.626 168.431 105.081C168.438 104.813 168.376 104.548 168.251 104.312C168.126 104.116 167.943 103.966 167.727 103.882C167.417 103.774 167.086 103.738 166.76 103.775C166.641 103.778 166.524 103.8 166.412 103.839C166.529 103.849 166.647 103.849 166.764 103.839C167.076 103.826 167.388 103.877 167.679 103.99C167.863 104.075 168.014 104.218 168.109 104.398C168.216 104.613 168.268 104.853 168.259 105.094C168.259 105.618 168.195 106.215 168.169 106.812C168.143 107.409 168.109 108.01 168.079 108.53C168.053 108.784 168.109 109.102 167.933 109.144C167.826 109.16 167.717 109.16 167.611 109.144H166.322C166.214 109.148 166.107 109.165 166.004 109.196V109.196Z" fill="#263238"/>
<path d="M166.485 106.383C166.774 106.471 167.077 106.506 167.378 106.486C167.679 106.518 167.984 106.495 168.276 106.417C167.988 106.327 167.684 106.292 167.383 106.314C167.082 106.281 166.777 106.304 166.485 106.383V106.383Z" fill="#263238"/>
<path d="M162.017 105.584C162.468 105.647 162.924 105.67 163.379 105.652C163.831 105.688 164.285 105.688 164.737 105.652C164.299 105.514 163.842 105.452 163.383 105.468C162.925 105.432 162.463 105.471 162.017 105.584Z" fill="#263238"/>
<path d="M161.751 107.637C162.193 107.738 162.648 107.77 163.1 107.731C163.551 107.749 164.002 107.695 164.436 107.572C163.99 107.529 163.542 107.529 163.096 107.572C162.647 107.553 162.197 107.575 161.751 107.637Z" fill="#263238"/>
<path d="M154.53 108.869C154.53 108.869 154.53 108.685 154.53 108.345C154.551 107.866 154.638 107.392 154.788 106.936C154.857 106.617 155.033 106.33 155.286 106.124C155.359 106.084 155.442 106.065 155.525 106.07C155.608 106.075 155.688 106.105 155.755 106.155C155.906 106.267 156.028 106.414 156.111 106.584C156.455 107.429 156.602 108.341 156.541 109.252H156.708C156.659 108.594 156.668 107.932 156.734 107.276C156.758 107.009 156.795 106.744 156.846 106.481C156.888 106.238 157.016 106.019 157.207 105.862C157.298 105.797 157.408 105.761 157.52 105.761C157.633 105.761 157.742 105.797 157.834 105.862C158.027 105.989 158.167 106.181 158.229 106.404C158.29 106.627 158.331 106.856 158.349 107.087C158.375 107.314 158.396 107.538 158.405 107.757C158.429 108.165 158.429 108.573 158.405 108.981H158.538C158.573 108.015 158.603 107.224 158.624 106.644C158.624 106.387 158.624 106.176 158.624 106.008C158.633 105.934 158.633 105.859 158.624 105.785C158.607 105.858 158.597 105.933 158.594 106.008L158.543 106.644C158.508 107.22 158.457 108.01 158.396 108.973H158.53C158.552 108.56 158.552 108.147 158.53 107.735C158.53 107.516 158.504 107.306 158.478 107.057C158.461 106.815 158.419 106.576 158.354 106.344C158.283 106.084 158.121 105.858 157.898 105.708C157.77 105.627 157.62 105.585 157.469 105.588C157.314 105.588 157.164 105.638 157.039 105.729C156.814 105.909 156.662 106.164 156.609 106.447C156.555 106.716 156.515 106.989 156.489 107.263C156.431 107.93 156.431 108.601 156.489 109.269H156.657C156.713 108.335 156.552 107.401 156.184 106.541C156.086 106.343 155.938 106.174 155.755 106.051C155.667 105.988 155.562 105.952 155.454 105.946C155.346 105.941 155.238 105.967 155.145 106.021C154.867 106.246 154.677 106.56 154.608 106.911C154.466 107.379 154.393 107.865 154.393 108.354C154.393 108.526 154.393 108.659 154.414 108.745C154.446 108.792 154.485 108.834 154.53 108.869V108.869Z" fill="#263238"/>
<path d="M150.767 108.599C150.767 108.599 150.827 108.672 150.973 108.745C151.181 108.846 151.408 108.902 151.639 108.908C151.988 108.919 152.332 108.825 152.627 108.638C152.989 108.398 153.246 108.031 153.348 107.61C153.45 107.188 153.389 106.744 153.177 106.365C152.999 106.065 152.736 105.824 152.421 105.674C152.213 105.574 151.986 105.519 151.755 105.515C151.67 105.509 151.586 105.52 151.506 105.549C151.804 105.574 152.095 105.653 152.365 105.781C152.646 105.935 152.878 106.164 153.035 106.443C153.215 106.789 153.264 107.189 153.172 107.569C153.081 107.949 152.855 108.283 152.537 108.509C152.269 108.686 151.956 108.783 151.635 108.788C151.336 108.781 151.042 108.717 150.767 108.599V108.599Z" fill="#263238"/>
<path d="M149.753 103.732C150.401 103.771 151.042 103.882 151.665 104.063L151.953 104.157L151.738 103.938C151.324 103.561 150.966 103.127 150.673 102.649C150.444 102.25 150.364 101.783 150.449 101.331C150.496 101.129 150.617 100.97 150.78 100.965C150.95 100.968 151.116 101.013 151.265 101.094C151.493 101.212 151.695 101.374 151.858 101.571C151.974 101.713 152.021 101.807 152.034 101.799C152.017 101.701 151.974 101.609 151.91 101.533C151.762 101.306 151.559 101.12 151.321 100.991C151.156 100.888 150.966 100.83 150.771 100.824C150.711 100.826 150.653 100.84 150.599 100.866C150.545 100.892 150.497 100.929 150.458 100.974C150.381 101.065 150.326 101.172 150.299 101.288C150.193 101.78 150.272 102.294 150.522 102.731C150.821 103.229 151.197 103.677 151.635 104.058L151.708 103.93C151.25 103.792 150.776 103.717 150.299 103.706C150.117 103.682 149.932 103.691 149.753 103.732Z" fill="#263238"/>
<path d="M120.984 98.6498L111.83 96.8843L94.2694 100.914L85.3687 102.769L85.2398 114.931L105.095 118.586L118.493 114.617L123.558 107.164L120.984 98.6498Z" fill="#FFBE9D"/>
<path d="M127.488 99.8614L118.849 97.8252C118.849 97.8252 112.741 116.726 97.667 115.897C85.3812 115.231 85.3683 102.77 85.3683 102.77L76.386 104.355C76.386 104.355 72.6186 127.161 76.7468 143.158C80.1834 156.475 83.2334 174.723 83.2334 174.723H142.905L127.488 99.8614V99.8614Z" fill="#0068AD"/>
<path d="M39.954 158.296C39.954 158.296 64.5641 115.18 68.993 109.647C73.8429 103.59 77.7133 104.29 77.7133 104.29L80.3165 133.334L59.3921 163.021L54.4048 164.821L39.954 158.296Z" fill="#0068AD"/>
<path d="M126.457 99.6206C126.457 99.6206 140.444 100.737 145.461 123.677C147.729 134.042 150.616 146.19 151.424 154.352C152.025 160.276 148.369 166.436 142.463 167.192L135.048 168.567C133.09 168.93 131.066 168.529 129.394 167.445C127.722 166.362 126.53 164.678 126.062 162.742L123.557 152.372L130.229 150.13L128.686 119.239L126.457 99.6206Z" fill="#0068AD"/>
<path d="M75.2435 120.386C75.2107 120.49 75.1891 120.596 75.179 120.704C75.1404 120.936 75.0974 121.245 75.0373 121.628C75.0072 121.83 74.9772 122.057 74.9385 122.298C74.8998 122.538 74.8869 122.809 74.8612 123.097C74.801 123.668 74.7323 124.321 74.7022 125.047C74.5985 126.745 74.5871 128.447 74.6679 130.146C74.7682 132.226 74.9747 134.299 75.2864 136.358C75.6086 138.549 76.0124 140.619 76.4205 142.492C76.8286 144.365 77.2367 146.045 77.5847 147.454C77.9326 148.863 78.2376 149.992 78.4438 150.774C78.5469 151.148 78.6285 151.449 78.6929 151.672C78.7189 151.777 78.7519 151.88 78.7917 151.981C78.783 151.874 78.7643 151.767 78.7359 151.663C78.6844 151.431 78.6113 151.131 78.5254 150.753L77.735 147.398C77.4042 145.984 77.009 144.305 76.6181 142.432C76.2272 140.559 75.8234 138.493 75.5012 136.306C75.179 134.12 74.96 132.01 74.8698 130.116C74.7795 128.222 74.771 126.482 74.8698 125.038C74.8698 124.317 74.9471 123.664 74.9943 123.088C75.0158 122.805 75.0373 122.538 75.0545 122.289C75.0717 122.04 75.1103 121.825 75.1318 121.619C75.1747 121.237 75.2048 120.927 75.2306 120.696C75.2418 120.593 75.2461 120.489 75.2435 120.386V120.386Z" fill="#263238"/>
<path d="M122.905 153.48C122.934 153.419 122.959 153.356 122.978 153.291C123.021 153.149 123.081 152.969 123.154 152.737L123.429 151.848C123.506 151.443 123.677 151.062 123.927 150.735C124.295 150.382 124.735 150.113 125.216 149.945C125.782 149.731 126.365 149.567 126.96 149.455C128.377 149.192 129.814 149.049 131.256 149.026H131.372V148.914L130.109 140.679C129.297 135.494 128.558 130.799 128.021 127.362C127.742 125.678 127.518 124.308 127.359 123.337C127.282 122.878 127.218 122.512 127.17 122.242C127.17 122.13 127.132 122.036 127.115 121.958C127.111 121.926 127.103 121.894 127.089 121.864C127.082 121.896 127.082 121.93 127.089 121.963C127.089 122.04 127.089 122.134 127.123 122.25C127.157 122.521 127.209 122.886 127.269 123.35C127.411 124.325 127.613 125.7 127.858 127.388C128.382 130.825 129.095 135.511 129.885 140.705C130.349 143.669 130.783 146.474 131.174 148.935L131.273 148.819C129.814 148.857 128.361 149.019 126.93 149.305C126.327 149.425 125.736 149.599 125.164 149.825C124.663 150.008 124.21 150.302 123.837 150.684C123.683 150.856 123.569 151.06 123.502 151.281L123.343 151.852C123.244 152.2 123.162 152.501 123.094 152.75C123.025 152.999 122.982 153.18 122.948 153.313C122.928 153.367 122.914 153.423 122.905 153.48V153.48Z" fill="#263238"/>
<path d="M142.171 156.986C142.157 156.79 142.119 156.597 142.059 156.41C141.924 155.892 141.743 155.388 141.518 154.902C140.785 153.28 139.643 151.876 138.204 150.828C136.765 149.781 135.078 149.125 133.308 148.927C132.778 148.862 132.244 148.845 131.71 148.875C131.514 148.878 131.318 148.902 131.126 148.948C131.844 148.953 132.561 148.997 133.274 149.082C135.003 149.32 136.646 149.982 138.057 151.009C139.468 152.036 140.604 153.395 141.363 154.967C141.668 155.625 141.938 156.299 142.171 156.986V156.986Z" fill="#263238"/>
<path d="M138.936 145.568C138.827 145.54 138.714 145.53 138.601 145.538C138.293 145.532 137.984 145.546 137.677 145.581C136.663 145.683 135.669 145.932 134.726 146.32C133.784 146.71 132.901 147.232 132.106 147.87C131.865 148.061 131.637 148.268 131.423 148.489C131.272 148.648 131.191 148.738 131.204 148.751C131.217 148.764 131.582 148.45 132.2 147.995C133.822 146.806 135.71 146.031 137.699 145.735C138.459 145.624 138.936 145.606 138.936 145.568Z" fill="#263238"/>
<path d="M124.459 115.897C124.488 115.694 124.498 115.488 124.49 115.283C124.49 114.888 124.515 114.321 124.567 113.62C124.696 111.793 125.01 109.984 125.503 108.221C126.004 106.46 126.679 104.753 127.518 103.126C127.844 102.503 128.119 102.005 128.321 101.67C128.434 101.498 128.532 101.317 128.613 101.128C128.476 101.281 128.354 101.447 128.248 101.622C128.021 101.949 127.724 102.434 127.389 103.053C125.601 106.297 124.587 109.911 124.425 113.612C124.395 114.316 124.399 114.9 124.425 115.283C124.416 115.488 124.428 115.694 124.459 115.897V115.897Z" fill="#263238"/>
<g opacity="0.3">
<path opacity="0.3" d="M75.8794 139.626C72.314 133.582 72.2367 125.73 75.351 119.437C74.3494 126.141 74.5648 132.972 75.9868 139.601" fill="black"/>
</g>
<g opacity="0.3">
<path opacity="0.3" d="M107.625 146.461C110.331 147.256 114.068 147.449 116.719 146.461C114.653 149.395 110.67 150.456 107.217 149.503C103.763 148.549 100.575 145.091 100.309 141.513C101.98 143.772 104.914 145.68 107.625 146.461Z" fill="black"/>
</g>
<path d="M97.6673 136.701C97.6798 136.784 97.7014 136.864 97.7317 136.942C97.7833 137.097 97.8434 137.333 97.9637 137.616C98.2769 138.437 98.6666 139.227 99.1278 139.975C99.8079 141.09 100.629 142.112 101.572 143.016C103.885 145.267 106.87 146.7 110.073 147.097C111.368 147.265 112.679 147.265 113.974 147.097C114.848 146.988 115.711 146.8 116.551 146.534C116.852 146.444 117.071 146.345 117.226 146.289C117.304 146.263 117.38 146.23 117.453 146.191C117.141 146.261 116.833 146.347 116.53 146.448C112.893 147.46 109.014 147.138 105.593 145.542C102.206 143.877 99.5306 141.051 98.0539 137.578C97.8048 137.019 97.6888 136.693 97.6673 136.701Z" fill="#263238"/>
<path d="M127.84 166.775C127.84 166.775 127.87 166.823 127.948 166.891C128.056 166.999 128.172 167.098 128.296 167.188C128.745 167.523 129.243 167.787 129.773 167.97C130.561 168.232 131.383 168.376 132.213 168.399C133.217 168.431 134.222 168.395 135.22 168.292C137.368 168.107 139.276 167.793 140.654 167.549C141.346 167.424 141.904 167.317 142.287 167.235C142.49 167.207 142.691 167.159 142.884 167.089C142.679 167.092 142.475 167.112 142.274 167.149L140.629 167.39C139.245 167.6 137.33 167.884 135.199 168.068C134.2 168.172 133.196 168.213 132.192 168.193C131.379 168.176 130.572 168.046 129.795 167.806C129.095 167.563 128.436 167.215 127.84 166.775V166.775Z" fill="#263238"/>
<path d="M79.3244 53.751L77.5588 52.0327C75.2091 53.0551 74.1223 55.7829 73.7227 58.3173C73.3232 60.8518 73.3834 63.5152 72.3052 65.8434C71.4804 67.6348 69.9812 69.28 70.1573 71.2603C70.3248 73.129 72.0174 74.6411 72.0259 76.5183C72.0259 78.3268 70.5224 79.7143 69.6461 81.2951C67.872 84.4954 66.7207 97.5888 67.6486 101.133C75.4539 100.458 89.2775 99.6249 97.0872 97.8293C95.0295 84.3752 86.365 65.3881 79.3244 53.751Z" fill="#263238"/>
<path d="M75.8319 65.7446C75.2907 56.599 81.9318 48.2309 91.1891 47.1269C101.013 45.9585 109.704 52.9949 110.52 62.5657L112.822 101.201C112.864 101.948 112.656 102.687 112.23 103.302C109.961 106.618 105.855 109.213 102.182 109.724C98.6293 110.218 95.0252 109.295 92.001 107.611C91.4993 107.327 91.081 106.917 90.7877 106.421C90.4944 105.925 90.3366 105.36 90.33 104.784L90.171 96.1368C90.1717 96.1293 90.1707 96.1217 90.1681 96.1146C90.1655 96.1076 90.1614 96.1011 90.1561 96.0958C90.1508 96.0905 90.1444 96.0864 90.1373 96.0838C90.1302 96.0812 90.1227 96.0803 90.1152 96.0809C89.3059 96.1419 88.4926 96.1189 87.6881 96.0122C85.4028 95.4537 79.5735 93.2114 77.6146 84.6543C76.9617 81.8191 76.3087 73.7647 75.8319 65.7446Z" fill="#FFBE9D"/>
<path d="M88.5391 78.3784C88.5391 78.2924 87.5811 78.1979 86.0304 78.112C85.6394 78.112 85.2657 78.0476 85.1712 77.7898C85.1136 77.3958 85.1796 76.9935 85.3602 76.6386L86.3225 73.6316C87.6541 69.3702 88.5906 65.8778 88.4188 65.8306C88.247 65.7833 87.0227 69.1898 85.691 73.4512C85.3731 74.5036 85.0681 75.5045 84.776 76.4582C84.6557 76.8877 84.4367 77.4118 84.6729 77.9746C84.7387 78.1057 84.8337 78.22 84.9506 78.3087C85.0675 78.3973 85.2033 78.4579 85.3473 78.4857C85.5664 78.5294 85.7901 78.5452 86.0132 78.533C87.5768 78.5244 88.5348 78.4643 88.5391 78.3784Z" fill="#263238"/>
<path d="M78.3576 68.9792C78.5251 69.1639 79.5389 68.3134 80.9908 68.2704C82.4428 68.2274 83.5253 68.9878 83.68 68.7902C83.7573 68.7 83.5812 68.3606 83.1086 68.0084C82.4843 67.5597 81.7292 67.3301 80.9608 67.3554C80.1933 67.3819 79.4568 67.6647 78.8688 68.1587C78.4177 68.5453 78.2502 68.8976 78.3576 68.9792Z" fill="#263238"/>
<path d="M93.1095 69.3486C93.3071 69.5334 94.3638 68.5754 95.9489 68.4379C97.5341 68.3005 98.7669 69.0265 98.9259 68.8117C99.0032 68.7129 98.7884 68.3821 98.2514 68.0299C97.5319 67.6035 96.6955 67.417 95.863 67.4972C95.0298 67.5711 94.2429 67.9132 93.6207 68.4723C93.1524 68.889 93.015 69.267 93.1095 69.3486Z" fill="#263238"/>
<path d="M90.171 96.0766C90.171 96.0766 96.0905 96.1411 103.17 91.2783C103.17 91.2783 101.34 99.0879 90.2182 98.8431L90.171 96.0766Z" fill="#EB996E"/>
<path d="M89.4196 81.944C89.6892 81.5637 90.0499 81.2571 90.4686 81.0522C90.8874 80.8473 91.3508 80.7507 91.8166 80.7713C92.1529 80.7762 92.4848 80.8487 92.7925 80.9845C93.1002 81.1203 93.3775 81.3166 93.6079 81.5617C93.8278 81.7964 93.9689 82.0941 94.0112 82.413C94.0536 82.7319 93.9952 83.0561 93.8441 83.3401C93.4704 83.9372 92.6199 84.1305 91.8767 83.9759C91.1408 83.7745 90.4518 83.43 89.8491 82.9621C89.6702 82.8476 89.5131 82.7021 89.3852 82.5325C89.3248 82.4533 89.2892 82.3579 89.2831 82.2585C89.277 82.1591 89.3006 82.0601 89.3508 81.9741" fill="#EB996E"/>
<path d="M93.0923 79.0957C92.8431 79.0957 92.9419 80.7281 91.6017 81.9824C90.2614 83.2368 88.4873 83.1766 88.4873 83.4043C88.4873 83.5117 88.9169 83.6964 89.6471 83.6621C90.6153 83.6083 91.535 83.2212 92.2503 82.5666C92.9316 81.9436 93.3418 81.0785 93.393 80.1567C93.4145 79.4737 93.204 79.0957 93.0923 79.0957Z" fill="#263238"/>
<path d="M92.8558 63.3605C93.0362 63.7557 94.544 63.4507 96.3439 63.5238C98.1439 63.5968 99.6259 63.9533 99.8407 63.5882C99.9309 63.4035 99.6559 63.0427 99.0417 62.6904C98.2248 62.2649 97.3227 62.0286 96.4022 61.9988C95.4816 61.9691 94.5662 62.1467 93.7236 62.5186C93.1007 62.8279 92.7957 63.1715 92.8558 63.3605Z" fill="#263238"/>
<path d="M78.0443 63.6828C78.3536 64.0265 79.5779 63.6828 81.0513 63.6828C82.5248 63.6828 83.7619 63.9277 84.0583 63.5711C84.1872 63.3993 83.9939 63.0556 83.4526 62.712C82.7033 62.3193 81.8667 62.1228 81.0209 62.1408C80.1751 62.1588 79.3476 62.3908 78.6157 62.8151C78.083 63.163 77.9069 63.5153 78.0443 63.6828Z" fill="#263238"/>
<path d="M89.8488 45.1939C90.6478 43.8364 92.1298 43.2179 93.788 42.9687C100.558 41.942 108.11 46.0187 111.903 51.7148C115.696 57.4109 115.898 65.9121 113.123 72.1667L108.9 69.5291C100.425 66.0324 94.4409 57.8663 88.9897 49.4295C88.2293 48.2825 89.14 46.3752 89.8488 45.1939Z" fill="#263238"/>
<path d="M79.419 48.9181C82.2498 45.6963 84.3075 42.4745 90.184 44.7254C91.0432 46.3707 89.3249 48.5057 87.8472 49.7514C85.6993 51.5814 83.8564 52.8143 82.456 54.1245C79.6295 56.7663 76.4163 65.6542 76.137 70.504C76.137 70.809 75.6001 66.3415 75.2779 66.2942C74.8827 66.2341 73.289 64.2838 73.5081 61.6205C74.2641 52.5179 76.5881 52.1355 79.419 48.9181Z" fill="#263238"/>
<path d="M93.7709 42.9686C93.3295 42.8825 92.8728 42.9211 92.4521 43.0803C91.4122 43.3992 90.4851 44.0088 89.7802 44.8372C89.5789 45.0701 89.4005 45.3218 89.2475 45.589C89.114 45.847 89.0103 46.1194 88.9382 46.4009C88.7849 46.8546 88.6685 47.3201 88.5903 47.7927C88.4743 48.6217 88.6719 49.1243 88.7148 49.1115C88.7578 49.0986 88.6934 48.6046 88.8738 47.8442C88.993 47.3944 89.1364 46.9513 89.3033 46.5168C89.3797 46.2629 89.4804 46.0169 89.604 45.7823C89.7493 45.5361 89.9161 45.3032 90.1023 45.0864C90.7674 44.3158 91.609 43.7175 92.5552 43.3423C93.2855 43.0803 93.7795 43.0373 93.7709 42.9686Z" fill="#455A64"/>
<path d="M79.6984 71.7932C79.6979 72.1227 79.8236 72.4399 80.0497 72.6796C80.2758 72.9193 80.5851 73.0632 80.9141 73.0819C81.0774 73.0972 81.2422 73.0797 81.3987 73.0305C81.5553 72.9813 81.7004 72.9013 81.8256 72.7953C81.9509 72.6893 82.0537 72.5593 82.128 72.4131C82.2024 72.2668 82.2468 72.1072 82.2586 71.9435C82.267 71.6089 82.1448 71.2841 81.9179 71.0379C81.691 70.7918 81.3772 70.6436 81.043 70.6247C80.8771 70.6088 80.7097 70.6269 80.551 70.6777C80.3923 70.7285 80.2457 70.8111 80.1199 70.9204C79.9941 71.0297 79.8919 71.1634 79.8194 71.3135C79.747 71.4635 79.7058 71.6267 79.6984 71.7932V71.7932Z" fill="#263238"/>
<path d="M93.8483 71.8619C93.8399 72.1966 93.9622 72.5213 94.1891 72.7675C94.416 73.0136 94.7297 73.1618 95.064 73.1807C95.2271 73.1966 95.3918 73.1797 95.5483 73.131C95.7048 73.0823 95.85 73.0027 95.9753 72.897C96.1006 72.7914 96.2035 72.6617 96.2779 72.5156C96.3523 72.3696 96.3967 72.2101 96.4085 72.0466C96.418 71.7112 96.2963 71.3854 96.0693 71.1383C95.8423 70.8912 95.5279 70.7424 95.1929 70.7235C95.0294 70.7076 94.8644 70.7247 94.7076 70.7737C94.5508 70.8226 94.4055 70.9026 94.2801 71.0087C94.1548 71.1148 94.052 71.245 93.9778 71.3916C93.9036 71.5381 93.8596 71.698 93.8483 71.8619V71.8619Z" fill="#263238"/>
<path d="M132.784 82.614C131.985 81.2995 131.066 80.0624 129.605 79.5168C128.145 78.9713 126.487 78.6577 125.34 77.5923C123.54 75.9385 123.621 73.1892 123.785 70.7922C123.948 68.3952 123.991 65.6374 122.152 64.0265C120.614 62.6819 118.17 62.5616 116.839 61.0195C115.949 59.9928 115.773 58.5752 115.464 57.265C114.605 53.7554 112.685 47.6254 102.34 44.0986L111.49 78.8682C110.807 79.0615 109.175 80.6165 109.085 81.669C109.003 82.6527 109.428 83.6493 109.437 84.6373C109.437 85.8444 108.123 86.5661 107.289 87.4596C106.232 88.598 105.906 90.2389 106.069 91.7553C106.408 93.8278 106.962 95.8592 107.723 97.8166C116.211 96.9574 128.6 96.6825 135.07 91.2699C136.242 90.2905 134.563 85.5394 132.784 82.614Z" fill="#263238"/>
<path d="M108.883 69.5289C109.042 69.443 115.293 66.9515 115.692 73.5454C116.092 80.1394 109.403 79.1599 109.382 78.9752C109.36 78.7905 108.883 69.5289 108.883 69.5289Z" fill="#FFBE9D"/>
<path d="M111.237 76.3636C111.267 76.3378 111.358 76.4366 111.56 76.5097C111.839 76.6119 112.147 76.6011 112.419 76.4796C113.097 76.1789 113.617 75.0405 113.579 73.8549C113.557 73.29 113.41 72.7369 113.149 72.2354C113.074 72.034 112.952 71.8535 112.793 71.7092C112.633 71.565 112.442 71.4611 112.234 71.4063C112.1 71.3796 111.961 71.4006 111.841 71.4657C111.721 71.5308 111.627 71.636 111.577 71.7629C111.499 71.9519 111.551 72.0808 111.517 72.0937C111.482 72.1065 111.366 71.9906 111.405 71.7156C111.43 71.5497 111.512 71.3977 111.637 71.2861C111.809 71.1376 112.033 71.0635 112.26 71.0799C112.533 71.1162 112.792 71.2222 113.013 71.3877C113.233 71.5532 113.407 71.7727 113.518 72.0249C113.832 72.579 114.006 73.2012 114.025 73.8377C114.064 75.1651 113.463 76.4452 112.526 76.776C112.353 76.8389 112.168 76.8616 111.985 76.8422C111.802 76.8229 111.625 76.762 111.469 76.6643C111.259 76.5182 111.216 76.3765 111.237 76.3636Z" fill="#EB996E"/>
<path d="M85.4932 71.2515C85.4583 70.756 85.3879 70.2635 85.2827 69.7781C85.084 68.9657 84.718 68.2037 84.2082 67.5407C83.6984 66.8778 83.0558 66.3284 82.3217 65.9278C81.5876 65.5272 80.778 65.2841 79.9446 65.2141C79.1112 65.144 78.2724 65.2485 77.4817 65.521C76.9371 65.7047 76.4242 65.9713 75.961 66.3114C75.4662 66.6534 75.0308 67.0742 74.6723 67.5572C73.9025 68.5651 73.4763 69.7932 73.4562 71.0613C73.4361 72.3293 73.8232 73.5704 74.5606 74.6021C74.9011 75.0953 75.3189 75.5305 75.7977 75.8909C76.2491 76.2466 76.7536 76.5293 77.2926 76.7285C78.2893 77.1125 79.3707 77.2222 80.4242 77.0464C81.3429 76.8948 82.2128 76.5283 82.963 75.9768C84.0613 75.1778 84.8587 74.0323 85.2268 72.7249C85.3454 72.2415 85.4315 71.7507 85.4846 71.2558C85.4864 71.2887 85.4864 71.3217 85.4846 71.3546C85.4846 71.4362 85.4846 71.5307 85.4846 71.6467C85.4808 71.8038 85.4651 71.9603 85.4373 72.1149C85.4137 72.3282 85.3735 72.5394 85.3171 72.7464C84.9723 74.0914 84.1761 75.2773 83.0618 76.1056C82.2366 76.7231 81.2686 77.1218 80.2478 77.2645C79.2271 77.4072 78.1868 77.2893 77.2239 76.9218C76.0808 76.4898 75.0923 75.7271 74.3844 74.731C73.6185 73.6621 73.2163 72.3754 73.2372 71.0605C73.2581 69.7457 73.7009 68.4723 74.5004 67.4283C74.8726 66.9304 75.3222 66.4953 75.8321 66.1396C76.3083 65.7977 76.8342 65.5311 77.3914 65.3492C78.3654 65.0126 79.4086 64.9279 80.424 65.1029C81.4395 65.2779 82.3942 65.7069 83.1993 66.3501C84.2891 67.2145 85.0476 68.4282 85.3471 69.7867C85.3963 69.9959 85.4307 70.2083 85.4502 70.4224C85.4713 70.579 85.4813 70.7369 85.4803 70.8949C85.4803 71.0109 85.4803 71.1054 85.4803 71.1828C85.4856 71.2055 85.4899 71.2284 85.4932 71.2515V71.2515Z" fill="#455A64"/>
<path d="M102.092 71.5181C102.057 71.0227 101.988 70.5304 101.885 70.0446C101.562 68.727 100.806 67.556 99.7375 66.7198C99.0045 66.145 98.1466 65.7506 97.2331 65.5685C96.1855 65.3615 95.1016 65.4371 94.0929 65.7876C93.5491 65.9731 93.0365 66.2395 92.5722 66.578C92.0784 66.9212 91.6432 67.3418 91.2835 67.8238C90.5148 68.8311 90.0888 70.0581 90.0679 71.325C90.047 72.592 90.4324 73.8324 91.1675 74.8644C91.51 75.3575 91.9291 75.7926 92.409 76.1532C92.8603 76.5091 93.3647 76.7918 93.9039 76.9908C94.9006 77.3748 95.982 77.4845 97.0355 77.3087C97.9529 77.1572 98.8214 76.7907 99.57 76.2391C100.669 75.44 101.468 74.2948 101.838 72.9872C101.957 72.504 102.041 72.0131 102.092 71.5181C102.096 71.5509 102.096 71.5841 102.092 71.6169C102.092 71.6942 102.092 71.793 102.092 71.909C102.092 72.0661 102.077 72.2228 102.049 72.3772C102.025 72.5909 101.984 72.8022 101.924 73.0087C101.583 74.3553 100.786 75.5423 99.6688 76.3679C98.9089 76.9386 98.0264 77.324 97.0913 77.4934C96.0048 77.6806 94.888 77.5739 93.8566 77.1841C92.7117 76.7554 91.7224 75.992 91.0172 74.9933C90.2512 73.9244 89.849 72.6377 89.8699 71.3228C89.8908 70.008 90.3336 68.7346 91.1332 67.6906C91.8721 66.7168 92.8847 65.9855 94.0414 65.59C95.0849 65.2334 96.205 65.1637 97.2846 65.3881C98.4346 65.6245 99.492 66.1875 100.33 67.0096C101.168 67.8317 101.751 68.878 102.01 70.0232C102.063 70.2316 102.098 70.4444 102.113 70.6589C102.138 70.8151 102.149 70.9734 102.143 71.1315V71.4193C102.133 71.4556 102.116 71.4893 102.092 71.5181V71.5181Z" fill="#455A64"/>
<path d="M90.2355 71.0668C90.2011 71.0883 90.0293 70.8091 89.6298 70.4869C89.1177 70.0622 88.4763 69.8244 87.8111 69.8127C87.1459 69.801 86.4966 70.0161 85.9698 70.4225C85.5403 70.7275 85.377 71.0024 85.3469 70.9766C85.4538 70.7053 85.6355 70.4699 85.871 70.2979C86.409 69.8269 87.1033 69.5734 87.8182 69.5869C88.5331 69.6004 89.2173 69.88 89.7372 70.3709C89.9653 70.5516 90.1379 70.7927 90.2355 71.0668V71.0668Z" fill="#455A64"/>
<path d="M110.395 69.1081C110 69.2334 109.592 69.3169 109.18 69.3572C108.419 69.4775 107.367 69.5892 106.207 69.6923L103.23 69.9586C102.822 70.0214 102.41 70.053 101.997 70.0531C102.392 69.9267 102.8 69.8417 103.213 69.7997C103.969 69.6837 105.021 69.572 106.185 69.4689L109.158 69.2026C109.567 69.1371 109.981 69.1055 110.395 69.1081V69.1081Z" fill="#455A64"/>
<path d="M75.9048 74.9674C75.3687 74.348 74.9338 73.6477 74.6161 72.8926C74.3666 72.1108 74.2405 71.2948 74.2423 70.4741C74.1467 70.7053 74.1028 70.9545 74.1135 71.2044C74.0981 71.8061 74.1972 72.4052 74.4056 72.9699C74.6134 73.5347 74.9285 74.054 75.3334 74.4992C75.647 74.8343 75.8876 74.9889 75.9048 74.9674Z" fill="white"/>
<path d="M74.8658 68.1803C74.8314 68.1287 74.5865 68.2533 74.4362 68.5454C74.2858 68.8375 74.3503 69.1039 74.4104 69.0996C74.4705 69.0953 74.5221 68.8762 74.6381 68.6399C74.7541 68.4037 74.9044 68.2275 74.8658 68.1803Z" fill="white"/>
<path d="M91.0691 73.6659C91.1035 73.6659 90.9832 73.3222 90.8844 72.7681C90.6311 71.3146 90.9102 69.8184 91.6705 68.554C91.9583 68.0729 92.1903 67.8065 92.1645 67.7808C91.9114 67.9654 91.6981 68.1992 91.5374 68.4681C91.106 69.0927 90.8095 69.8003 90.6667 70.5458C90.524 71.2913 90.5381 72.0584 90.7083 72.7982C90.7688 73.1088 90.8915 73.404 91.0691 73.6659Z" fill="white"/>
<path d="M113.905 78.8853C113.905 78.8853 113.995 79.0142 114.124 79.2505C114.309 79.5861 114.406 79.9627 114.408 80.3459C114.414 80.6236 114.364 80.8998 114.259 81.1571C114.154 81.4144 113.997 81.6471 113.798 81.8408C113.557 82.0796 113.264 82.2582 112.941 82.362C112.619 82.4658 112.276 82.4918 111.942 82.4379C111.609 82.3695 111.298 82.2249 111.031 82.0154C110.764 81.8059 110.549 81.5373 110.404 81.2308C110.286 80.979 110.222 80.7058 110.214 80.4281C110.205 80.1503 110.254 79.8739 110.357 79.6156C110.492 79.2582 110.713 78.9395 111.001 78.6877C111.207 78.5116 111.345 78.4386 111.336 78.4214C111.194 78.4578 111.062 78.5253 110.949 78.619C110.622 78.8573 110.366 79.1813 110.211 79.5555C110.086 79.8324 110.022 80.1325 110.022 80.4361C110.022 80.7397 110.086 81.0398 110.211 81.3167C110.358 81.6619 110.59 81.965 110.884 82.1988C111.177 82.4326 111.525 82.5898 111.894 82.6562C112.264 82.7227 112.644 82.6963 113.001 82.5795C113.358 82.4626 113.681 82.259 113.939 81.9868C114.153 81.7721 114.32 81.5145 114.427 81.2309C114.534 80.9473 114.58 80.6442 114.562 80.3416C114.547 79.9371 114.421 79.5446 114.197 79.2075C114.047 78.9712 113.905 78.8767 113.905 78.8853Z" fill="#E0E0E0"/>
<path d="M77.619 83.954C77.2555 84.0995 76.8547 84.1236 76.4764 84.0228C76.0717 83.9094 75.707 83.6847 75.4239 83.3741C75.0751 82.9975 74.8398 82.5299 74.7452 82.0253C74.6468 81.5204 74.71 80.9973 74.9256 80.5304C75.1026 80.1475 75.3658 79.8108 75.6946 79.5466C76.012 79.3145 76.3586 79.1253 76.7255 78.9839C76.6163 78.9741 76.5062 78.9888 76.4034 79.0268C76.1128 79.1075 75.8392 79.2399 75.5958 79.4178C75.231 79.6859 74.9362 80.0381 74.7366 80.4444C74.4913 80.9467 74.4159 81.5151 74.5218 82.0639C74.627 82.6125 74.8897 83.1185 75.2779 83.5202C75.593 83.8487 75.9979 84.0773 76.442 84.1774C76.7397 84.2477 77.0512 84.2313 77.3398 84.1302C77.5417 84.0485 77.6276 83.9626 77.619 83.954Z" fill="#E0E0E0"/>
<path d="M101.447 169.25L95.0769 171.135C95.0769 171.135 91.563 172.643 89.8533 173.034C87.7312 173.52 86.2836 172.862 86.2063 171.681C86.1289 170.5 87.7785 170.349 87.7785 170.349C89.1805 169.815 90.5441 169.185 91.8594 168.464C92.8146 167.8 93.5956 166.916 94.1362 165.886L91.8594 166.2C91.8594 166.2 87.0697 169.636 85.2655 170.676C83.4613 171.715 83.0661 169.89 82.9114 169.34C82.7568 168.79 88.2467 163.218 88.2467 163.218C88.2467 163.218 82.9888 166.595 82.048 167.437C81.1072 168.279 79.6897 168.554 79.3761 168.008C79.0625 167.463 78.199 167.458 79.3761 165.13C80.5531 162.802 89.9736 156.539 89.9736 156.539L87.3962 155.989L84.5696 157.247C84.3728 158.217 83.9715 159.134 83.3926 159.937C82.3745 161.449 80.566 159.937 80.566 159.937L81.6872 154.137L87.2716 150.641C87.2716 150.641 93.0794 151.349 93.9428 151.74C94.8063 152.131 95.7513 153.777 95.7513 153.777L97.3193 154.412C99.7549 155.117 99.6733 157.552 100.459 157.63C101.246 157.707 124.159 153.24 124.159 153.24L126.234 152.698C129.67 155.306 131.041 159.614 131.646 163.438C131.646 163.438 132.278 165.311 131.646 166.341L101.447 169.25Z" fill="#FFBE9D"/>
<path d="M105.653 165.173C105.68 165.051 105.687 164.925 105.674 164.8C105.676 164.656 105.663 164.512 105.635 164.37C105.615 164.175 105.578 163.983 105.524 163.794C105.201 162.71 104.655 161.705 103.921 160.843C103.209 159.977 102.415 159.182 101.55 158.468C101.208 158.155 100.835 157.878 100.438 157.639C100.755 157.968 101.093 158.278 101.447 158.567C102.273 159.307 103.043 160.108 103.75 160.964C104.463 161.806 105.012 162.775 105.369 163.82C105.623 164.641 105.605 165.178 105.653 165.173Z" fill="#EB996E"/>
<path d="M95.7298 153.777C95.7298 153.777 95.9188 153.876 96.2109 154.112C96.6181 154.456 96.9701 154.86 97.2548 155.31C97.4602 155.615 97.6358 155.939 97.7789 156.277C97.911 156.675 97.9946 157.087 98.028 157.506C98.0871 157.992 98.2608 158.457 98.5349 158.863C98.8458 159.256 99.1016 159.69 99.2953 160.152C99.5894 160.933 99.5894 161.794 99.2953 162.574L99.2652 162.656L99.3382 162.703C100.334 163.347 101.055 164.337 101.361 165.483C101.467 165.934 101.532 166.394 101.555 166.857C101.59 166.737 101.604 166.613 101.598 166.488C101.602 166.14 101.565 165.792 101.486 165.453C101.212 164.249 100.482 163.199 99.4499 162.523L99.4929 162.652C99.8038 161.821 99.8038 160.905 99.4929 160.074C99.2947 159.599 99.0284 159.155 98.7024 158.756C98.4412 158.371 98.2762 157.929 98.2213 157.467C98.1696 156.648 97.8699 155.865 97.3622 155.22C97.059 154.764 96.678 154.364 96.2367 154.039C96.1179 153.949 95.9879 153.876 95.8501 153.82C95.812 153.8 95.7716 153.786 95.7298 153.777V153.777Z" fill="#EB996E"/>
<path d="M90.2139 156.345C90.7636 156.417 91.3223 156.357 91.8448 156.172C92.3672 155.987 92.8387 155.681 93.2209 155.28C93.178 155.228 92.6024 155.671 91.7733 155.959C90.9442 156.247 90.2139 156.281 90.2139 156.345Z" fill="#EB996E"/>
<path d="M88.745 162.69C89.5745 162.458 90.3811 162.15 91.1549 161.771C91.9587 161.462 92.7347 161.086 93.4746 160.646C92.6472 160.885 91.8411 161.192 91.0647 161.565C90.2609 161.873 89.4849 162.25 88.745 162.69V162.69Z" fill="#EB996E"/>
<path d="M93.9124 165.826C94.7464 165.543 95.5614 165.208 96.3524 164.821C95.9041 164.841 95.4649 164.955 95.0637 165.156C94.6356 165.292 94.2426 165.521 93.9124 165.826Z" fill="#EB996E"/>
<path d="M89.5349 163.099C89.9047 163.297 90.23 163.569 90.4908 163.898C90.7516 164.226 90.9423 164.605 91.0513 165.01C91.0814 165.01 91.1072 164.86 91.0513 164.619C90.9905 164.304 90.855 164.008 90.6562 163.756C90.4574 163.504 90.201 163.304 89.9087 163.172C89.6982 163.081 89.5435 163.073 89.5349 163.099Z" fill="#EB996E"/>
<path d="M87.2326 159.614C87.2068 159.675 87.6278 159.889 87.9113 160.37C88.0557 160.676 88.1763 160.992 88.2721 161.316C88.3331 161.138 88.3493 160.949 88.3193 160.763C88.2894 160.578 88.2141 160.404 88.1003 160.254C87.7738 159.705 87.2412 159.554 87.2326 159.614Z" fill="#EB996E"/>
<path d="M87.8816 153.304C87.9031 153.304 87.989 153.205 88.0534 152.999C88.1308 152.718 88.1308 152.421 88.0534 152.14C87.9786 151.862 87.8302 151.61 87.6239 151.41C87.4692 151.259 87.3403 151.208 87.3275 151.229C87.5323 151.529 87.6983 151.854 87.8215 152.196C87.8853 152.562 87.9055 152.934 87.8816 153.304V153.304Z" fill="#EB996E"/>
<path d="M41.4404 155.28C41.4404 155.28 41.7282 149.644 47.5704 148.476C53.4126 147.307 63.645 152.273 63.645 152.273L92.3146 172.252L91.4554 174.722L62.3563 170.667L59.6929 171.69L39.2539 158.261L19.9661 144.317L22.114 142.638C22.114 142.638 27.518 146.362 31.092 147.964C34.6661 149.567 39.8338 152.376 41.4404 155.28Z" fill="#F5F5F5"/>
<path d="M92.7571 175.539L68.4949 160.465L42.8452 156.345C42.8452 156.345 41.5565 158.21 39.3785 157.754L18.2866 143.149L17.8871 144.03L58.7909 172.768C59.3915 172.987 60.0407 173.039 60.6683 172.916C61.296 172.793 61.8781 172.501 62.352 172.072L92.7571 175.539Z" fill="#455A64"/>
<path d="M42.8453 156.346C42.9035 156.409 42.97 156.464 43.0429 156.509L43.6357 156.939C44.1512 157.308 44.8944 157.845 45.7836 158.524C47.605 159.877 50.0793 161.806 52.7513 163.992C55.4232 166.179 57.8245 168.21 59.5428 169.692L61.5918 171.454L62.1503 171.926C62.2107 171.986 62.2785 172.038 62.3522 172.081C62.3522 172.081 62.3006 172.012 62.1803 171.896L61.652 171.389C61.188 170.96 60.5136 170.333 59.6631 169.581C57.9706 168.069 55.595 166.024 52.9102 163.829C50.2254 161.634 47.7553 159.726 45.8953 158.403C44.976 157.738 44.2157 157.222 43.683 156.874L43.0687 156.479C42.9985 156.428 42.9237 156.383 42.8453 156.346Z" fill="#263238"/>
<path d="M43.1073 153.209C45.4313 150.714 49.0912 149.824 52.4934 150.091C55.8956 150.357 59.1217 151.624 62.2962 152.883L91.9753 173.197L91.709 173.962L61.871 153.772C61.871 153.772 55.204 151.624 52.2529 151.255C47.3214 150.641 43.1073 153.209 43.1073 153.209Z" fill="#E0E0E0"/>
<path d="M38.4508 155.882L24.1804 146.255C24.1804 146.255 35.8734 152.338 38.4508 155.882Z" fill="#E0E0E0"/>
<path d="M91.9753 173.197C91.9389 173.16 91.8986 173.127 91.8551 173.099L91.4856 172.837L90.0637 171.836L84.8058 168.193L67.4081 156.247L62.3564 152.81C59.4819 151.513 56.4486 150.602 53.3354 150.099C50.8205 149.744 48.2565 150.106 45.9381 151.143C45.0711 151.546 44.2725 152.083 43.5712 152.733C43.0467 153.221 42.6005 153.788 42.2481 154.412C42.0266 154.804 41.8534 155.221 41.7326 155.654C41.7026 155.796 41.6768 155.907 41.6553 155.993C41.6459 156.031 41.6387 156.07 41.6338 156.109C41.7883 155.53 42.0164 154.972 42.3126 154.451C42.6736 153.843 43.1223 153.291 43.6442 152.814C44.3475 152.184 45.141 151.663 45.9983 151.268C48.2944 150.27 50.823 149.931 53.301 150.288C56.3892 150.794 59.3985 151.7 62.2533 152.982H62.2318L67.2836 156.418L84.6941 168.322L89.995 171.909L91.4384 172.871L91.8207 173.12C91.8694 173.151 91.9213 173.177 91.9753 173.197V173.197Z" fill="#263238"/>
<path d="M65.9951 157.84C65.9275 157.784 65.8523 157.738 65.7717 157.703C65.6214 157.621 65.398 157.497 65.1102 157.351C64.5303 157.05 63.684 156.629 62.6187 156.148C59.8563 154.853 56.9249 153.955 53.9113 153.48C50.8818 153.023 47.7866 153.306 44.8903 154.305C44.0199 154.619 43.1836 155.02 42.3944 155.503C42.1109 155.667 41.909 155.826 41.7673 155.933C41.6923 155.979 41.6218 156.032 41.5568 156.092C41.5568 156.092 41.8704 155.912 42.4374 155.589C43.2366 155.141 44.0748 154.765 44.9418 154.468C47.8249 153.522 50.8893 153.265 53.8898 153.716C56.8818 154.19 59.7981 155.056 62.5628 156.294C63.6325 156.758 64.4873 157.153 65.0801 157.432L65.7589 157.746C65.8343 157.785 65.9134 157.817 65.9951 157.84V157.84Z" fill="#263238"/>
<path d="M20.7309 143.712C20.7309 143.712 20.791 143.768 20.9156 143.854L21.4697 144.223L23.5274 145.546C25.2714 146.663 27.6727 148.205 30.306 149.941C32.9393 151.676 35.2933 153.27 37.0116 154.43L39.0435 155.796L39.6019 156.161C39.6642 156.207 39.7321 156.244 39.8038 156.273C39.7506 156.216 39.6915 156.166 39.6277 156.122L39.0907 155.723C38.6268 155.379 37.9481 154.894 37.1018 154.297C35.4093 153.107 33.0553 151.487 30.4177 149.752C27.7801 148.016 25.3616 146.496 23.6004 145.413C22.7198 144.872 22.0024 144.442 21.5041 144.15L20.9242 143.815C20.8631 143.775 20.7984 143.74 20.7309 143.712Z" fill="#263238"/>
<path d="M33.7125 159.159C34.0039 159.86 34.3743 160.526 34.8165 161.144C35.3663 161.797 37.1619 162.707 37.3037 163.949C37.4454 165.19 37.1533 168.103 39.095 170.319C40.3466 171.698 41.9305 172.733 43.6957 173.326L51.355 172.579L63.5892 167.763C63.8626 167.694 64.0979 167.52 64.2441 167.279C64.3904 167.038 64.436 166.749 64.371 166.475C64.2952 166.176 64.132 165.907 63.9024 165.702C63.6728 165.497 63.3873 165.365 63.0823 165.323L62.7902 165.276C62.7902 165.276 63.4946 164.701 62.4852 163.691C61.626 162.832 59.7917 163.317 58.8467 163.631C57.9016 163.944 52.3602 166.26 51.3679 166.616C50.4872 166.93 49.8085 167.209 49.8085 167.209C49.8085 167.209 56.9007 162.424 56.9995 161.797C57.1155 161.045 57.0382 160.701 56.3122 160.177C55.4531 159.554 54.0441 160.22 52.678 160.796C51.66 161.225 45.1691 164.43 45.1691 164.43C45.1691 164.43 44.877 164.146 45.1691 163.571C45.4612 162.995 47.6177 160.22 47.9571 159.705C48.2964 159.189 48.3866 158.897 48.0473 158.463C47.5747 157.849 46.329 157.557 45.182 158.605C44.456 159.275 41.8743 161.01 41.8743 161.01L29.958 152.316C29.958 152.316 28.476 152.277 28.9915 154.344C29.5069 156.41 33.7125 159.159 33.7125 159.159Z" fill="#FFBE9D"/>
<path d="M42.5963 166.406C43.073 166.3 43.5171 166.081 43.891 165.767C44.2649 165.453 44.5575 165.053 44.7441 164.602C44.6883 164.568 44.3403 165.1 43.7475 165.594C43.1547 166.088 42.5662 166.342 42.5963 166.406Z" fill="#EB996E"/>
<path d="M41.6162 161.221C41.6162 161.195 41.4573 161.148 41.1866 161.182C40.849 161.232 40.5314 161.372 40.2685 161.59C40.0056 161.807 39.8075 162.093 39.696 162.415C39.6144 162.665 39.6273 162.845 39.6574 162.845C39.8373 162.444 40.0942 162.082 40.4134 161.78C40.7743 161.517 41.1828 161.327 41.6162 161.221Z" fill="#EB996E"/>
<path d="M41.0542 163.614C41.1186 163.614 41.1487 162.974 41.4021 162.244C41.6556 161.514 42.0121 160.977 41.9606 160.955C41.5831 161.277 41.3145 161.707 41.1916 162.188C40.9996 162.638 40.9515 163.136 41.0542 163.614V163.614Z" fill="#EB996E"/>
<path d="M34.0047 158.541C34.0047 158.562 34.155 158.476 34.3097 158.27C34.5057 157.996 34.6284 157.677 34.666 157.342C34.7036 157.007 34.6549 156.669 34.5245 156.358C34.4214 156.126 34.3054 156.01 34.2839 156.028C34.437 156.439 34.4915 156.881 34.443 157.317C34.3945 157.754 34.2444 158.173 34.0047 158.541V158.541Z" fill="#EB996E"/>
<path d="M44.7739 169.405C45.0496 169.468 45.3359 169.468 45.6116 169.405C46.2791 169.286 46.9196 169.048 47.5017 168.7C48.0811 168.36 48.6263 167.964 49.1298 167.519C49.3539 167.354 49.5522 167.157 49.7183 166.935C49.471 167.059 49.2402 167.213 49.031 167.394C48.5073 167.798 47.9593 168.17 47.39 168.507C46.8263 168.841 46.2171 169.091 45.5815 169.25C45.0918 169.353 44.7739 169.37 44.7739 169.405Z" fill="#EB996E"/>
<path d="M42.7805 168.176C42.7204 168.176 42.7161 168.606 43.0769 168.962C43.4377 169.319 43.8759 169.301 43.8673 169.241C43.8587 169.181 43.5279 169.095 43.2358 168.812C42.9437 168.528 42.8449 168.167 42.7805 168.176Z" fill="#EB996E"/>
<path d="M39.8553 166.028C39.8296 166.028 39.8296 166.144 39.9112 166.299C40.024 166.489 40.1938 166.639 40.3966 166.728C40.5979 166.826 40.8245 166.859 41.0453 166.823C41.2171 166.788 41.303 166.72 41.2901 166.694C41.2772 166.668 40.8949 166.728 40.4911 166.526C40.0873 166.324 39.9155 166.006 39.8553 166.028Z" fill="#EB996E"/>
<path d="M50.1737 170.904C50.1952 170.959 53.0432 169.774 56.5313 168.249C60.0195 166.724 62.8288 165.439 62.7859 165.388C62.7429 165.336 59.9121 166.522 56.4239 168.047C52.9358 169.572 50.1479 170.848 50.1737 170.904Z" fill="#EB996E"/>
<path d="M3.22427e-06 174.736C3.22427e-06 174.796 43.3094 174.847 96.7181 174.847C150.127 174.847 193.445 174.796 193.445 174.736C193.445 174.676 150.144 174.624 96.7181 174.624C43.2922 174.624 3.22427e-06 174.671 3.22427e-06 174.736Z" fill="#263238"/>
<path d="M187.912 128.973L178.59 174.736H97.6801C97.2517 174.736 96.8409 174.565 96.538 174.262C96.2351 173.96 96.0649 173.549 96.0649 173.12V173.12C96.0643 172.908 96.1057 172.697 96.1866 172.501C96.2675 172.304 96.3864 172.126 96.5365 171.975C96.6865 171.825 96.8647 171.706 97.061 171.624C97.2572 171.543 97.4676 171.501 97.6801 171.501H113.969L122.612 128.926C122.692 128.529 122.907 128.171 123.22 127.914C123.533 127.656 123.925 127.515 124.331 127.513L186.159 126.851C186.423 126.848 186.684 126.905 186.923 127.016C187.162 127.127 187.374 127.29 187.542 127.494C187.71 127.697 187.83 127.936 187.894 128.192C187.958 128.448 187.964 128.715 187.912 128.973V128.973Z" fill="#E0E0E0"/>
<path d="M187.912 128.973L187.937 128.836C187.955 128.693 187.955 128.549 187.937 128.406C187.907 128.132 187.814 127.869 187.664 127.638C187.515 127.406 187.315 127.212 187.078 127.07C186.914 126.969 186.734 126.897 186.546 126.855C186.336 126.821 186.123 126.808 185.91 126.817H184.454L180.811 126.847L157.429 127.066L141.131 127.234L131.999 127.324L127.213 127.375L124.765 127.401C124.554 127.401 124.361 127.401 124.137 127.401C123.919 127.426 123.707 127.488 123.51 127.586C123.114 127.779 122.8 128.108 122.625 128.514C122.545 128.714 122.487 128.923 122.454 129.137L122.329 129.751C122.247 130.18 122.161 130.576 122.076 130.988C121.909 131.816 121.74 132.649 121.569 133.488C121.228 135.163 120.883 136.86 120.533 138.579C119.835 142.015 119.119 145.528 118.386 149.116C116.929 156.29 115.409 163.751 113.849 171.454L113.957 171.368H97.9379C97.7267 171.36 97.5151 171.373 97.3064 171.406C96.8765 171.499 96.4982 171.752 96.2497 172.115C95.9982 172.477 95.8951 172.921 95.9619 173.357C96.0009 173.62 96.1009 173.871 96.2537 174.09C96.4065 174.308 96.6081 174.488 96.8425 174.615C97.0785 174.741 97.3399 174.812 97.6071 174.821H140.603H178.59H178.659V174.753C181.511 160.684 183.814 149.245 185.433 141.315C186.232 137.354 186.851 134.27 187.272 132.174C187.478 131.125 187.635 130.331 187.744 129.789C187.852 129.248 187.899 128.973 187.899 128.973C187.899 128.973 187.834 129.248 187.723 129.781C187.611 130.314 187.439 131.121 187.224 132.161C186.795 134.257 186.155 137.337 185.339 141.298C183.715 149.223 181.374 160.658 178.491 174.718L178.577 174.65L140.59 174.628H97.6243C97.3935 174.619 97.1676 174.559 96.9628 174.452C96.7595 174.34 96.5846 174.183 96.4513 173.993C96.318 173.804 96.23 173.586 96.1938 173.357C96.1384 172.976 96.2273 172.588 96.443 172.27C96.6628 171.956 96.9925 171.737 97.3666 171.656C97.5599 171.626 97.7554 171.615 97.9508 171.621H114.06V171.535C115.619 163.842 117.135 156.38 118.587 149.198C119.318 145.606 120.034 142.092 120.735 138.656L121.766 133.565C121.934 132.728 122.106 131.894 122.273 131.07C122.355 130.64 122.441 130.241 122.522 129.832L122.647 129.214C122.679 129.014 122.731 128.819 122.802 128.63C122.92 128.358 123.107 128.123 123.346 127.948C123.584 127.773 123.865 127.665 124.159 127.633C124.348 127.633 124.563 127.633 124.765 127.633L127.213 127.603L132.003 127.551L141.131 127.444L157.434 127.251L180.815 126.963L184.454 126.916L185.91 126.894C186.12 126.881 186.33 126.893 186.537 126.929C186.722 126.967 186.899 127.035 187.061 127.13C187.293 127.266 187.491 127.452 187.64 127.676C187.788 127.899 187.884 128.153 187.92 128.419C187.937 128.604 187.934 128.789 187.912 128.973V128.973Z" fill="#263238"/>
<path d="M153.301 152.587C151.825 152.587 150.629 151.391 150.629 149.915C150.629 148.439 151.825 147.243 153.301 147.243C154.777 147.243 155.973 148.439 155.973 149.915C155.973 151.391 154.777 152.587 153.301 152.587Z" fill="white"/>
<path d="M187.834 129.355C187.834 129.355 187.74 129.355 187.555 129.355H183.595L172.026 129.411L133.859 129.678L128.339 129.725H126.981C126.75 129.716 126.518 129.731 126.29 129.768C125.94 129.839 125.617 130.005 125.356 130.249C125.096 130.492 124.907 130.803 124.812 131.147C124.709 131.576 124.636 132.006 124.546 132.436L122.574 142.376C121.324 148.712 120.194 154.404 119.249 159.211C118.304 164.018 117.531 167.875 117.024 170.56C116.766 171.896 116.569 172.936 116.431 173.649C116.367 173.997 116.315 174.267 116.281 174.456C116.246 174.645 116.238 174.731 116.238 174.731C116.238 174.731 116.264 174.641 116.302 174.46C116.341 174.28 116.401 174.005 116.474 173.657L117.11 170.594C117.651 167.91 118.433 164.039 119.404 159.258C120.375 154.477 121.509 148.764 122.776 142.432C123.407 139.266 124.065 135.941 124.76 132.496C124.851 132.066 124.928 131.636 125.023 131.207C125.136 130.799 125.396 130.447 125.753 130.219C125.93 130.106 126.126 130.027 126.333 129.987C126.548 129.952 126.767 129.939 126.986 129.948H128.339L133.859 129.905L172.026 129.57L183.595 129.441L186.739 129.355H187.56H187.834Z" fill="#263238"/>
</svg>
