<svg id="Layer_1" data-name="Layer 1" xmlns="http://www.w3.org/2000/svg" xmlns:xlink="http://www.w3.org/1999/xlink" viewBox="0 0 841.89 595.28"><defs><style>.cls-1{fill:#f6adcd;}.cls-2{fill:url(#linear-gradient);}.cls-3{fill:#fff;}</style><linearGradient id="linear-gradient" x1="250.62" y1="308.97" x2="574.83" y2="308.97" gradientUnits="userSpaceOnUse"><stop offset="0" stop-color="#d0b9da"/><stop offset="0.06" stop-color="#cdb4d7"/><stop offset="0.44" stop-color="#ba95c5"/><stop offset="0.77" stop-color="#af82ba"/><stop offset="1" stop-color="#ab7bb6"/></linearGradient></defs><rect class="cls-1" x="203.99" y="98.4" width="420.21" height="420.21" rx="210.11"/><path class="cls-2" d="M539.18,266.18l-.13,110.41h-3.36l0-35.67q0-1.68-.06-3.3c0-.3,0-.59,0-.88,0-.89-.09-1.76-.16-2.62,0-.14,0-.3,0-.44a.88.88,0,0,1,0-.16c-.08-.92-.17-1.81-.28-2.69,0-.18,0-.35-.08-.53-.09-.7-.19-1.38-.31-2.06l-.15-.84c-.1-.57-.21-1.12-.33-1.67-.06-.28-.13-.56-.19-.84-.14-.57-.28-1.13-.43-1.68,0-.17-.08-.34-.13-.5a1.21,1.21,0,0,0,0-.18c-.1-.35-.22-.7-.33-1s-.18-.62-.29-.92-.24-.67-.36-1-.21-.58-.33-.87-.27-.65-.41-1l-.35-.81c-.15-.32-.31-.63-.46-.94s-.25-.51-.38-.75-.35-.62-.52-.92l-.39-.69c-.19-.31-.39-.61-.59-.91s-.26-.41-.4-.6-.46-.63-.7-.94l-.36-.49c-.37-.46-.74-.9-1.14-1.33s-.57-.63-.87-.93L490,272.75c.3.3.59.61.87.92s.77.88,1.14,1.34l.36.49c.24.31.48.61.7.94s.26.4.4.6.4.6.59.91l.39.68c.17.31.35.61.52.93s.25.5.38.75.31.62.46.94.23.54.35.81.28.64.41,1,.22.58.33.86.25.67.36,1,.2.61.29.91.23.7.33,1.05l.18.68c.15.55.3,1.11.43,1.68.06.28.13.56.19.84.12.55.23,1.1.33,1.67l.15.84c.12.67.22,1.36.31,2.06,0,.18.06.35.08.53.11.87.2,1.77.28,2.69,0,.2,0,.4,0,.6.07.86.12,1.73.16,2.62,0,.29,0,.58,0,.88,0,1.08.06,2.17.06,3.3l0,27.37-35-35.05a6.51,6.51,0,0,0-4.8-1.61c-.33,0-.64,0-1,0l-.29.05-.6.09-.33.1a4.5,4.5,0,0,0-.49.14l-.33.14a4,4,0,0,0-.43.19,3.14,3.14,0,0,0-.31.18c-.13.08-.27.15-.39.24l-.29.22-.35.29c-.09.08-.17.18-.26.27s-.21.22-.31.34l-.24.31c-.09.13-.19.25-.27.39l-.08.1-.06.12a9.53,9.53,0,0,0-.65,1.32l0,0c-.07.19-.14.4-.2.6s-.07.19-.1.28a9.73,9.73,0,0,0-.26,1h0c-.09.4-.16.83-.23,1.27,0,.14,0,.29,0,.43,0,.32-.08.64-.1,1l0,.23a1.93,1.93,0,0,1,0,.24q-.06.9-.06,1.89l0,13.75,9.46,9.47,0,19.65h-9.47l0,26.28H449.7l.09-74.74-29.35-29.36V267l16.37-25.68-35.65-35.67-12.67,19.88-19.87-19.88,7.44,11.89,10.7,10.71-2,3.08,0,12.33-34.29-34.31c.2.2.4.41.59.62a15.94,15.94,0,0,1,1.25,1.57c.13.19.24.39.36.58.25.38.49.76.72,1.17.13.24.24.5.36.75s.37.76.54,1.16.21.58.32.88.29.79.41,1.21.15.56.22.85c.14.53.27,1.07.38,1.63.06.32.11.63.16,1,.09.57.17,1.15.23,1.75,0,.32.07.63.09,1,.08,1,.13,2,.12,3.07v14.08l-18.44-18.45a3.36,3.36,0,0,0-2.49-.91,4,4,0,0,0-.87.09l-.25.08a2.7,2.7,0,0,0-.5.18l-.26.17a2,2,0,0,0-.37.27,1.84,1.84,0,0,0-.23.25,2.68,2.68,0,0,0-.29.36l0,0c-.08.13-.14.29-.21.43a2.26,2.26,0,0,1-.11.22s0,0,0,0a4.06,4.06,0,0,0-.19.62c0,.08,0,.14-.07.23h0s0,.08,0,.12a11,11,0,0,0-.16,1.09s0,.07,0,.12,0,.28,0,.42l-20.31-20.32,0,17.17-17.16-17.17,0,16.58H281.05l0,17.16-17.15-17.16H250.71L281,252.58v10.85H263.83l35.65,35.68h9.13l0,31.61L275.77,297.9H250.62l35.65,35.67h22.3l-.05,43H275.68l35.65,35.68h32.84l0-25.06,25,25.06h32.85l0-14.72,14.7,14.72h32.84v-5.6l5.59,5.6h32.83l0-14.72,14.7,14.72h32.85v-6.22l6.21,6.22h32.83l.14-110.42ZM328.56,297.9H316.65V286Zm15.65,78.69.05-43h25.08l0-25.07,6.28,6.29,0,20h-9.14l-.05,41.81Zm57.92,0v-6.14h9.13l0-29.12-9.12-9.13,0-30.35-10.36-10.37v-3.74l11.37,11.37H414.1l-.1,77.48Zm95.46,0,0-19.73-9.46-9.46v-4.29q0-1,.06-1.89c0-.16,0-.31,0-.47,0-.33.06-.65.1-1,0-.14,0-.29.05-.43.07-.44.14-.87.23-1.27s.17-.69.27-1c0-.09.06-.18.1-.28s.14-.42.22-.62a9,9,0,0,1,.65-1.32c.05-.08.09-.16.14-.23a3.67,3.67,0,0,1,.27-.38l.24-.32c.1-.12.2-.23.31-.34l.26-.27.35-.29.29-.22c.12-.09.26-.16.39-.24a3.14,3.14,0,0,1,.31-.18l.43-.19.33-.14a4.1,4.1,0,0,1,.5-.14c.11,0,.21-.07.32-.09a5.77,5.77,0,0,1,.6-.1l.29,0a7.36,7.36,0,0,1,.95-.05,10,10,0,0,1,1.49.1,6,6,0,0,1,2.69,1L500,376.59Z"/><polygon class="cls-3" points="294.19 205.68 294.17 222.26 281.05 222.26 281 263.44 263.83 263.44 263.88 222.26 250.71 222.26 250.73 205.68 294.19 205.68"/><polygon class="cls-3" points="311.37 205.68 311.3 263.44 294.12 263.44 294.19 205.68 311.37 205.68"/><path class="cls-3" d="M336.13,204.24q9.76,0,14.95,5.76t5.16,16.53l0,36.9H339l0-36.9q0-5.28-3.76-5.28t-3.64,5.28l0,36.9H314.44l0-37.48q0-9.87,5.92-15.79T336.13,204.24Z"/><polygon class="cls-3" points="401.16 205.68 384.8 231.36 384.76 263.44 367.58 263.44 367.62 231.36 351.18 205.68 368.62 205.68 376.06 217.57 384.06 205.68 401.16 205.68"/><polygon class="cls-3" points="333.73 266.18 333.69 297.9 308.62 297.9 308.52 376.6 275.68 376.6 275.77 297.9 250.62 297.9 250.66 266.18 333.73 266.18"/><polygon class="cls-3" points="366.57 266.18 366.52 305.66 375.66 305.66 375.63 334.78 366.49 334.78 366.44 376.6 333.59 376.6 333.73 266.18 366.57 266.18"/><polygon class="cls-3" points="381.29 266.18 414.14 266.18 414 376.6 381.16 376.6 381.29 266.18"/><path class="cls-3" d="M462.12,263.43q19.41,0,28.7,10.24t9.26,31.58L500,376.59H467.15l.09-69.15c0-4.31-.5-7.31-1.52-9s-2.86-2.5-5.5-2.5q-7.7,0-7.7,11.48l0,13.75H462l0,29.12h-9.47l0,26.28H419.6l.08-70.2q0-20.38,11.16-31.67T462.12,263.43Z"/><polygon class="cls-3" points="539.18 266.18 539.04 376.6 506.21 376.6 506.35 266.18 539.18 266.18"/></svg>